<svg width="642" height="181" viewBox="0 0 642 181" fill="none" xmlns="http://www.w3.org/2000/svg">
<path d="M0 53.3042L149.507 19.3301L402.789 0L557.573 19.3301L642 41.0032V115.981L557.573 151.712H333.605L149.507 181L7.03562 151.712L0 53.3042Z" fill="#F2B1C0"/>
<path d="M73.5527 67.4521L74.3513 67.4045C75.6656 67.3261 76.6489 67.5764 77.3012 68.1552C77.9525 68.7175 78.3134 69.5892 78.3838 70.7704C78.4245 71.4526 78.264 72.1216 77.9024 72.7776C77.5398 73.417 77.0822 73.8617 76.5294 74.1117C77.9741 74.2593 79.1162 74.7923 79.9556 75.7106C80.7951 76.629 81.2615 77.8701 81.3548 79.4339C81.4292 80.6817 81.2206 81.8045 80.7291 82.8022C80.2367 83.7832 79.5238 84.5687 78.5906 85.1586C77.6731 85.7309 76.632 86.0518 75.4674 86.1212L74.6688 86.1689L73.5527 67.4521ZM74.9438 73.9809C75.7424 73.9333 76.3988 73.6019 76.9131 72.9869C77.4274 72.3719 77.6593 71.6401 77.6087 70.7916C77.5521 69.8433 77.2766 69.1418 76.7819 68.6871C76.304 68.2314 75.5742 68.0328 74.5926 68.0913L74.393 68.1033L74.7442 73.9928L74.9438 73.9809ZM75.6254 85.4106C76.6069 85.3521 77.4831 85.0661 78.2539 84.5526C79.0238 84.0225 79.6163 83.3193 80.0315 82.443C80.4468 81.5668 80.6226 80.5963 80.5592 79.5315C80.457 77.8179 79.9226 76.5558 78.9559 75.7452C78.0049 74.917 76.681 74.5535 74.984 74.6547L74.7843 74.6666L75.4257 85.4225L75.6254 85.4106ZM90.495 67.2182L87.5502 67.3938L87.5071 66.6701L91.2754 66.4454L92.3885 85.1122L91.565 85.1613L90.495 67.2182ZM100.943 65.5183C102.224 65.4419 103.424 65.6876 104.543 66.2553C105.679 66.8221 106.594 67.619 107.29 68.646C108.002 69.6721 108.396 70.8174 108.472 72.0818C108.584 73.9618 107.842 75.9345 106.245 77.9998L101.153 84.5896L100.205 84.6461L105.096 78.4691C104.681 78.7943 104.147 79.0683 103.492 79.291C102.837 79.5137 102.202 79.6434 101.587 79.6801C100.389 79.7515 99.2382 79.4946 98.1347 78.9092C97.0479 78.3229 96.1556 77.4995 95.4579 76.4392C94.7769 75.3778 94.3987 74.2149 94.3233 72.9505C94.2479 71.6861 94.4945 70.5026 95.0633 69.4002C95.631 68.2811 96.4284 67.3736 97.4555 66.6779C98.4992 65.9812 99.6616 65.5947 100.943 65.5183ZM100.984 66.2171C99.853 66.2845 98.83 66.6294 97.9154 67.2516C97.0008 67.8738 96.29 68.6926 95.7828 69.7079C95.2914 70.7056 95.0798 71.7784 95.1483 72.9264C95.2168 74.0743 95.5631 75.1222 96.1873 76.0701C96.8115 77.0179 97.6151 77.7547 98.5981 78.2805C99.5802 78.7896 100.629 79.0109 101.743 78.9445C102.858 78.878 103.88 78.5248 104.811 77.885C105.741 77.2452 106.46 76.4176 106.967 75.4023C107.49 74.386 107.719 73.3121 107.651 72.1808C107.583 71.0328 107.237 69.9933 106.614 69.062C105.989 68.1142 105.178 67.3862 104.179 66.8781C103.181 66.3699 102.116 66.1496 100.984 66.2171ZM117.913 83.8908C116.632 83.9671 115.423 83.722 114.288 83.1552C113.168 82.5875 112.253 81.7906 111.54 80.7645C110.845 79.7374 110.459 78.5917 110.384 77.3273C110.272 75.4473 111.014 73.4746 112.61 71.4092L117.702 64.8195L118.651 64.7629L113.76 70.94C114.174 70.6147 114.709 70.3408 115.363 70.1181C116.018 69.8954 116.653 69.7657 117.269 69.729C118.467 69.6576 119.609 69.915 120.696 70.5014C121.799 71.0867 122.691 71.9101 123.373 72.9714C124.07 74.0318 124.457 75.1941 124.532 76.4586C124.608 77.723 124.361 78.9147 123.794 80.0339C123.225 81.1363 122.419 82.0359 121.375 82.7326C120.348 83.4283 119.194 83.8144 117.913 83.8908ZM117.871 83.192C119.002 83.1245 120.025 82.7797 120.94 82.1575C121.855 81.5353 122.558 80.7253 123.049 79.7276C123.556 78.7123 123.776 77.6307 123.707 76.4827C123.639 75.3348 123.292 74.2868 122.668 73.339C122.044 72.3911 121.241 71.6626 120.259 71.1535C119.276 70.6278 118.227 70.3981 117.112 70.4646C115.998 70.5311 114.975 70.8842 114.045 71.5241C113.115 72.1639 112.388 72.992 111.864 74.0083C111.357 75.0236 111.137 76.0969 111.204 77.2283C111.273 78.3762 111.619 79.4241 112.243 80.372C112.866 81.3032 113.677 82.0229 114.676 82.531C115.675 83.0391 116.74 83.2595 117.871 83.192ZM136.453 82.8102C134.673 82.9164 133.016 82.5811 131.484 81.8042C129.951 81.0108 128.708 79.8995 127.754 78.4703C126.816 77.0236 126.295 75.4268 126.191 73.6799C126.09 71.9829 126.428 70.3683 127.205 68.836C127.998 67.3027 129.109 66.0593 130.539 65.1059C131.983 64.1348 133.571 63.5977 135.301 63.4946C137.048 63.3904 138.688 63.735 140.221 64.5285C141.754 65.3054 142.996 66.4083 143.95 67.8374C144.92 69.2656 145.457 70.8531 145.561 72.6C145.664 74.3302 145.328 75.9615 144.551 77.4938C143.773 79.0095 142.67 80.2523 141.242 81.2224C139.813 82.1758 138.216 82.7051 136.453 82.8102ZM136.41 82.0865C138.007 81.9913 139.455 81.5042 140.755 80.6253C142.071 79.7287 143.087 78.5745 143.805 77.1626C144.522 75.7508 144.832 74.2379 144.736 72.6241C144.641 71.027 144.153 69.5701 143.273 68.2534C142.393 66.9202 141.246 65.8949 139.834 65.1777C138.438 64.4428 136.941 64.123 135.344 64.2183C133.747 64.3135 132.291 64.8094 130.975 65.706C129.675 66.5849 128.667 67.7386 127.951 69.1671C127.233 70.579 126.922 72.0835 127.018 73.6807C127.114 75.2945 127.602 76.7597 128.482 78.0763C129.362 79.3929 130.5 80.4187 131.896 81.1535C133.308 81.8708 134.813 82.1818 136.41 82.0865ZM147.66 74.0026L155.421 73.5398L155.467 74.3134L147.706 74.7762L147.66 74.0026ZM165.114 80.7756L160.654 74.8556L156.979 81.2607L156.18 81.3083L160.151 74.4097L156.833 69.9994L157.756 69.9444L160.559 73.6842L162.872 69.6393L163.671 69.5917L161.061 74.13L166.038 80.7205L165.114 80.7756ZM173.163 69.0507L178.129 68.7546L178.171 69.4533L174.003 69.7018L174.63 80.2082L173.831 80.2558L173.163 69.0507ZM185.5 79.9607C184.369 80.0281 183.33 79.8146 182.382 79.3202C181.433 78.8091 180.673 78.1114 180.103 77.2271C179.532 76.3262 179.214 75.335 179.149 74.2536C179.086 73.1888 179.285 72.1835 179.746 71.2377C180.224 70.2909 180.896 69.5246 181.763 68.9386C182.645 68.335 183.644 68 184.758 67.9335C185.856 67.868 186.871 68.083 187.802 68.5785C188.749 69.0563 189.507 69.7374 190.078 70.6216C190.648 71.5059 190.965 72.4805 191.028 73.5452C191.095 74.6599 190.906 75.698 190.463 76.6594C190.018 77.6042 189.363 78.3779 188.497 78.9805C187.647 79.5655 186.648 79.8922 185.5 79.9607ZM185.459 79.2619C186.407 79.2054 187.258 78.9125 188.011 78.3834C188.764 77.8543 189.333 77.1776 189.718 76.3532C190.119 75.5112 190.29 74.6077 190.233 73.6428C190.176 72.6945 189.899 71.8261 189.401 71.0376C188.903 70.2492 188.249 69.6371 187.438 69.2012C186.628 68.7654 185.748 68.5757 184.8 68.6323C183.852 68.6888 182.993 68.9905 182.224 69.5372C181.471 70.0663 180.886 70.7523 180.469 71.5953C180.068 72.4374 179.896 73.3325 179.953 74.2808C180.009 75.2291 180.286 76.0975 180.784 76.8859C181.298 77.6568 181.96 78.2601 182.77 78.6959C183.598 79.1308 184.494 79.3194 185.459 79.2619ZM204.506 77.7003L204.694 80.8447L203.995 80.8864L203.851 78.4657L193.07 79.1086L193.214 81.5293L192.516 81.5709L192.33 78.4515L193.253 78.3964L197.821 67.2297L203.683 77.7494L204.506 77.7003ZM202.884 77.7971L197.92 68.8768L194.05 78.3238L202.884 77.7971ZM211.057 78.3115C209.992 78.375 208.986 78.1678 208.039 77.69C207.093 77.2122 206.326 76.5399 205.74 75.6733C205.153 74.79 204.829 73.8243 204.766 72.7761C204.704 71.728 204.912 70.7389 205.391 69.8087C205.868 68.8619 206.549 68.0951 207.432 67.5081C208.316 66.9211 209.29 66.5959 210.354 66.5324C211.436 66.4679 212.476 66.6981 213.476 67.2228C214.475 67.731 215.193 68.4311 215.63 69.3234L215.462 66.5034L216.26 66.4557L216.93 77.6858L216.131 77.7334L215.965 74.9384C215.571 75.8969 214.917 76.6872 214.002 77.3094C213.103 77.914 212.122 78.248 211.057 78.3115ZM211.065 77.6098C211.98 77.5552 212.815 77.2717 213.569 76.7592C214.322 76.2301 214.9 75.5612 215.302 74.7525C215.721 73.9261 215.902 73.0471 215.846 72.1154C215.792 71.2004 215.508 70.3575 214.994 69.5867C214.481 68.8158 213.819 68.2208 213.01 67.8016C212.199 67.3658 211.336 67.1751 210.421 67.2297C209.506 67.2843 208.664 67.5766 207.894 68.1067C207.141 68.6358 206.547 69.314 206.112 70.1414C205.693 70.9677 205.512 71.8384 205.566 72.7535C205.621 73.6685 205.905 74.5114 206.418 75.2822C206.947 76.0354 207.626 76.6294 208.453 77.0643C209.279 77.4825 210.15 77.6643 211.065 77.6098ZM227.991 77.0262L223.53 71.1062L219.855 77.5114L219.057 77.559L223.028 70.6604L219.71 66.2501L220.633 66.195L223.436 69.9348L225.749 65.8899L226.548 65.8423L223.938 70.3807L228.914 76.9712L227.991 77.0262ZM241.529 64.5482C242.628 64.4828 243.642 64.6977 244.573 65.1932C245.52 65.671 246.279 66.3521 246.849 67.2364C247.419 68.1206 247.736 69.0952 247.8 70.16C247.866 71.2746 247.678 72.3127 247.234 73.2741C246.789 74.219 246.134 74.9927 245.269 75.5952C244.419 76.1802 243.42 76.5069 242.272 76.5754C241.157 76.6418 240.126 76.4279 239.178 75.9334C238.23 75.4389 237.463 74.7501 236.876 73.8668C236.305 72.9658 235.987 71.983 235.924 70.9182L235.866 69.9449C235.74 67.832 235.853 66.0972 236.206 64.7404C236.575 63.366 237.169 62.2621 237.987 61.4285C238.806 60.595 239.905 59.8532 241.286 59.2033L245.646 57.1401L245.689 57.8638L241.501 59.8666C239.844 60.65 238.602 61.6507 237.773 62.8689C236.943 64.0704 236.532 65.7145 236.539 67.801C237.001 66.8719 237.666 66.1143 238.532 65.5284C239.416 64.9414 240.415 64.6147 241.529 64.5482ZM242.23 75.8766C243.178 75.8201 244.029 75.5272 244.782 74.9981C245.535 74.469 246.104 73.7923 246.489 72.9679C246.89 72.1259 247.062 71.2224 247.004 70.2575C246.947 69.3092 246.67 68.4408 246.172 67.6524C245.675 66.8639 245.02 66.2518 244.21 65.8159C243.399 65.3801 242.519 65.1904 241.571 65.247C240.623 65.3035 239.764 65.6052 238.995 66.1519C238.242 66.681 237.657 67.3671 237.24 68.2101C236.839 69.0521 236.667 69.9472 236.724 70.8955C236.78 71.8439 237.057 72.7122 237.555 73.5007C238.069 74.2715 238.731 74.8748 239.542 75.3106C240.369 75.7455 241.265 75.9342 242.23 75.8766ZM254.094 75.4446L248.061 64.5595L248.909 64.5089L254.465 74.5209L258.767 63.9211L259.54 63.875L252.796 80.556L252.023 80.6021L254.094 75.4446ZM271.282 73.7185L271.47 76.8629L270.771 76.9045L270.627 74.4838L259.846 75.1267L259.99 77.5474L259.292 77.5891L259.105 74.4696L260.029 74.4146L264.597 63.2478L270.459 73.7676L271.282 73.7185ZM269.66 73.8152L264.695 64.8949L260.826 74.342L269.66 73.8152ZM275.955 74.1411L269.921 63.2559L270.77 63.2053L276.326 73.2174L280.627 62.6175L281.401 62.5714L274.657 79.2524L273.883 79.2985L275.955 74.1411ZM298.709 72.8093L284.06 73.6828L283.39 62.4528L284.189 62.4051L284.817 72.9364L290.432 72.6016L289.804 62.0703L290.603 62.0227L291.231 72.554L296.846 72.2192L296.218 61.6879L297.016 61.6403L297.643 72.1466L299.44 72.0394L299.627 75.1839L298.853 75.23L298.709 72.8093ZM301.303 61.3846L302.077 61.3385L302.679 71.4455L310.137 60.8578L310.861 60.8147L311.531 72.0447L310.757 72.0909L310.156 62.0088L302.671 72.573L301.973 72.6147L301.303 61.3846ZM314.609 60.5912L315.383 60.545L315.986 70.6521L323.444 60.0644L324.167 60.0212L324.837 71.2513L324.063 71.2974L323.462 61.2153L315.978 71.7796L315.279 71.8212L314.609 60.5912ZM319.209 57.0862C318.094 57.1526 317.204 56.9302 316.54 56.4189C315.875 55.9076 315.501 55.237 315.418 54.4071L316.117 54.3654C316.204 54.9947 316.518 55.5019 317.059 55.887C317.616 56.2712 318.31 56.4385 319.142 56.3889C319.958 56.3403 320.611 56.0926 321.102 55.646C321.609 55.1983 321.886 54.6559 321.931 54.0187L322.63 53.977C322.645 54.7942 322.345 55.505 321.73 56.1094C321.114 56.6971 320.274 57.0227 319.209 57.0862ZM344.906 69.3282L345.094 72.4727L344.395 72.5143L344.251 70.0936L333.47 70.7365L333.614 73.1572L332.916 73.1989L332.73 70.0794L333.653 70.0243L338.221 58.8576L344.083 69.3774L344.906 69.3282ZM343.284 69.425L338.32 60.5047L334.45 69.9518L343.284 69.425ZM352.026 70.0307C350.895 70.0982 349.855 69.8847 348.907 69.3902C347.959 68.8791 347.199 68.1814 346.629 67.2971C346.057 66.3962 345.739 65.405 345.675 64.3236C345.611 63.2588 345.81 62.2536 346.272 61.3078C346.749 60.361 347.422 59.5946 348.288 59.0086C349.171 58.4051 350.169 58.07 351.284 58.0036C352.382 57.9381 353.396 58.1531 354.328 58.6485C355.274 59.1263 356.033 59.8074 356.603 60.6917C357.173 61.576 357.49 62.5505 357.554 63.6153C357.62 64.73 357.432 65.768 356.988 66.7295C356.544 67.6743 355.889 68.448 355.023 69.0506C354.173 69.6355 353.174 69.9623 352.026 70.0307ZM351.984 69.3319C352.933 69.2754 353.783 68.9826 354.537 68.4535C355.29 67.9244 355.859 67.2476 356.244 66.4233C356.644 65.5812 356.816 64.6778 356.758 63.7128C356.702 62.7645 356.425 61.8961 355.927 61.1077C355.429 60.3193 354.775 59.7071 353.964 59.2713C353.153 58.8354 352.274 58.6458 351.325 58.7023C350.377 58.7589 349.519 59.0605 348.75 59.6072C347.997 60.1363 347.411 60.8224 346.994 61.6654C346.593 62.5074 346.421 63.4026 346.478 64.3509C346.535 65.2992 346.812 66.1676 347.31 66.956C347.823 67.7268 348.485 68.3301 349.296 68.766C350.123 69.2008 351.019 69.3895 351.984 69.3319ZM359.768 57.8983L360.567 57.8507L360.799 61.7438L365.009 57.5858L366.032 57.5248L361.159 62.3234L368 68.6775L366.927 68.7415L360.875 63.0165L361.237 69.0808L360.438 69.1284L359.768 57.8983ZM372.282 57.8784L367.989 58.1344L367.948 57.4356L377.331 56.8761L377.373 57.5749L373.08 57.8308L373.707 68.3372L372.908 68.3848L372.282 57.8784ZM384.317 68.1052C383.186 68.1726 382.146 67.9591 381.199 67.4647C380.25 66.9536 379.49 66.2559 378.92 65.3716C378.349 64.4707 378.031 63.4795 377.966 62.3981C377.903 61.3333 378.102 60.328 378.563 59.3822C379.041 58.4354 379.713 57.6691 380.58 57.0831C381.462 56.4795 382.46 56.1445 383.575 56.078C384.673 56.0125 385.688 56.2275 386.619 56.723C387.566 57.2008 388.324 57.8819 388.894 58.7662C389.465 59.6504 389.782 60.625 389.845 61.6897C389.912 62.8044 389.723 63.8425 389.28 64.8039C388.835 65.7487 388.18 66.5224 387.314 67.125C386.464 67.71 385.465 68.0367 384.317 68.1052ZM384.276 67.4064C385.224 67.3499 386.075 67.057 386.828 66.5279C387.581 65.9988 388.15 65.3221 388.535 64.4977C388.936 63.6557 389.107 62.7522 389.05 61.7873C388.993 60.839 388.716 59.9706 388.218 59.1822C387.72 58.3937 387.066 57.7816 386.255 57.3457C385.444 56.9099 384.565 56.7202 383.617 56.7768C382.668 56.8333 381.81 57.135 381.041 57.6817C380.288 58.2108 379.703 58.8969 379.285 59.7399C378.885 60.5819 378.713 61.477 378.769 62.4253C378.826 63.3737 379.103 64.242 379.601 65.0305C380.114 65.8013 380.776 66.4046 381.587 66.8404C382.414 67.2753 383.311 67.464 384.276 67.4064ZM392.004 55.9761L392.803 55.9285L392.966 58.6736C393.362 57.7484 394.017 56.983 394.933 56.3775C395.848 55.7553 396.829 55.4129 397.877 55.3504C398.959 55.2859 399.964 55.4931 400.895 55.9719C401.841 56.4497 402.608 57.122 403.194 57.9886C403.78 58.8553 404.104 59.821 404.168 60.8858C404.231 61.9505 404.024 62.948 403.545 63.8782C403.066 64.8083 402.385 65.5669 401.502 66.1538C400.635 66.7398 399.661 67.065 398.58 67.1295C397.565 67.19 396.567 66.974 395.586 66.4815C394.621 65.9881 393.863 65.307 393.31 64.4384L393.77 72.1497L392.971 72.1973L392.004 55.9761ZM398.588 66.4277C399.503 66.3732 400.337 66.0897 401.092 65.5772C401.845 65.0481 402.423 64.3792 402.825 63.5704C403.243 62.7441 403.425 61.8651 403.369 60.9334C403.315 60.0184 403.031 59.1754 402.517 58.4046C402.004 57.6338 401.342 57.0388 400.532 56.6196C399.722 56.1838 398.859 55.9931 397.944 56.0477C397.029 56.1022 396.186 56.3946 395.417 56.9247C394.663 57.4538 394.069 58.132 393.634 58.9593C393.216 59.7857 393.034 60.6564 393.089 61.5715C393.144 62.4865 393.428 63.3294 393.941 64.1002C394.47 64.8534 395.148 65.4474 395.976 65.8823C396.802 66.3005 397.673 66.4823 398.588 66.4277ZM412.117 54.7768L412.915 54.7292L413.292 61.0429L420.903 60.5891L420.527 54.2753L421.326 54.2277L421.995 65.4577L421.197 65.5053L420.945 61.2878L413.334 61.7417L413.585 65.9592L412.787 66.0068L412.117 54.7768ZM430.735 65.212C429.67 65.2755 428.664 65.0684 427.718 64.5906C426.771 64.1127 426.004 63.4405 425.418 62.5738C424.832 61.6905 424.507 60.7248 424.444 59.6767C424.382 58.6285 424.59 57.6394 425.069 56.7092C425.547 55.7625 426.227 54.9956 427.11 54.4086C427.994 53.8217 428.968 53.4965 430.033 53.433C431.114 53.3685 432.154 53.5986 433.154 54.1234C434.153 54.6315 434.871 55.3317 435.308 56.2239L435.14 53.4039L435.938 53.3563L436.608 64.5863L435.81 64.634L435.643 61.8389C435.249 62.7974 434.595 63.5877 433.681 64.2099C432.782 64.8145 431.8 65.1486 430.735 65.212ZM430.743 64.5103C431.658 64.4557 432.493 64.1722 433.247 63.6598C434 63.1307 434.578 62.4617 434.981 61.653C435.399 60.8267 435.58 59.9476 435.525 59.016C435.47 58.1009 435.186 57.258 434.673 56.4872C434.159 55.7164 433.498 55.1214 432.688 54.7022C431.877 54.2663 431.014 54.0757 430.099 54.1302C429.184 54.1848 428.342 54.4771 427.572 55.0072C426.819 55.5363 426.225 56.2146 425.79 57.0419C425.372 57.8683 425.19 58.739 425.244 59.654C425.299 60.5691 425.583 61.412 426.096 62.1828C426.625 62.936 427.304 63.53 428.131 63.9648C428.957 64.3831 429.828 64.5649 430.743 64.5103ZM443.431 64.1545L437.397 53.2693L438.246 53.2187L443.801 63.2308L448.103 52.6309L448.877 52.5848L442.133 69.2658L441.359 69.3119L443.431 64.1545ZM450.866 52.4661L451.665 52.4185L451.897 56.3116L456.107 52.1536L457.13 52.0926L452.257 56.8912L459.098 63.2453L458.025 63.3093L451.973 57.5843L452.335 63.6486L451.536 63.6962L450.866 52.4661ZM484.313 61.7417L483.44 61.7937L479.471 54.8677L469.538 55.46L466.495 62.8042L465.622 62.8563L473.812 43.1338L484.313 61.7417ZM479.128 54.1619L473.869 44.9335L469.845 54.7155L479.128 54.1619ZM486.326 50.3517L487.124 50.3041L487.501 56.6178L495.112 56.164L494.736 49.8502L495.535 49.8026L496.204 61.0326L495.406 61.0802L495.154 56.8627L487.543 57.3166L487.794 61.5341L486.996 61.5817L486.326 50.3517ZM504.944 60.7869C503.879 60.8504 502.873 60.6433 501.927 60.1655C500.98 59.6876 500.213 59.0154 499.627 58.1487C499.041 57.2654 498.716 56.2997 498.653 55.2516C498.591 54.2034 498.799 53.2143 499.278 52.2841C499.756 51.3374 500.436 50.5705 501.319 49.9835C502.203 49.3966 503.177 49.0714 504.242 49.0079C505.323 48.9434 506.363 49.1735 507.363 49.6983C508.362 50.2064 509.08 50.9066 509.517 51.7988L509.349 48.9788L510.147 48.9312L510.817 60.1612L510.019 60.2089L509.852 57.4138C509.458 58.3723 508.804 59.1626 507.89 59.7848C506.991 60.3894 506.009 60.7235 504.944 60.7869ZM504.952 60.0852C505.867 60.0306 506.702 59.7471 507.456 59.2347C508.209 58.7056 508.787 58.0366 509.19 57.2279C509.608 56.4016 509.789 55.5225 509.734 54.5909C509.679 53.6758 509.395 52.8329 508.882 52.0621C508.368 51.2913 507.707 50.6963 506.897 50.2771C506.086 49.8412 505.223 49.6506 504.308 49.7051C503.393 49.7597 502.551 50.052 501.781 50.5821C501.028 51.1112 500.434 51.7895 499.999 52.6168C499.581 53.4432 499.399 54.3139 499.453 55.2289C499.508 56.144 499.792 56.9869 500.305 57.7577C500.834 58.5109 501.513 59.1049 502.34 59.5397C503.166 59.9579 504.037 60.1398 504.952 60.0852ZM516.435 49.2825L512.143 49.5385L512.101 48.8397L521.484 48.2802L521.526 48.979L517.234 49.2349L517.86 59.7413L517.061 59.7889L516.435 49.2825ZM528.47 59.5093C527.339 59.5767 526.299 59.3632 525.352 58.8688C524.403 58.3577 523.643 57.66 523.073 56.7757C522.502 55.8748 522.184 54.8836 522.119 53.8022C522.056 52.7374 522.255 51.7321 522.716 50.7863C523.194 49.8396 523.866 49.0732 524.733 48.4872C525.615 47.8836 526.613 47.5486 527.728 47.4821C528.826 47.4167 529.841 47.6317 530.772 48.1271C531.719 48.6049 532.477 49.286 533.048 50.1703C533.618 51.0546 533.935 52.0291 533.998 53.0939C534.065 54.2085 533.876 55.2466 533.433 56.2081C532.988 57.1529 532.333 57.9266 531.467 58.5292C530.617 59.1141 529.618 59.4408 528.47 59.5093ZM528.429 58.8105C529.377 58.754 530.228 58.4612 530.981 57.932C531.734 57.4029 532.303 56.7262 532.688 55.9018C533.089 55.0598 533.26 54.1563 533.203 53.1914C533.146 52.2431 532.869 51.3747 532.371 50.5863C531.873 49.7978 531.219 49.1857 530.408 48.7498C529.598 48.314 528.718 48.1244 527.77 48.1809C526.821 48.2374 525.963 48.5391 525.194 49.0858C524.441 49.6149 523.856 50.301 523.438 51.144C523.038 51.986 522.866 52.8811 522.922 53.8295C522.979 54.7778 523.256 55.6461 523.754 56.4346C524.267 57.2054 524.929 57.8087 525.74 58.2446C526.568 58.6794 527.464 58.8681 528.429 58.8105ZM545.54 58.0907L540.266 48.6128L536.156 58.6502L535.358 58.6979L540.184 46.8145L546.413 58.0386L545.54 58.0907ZM547.862 46.6823L548.636 46.6361L549.238 56.7432L556.696 46.1555L557.42 46.1123L558.09 57.3424L557.316 57.3885L556.715 47.3064L549.231 57.8706L548.532 57.9123L547.862 46.6823ZM561.169 45.8888L561.942 45.8427L562.545 55.9497L570.003 45.362L570.727 45.3188L571.396 56.5489L570.623 56.595L570.021 46.5129L562.537 57.0772L561.838 57.1188L561.169 45.8888ZM565.768 42.3838C564.653 42.4503 563.764 42.2278 563.099 41.7165C562.434 41.2052 562.06 40.5346 561.977 39.7047L562.676 39.663C562.763 40.2923 563.077 40.7995 563.618 41.1847C564.175 41.5688 564.87 41.7361 565.701 41.6865C566.517 41.6379 567.17 41.3903 567.661 40.9436C568.168 40.4959 568.445 39.9535 568.49 39.3163L569.189 39.2746C569.204 40.0918 568.905 40.8026 568.289 41.407C567.673 41.9947 566.833 42.3203 565.768 42.3838ZM74.941 92.4137L80.9304 92.0566L80.9735 92.7803L75.8077 93.0883L76.1708 99.1775L76.3954 99.1641C78.3253 99.0491 79.8368 99.4765 80.9298 100.447C82.0394 101.416 82.6513 102.857 82.7654 104.77C82.8299 105.851 82.6149 106.866 82.1204 107.814C81.6259 108.761 80.9121 109.53 79.9789 110.12C79.0613 110.693 78.0286 111.013 76.8806 111.081L76.0571 111.13L74.941 92.4137ZM77.0386 110.371C78.0036 110.313 78.8631 110.028 79.6173 109.516C80.3881 109.002 80.9826 108.332 81.4008 107.506C81.818 106.663 81.9979 105.759 81.9403 104.794C81.8401 103.114 81.3057 101.852 80.3371 101.008C79.3842 100.146 78.0758 99.7652 76.4121 99.8644L76.2125 99.8763L76.839 110.383L77.0386 110.371ZM89.4712 110.306L83.4376 99.4204L84.2861 99.3698L89.8419 109.382L94.1436 98.782L94.9172 98.7359L88.1732 115.417L87.3995 115.463L89.4712 110.306ZM96.6074 98.6351L97.4059 98.5875L97.5696 101.333C97.9653 100.407 98.6209 99.642 99.5364 99.0364C100.451 98.4142 101.432 98.0719 102.481 98.0094C103.562 97.9449 104.568 98.1521 105.498 98.6309C106.445 99.1087 107.211 99.7809 107.797 100.648C108.383 101.514 108.708 102.48 108.771 103.545C108.835 104.61 108.627 105.607 108.148 106.537C107.669 107.467 106.988 108.226 106.105 108.813C105.238 109.399 104.264 109.724 103.183 109.788C102.168 109.849 101.17 109.633 100.189 109.141C99.2246 108.647 98.4661 107.966 97.9134 107.097L98.3732 114.809L97.5746 114.856L96.6074 98.6351ZM103.191 109.087C104.106 109.032 104.941 108.749 105.695 108.236C106.448 107.707 107.026 107.038 107.429 106.229C107.847 105.403 108.028 104.524 107.973 103.592C107.918 102.677 107.634 101.834 107.121 101.064C106.607 100.293 105.946 99.6978 105.136 99.2786C104.325 98.8427 103.462 98.6521 102.547 98.7067C101.632 98.7612 100.79 99.0535 100.02 99.5836C99.2667 100.113 98.6727 100.791 98.2378 101.618C97.8196 102.445 97.6378 103.315 97.6923 104.23C97.7469 105.145 98.0309 105.988 98.5444 106.759C99.0735 107.512 99.7517 108.106 100.579 108.541C101.405 108.959 102.276 109.141 103.191 109.087ZM110.993 97.7773L111.792 97.7296L112.42 108.261L118.01 107.928L117.382 97.3963L118.18 97.3487L118.808 107.88L124.398 107.547L123.77 97.0153L124.569 96.9677L125.239 108.198L111.663 109.007L110.993 97.7773ZM131.159 97.3011L126.867 97.557L126.825 96.8583L136.208 96.2987L136.25 96.9975L131.958 97.2534L132.584 107.76L131.785 107.807L131.159 97.3011ZM143.271 106.722C144.137 106.67 144.947 106.396 145.702 105.901C146.457 105.405 147.069 104.751 147.538 103.938L147.614 105.211C147.039 105.929 146.395 106.469 145.682 106.828C144.968 107.172 144.145 107.371 143.213 107.426C142.182 107.488 141.192 107.272 140.244 106.777C139.313 106.282 138.546 105.593 137.942 104.71C137.355 103.827 137.031 102.87 136.97 101.838C136.903 100.724 137.11 99.7094 137.59 98.7959C138.068 97.8658 138.75 97.1239 139.636 96.5702C140.538 96.0155 141.554 95.7045 142.686 95.637C144.416 95.5338 145.929 96.1281 147.225 97.42L139.85 105.623C140.426 106.04 140.978 106.341 141.507 106.526C142.034 106.695 142.623 106.76 143.271 106.722ZM137.764 101.716C137.846 103.097 138.374 104.251 139.348 105.178L146.227 97.4795C145.649 97.0297 145.096 96.7204 144.568 96.5515C144.04 96.366 143.418 96.2946 142.702 96.3372C141.687 96.3978 140.794 96.6764 140.022 97.1732C139.266 97.6524 138.686 98.2881 138.283 99.0802C137.879 99.8723 137.706 100.751 137.764 101.716ZM149.913 95.4564L150.687 95.4103L151.29 105.517L158.748 94.9297L159.471 94.8865L160.141 106.117L159.367 106.163L158.766 96.0806L151.282 106.645L150.583 106.686L149.913 95.4564ZM154.513 91.9514C153.398 92.0179 152.508 91.7955 151.843 91.2842C151.178 90.7728 150.804 90.1022 150.722 89.2724L151.42 89.2307C151.508 89.8599 151.822 90.3671 152.363 90.7523C152.92 91.1365 153.614 91.3038 154.446 91.2542C155.261 91.2056 155.914 90.9579 156.405 90.5112C156.913 90.0636 157.19 89.5211 157.235 88.884L157.934 88.8423C157.949 89.6595 157.649 90.3703 157.034 90.9746C156.418 91.5623 155.578 91.888 154.513 91.9514ZM163.22 94.663L164.018 94.6154L164.395 100.929L172.006 100.475L171.63 94.1615L172.428 94.1139L173.098 105.344L172.299 105.392L172.048 101.174L164.436 101.628L164.688 105.845L163.889 105.893L163.22 94.663ZM187.324 104.821C186.243 104.886 185.229 104.687 184.283 104.226C183.354 103.764 182.597 103.1 182.011 102.233C181.425 101.366 181.098 100.367 181.031 99.2359C180.968 98.1878 181.177 97.2069 181.656 96.2934C182.135 95.3633 182.816 94.6047 183.7 94.0178C184.6 93.4298 185.607 93.1026 186.722 93.0362C187.653 92.9806 188.461 93.0827 189.144 93.3425C189.827 93.6023 190.504 94.0294 191.174 94.6239L191.254 95.9716C190.657 95.1891 190.004 94.6102 189.297 94.235C188.606 93.8421 187.761 93.6754 186.763 93.7349C185.848 93.7895 184.997 94.0823 184.211 94.6134C183.44 95.1269 182.837 95.7973 182.403 96.6246C181.968 97.452 181.778 98.3232 181.832 99.2382C181.892 100.236 182.178 101.121 182.692 101.892C183.204 102.646 183.865 103.224 184.673 103.627C185.498 104.012 186.367 104.177 187.282 104.122C189.146 104.011 190.576 103.083 191.574 101.337L191.655 102.685C191.093 103.353 190.456 103.866 189.743 104.226C189.045 104.568 188.239 104.767 187.324 104.821ZM199.564 104.166C198.433 104.234 197.393 104.02 196.445 103.526C195.496 103.015 194.737 102.317 194.167 101.433C193.595 100.532 193.277 99.5408 193.213 98.4594C193.149 97.3946 193.348 96.3893 193.809 95.4435C194.287 94.4967 194.96 93.7304 195.826 93.1444C196.708 92.5408 197.707 92.2058 198.822 92.1393C199.92 92.0738 200.934 92.2888 201.865 92.7843C202.812 93.2621 203.571 93.9432 204.141 94.8274C204.711 95.7117 205.028 96.6863 205.092 97.751C205.158 98.8657 204.97 99.9038 204.526 100.865C204.082 101.81 203.427 102.584 202.561 103.186C201.711 103.771 200.712 104.098 199.564 104.166ZM199.522 103.468C200.471 103.411 201.321 103.118 202.074 102.589C202.828 102.06 203.397 101.383 203.782 100.559C204.182 99.717 204.354 98.8135 204.296 97.8486C204.24 96.9003 203.962 96.0319 203.465 95.2434C202.967 94.455 202.313 93.8429 201.502 93.407C200.691 92.9712 199.812 92.7815 198.863 92.8381C197.915 92.8946 197.056 93.1963 196.288 93.743C195.534 94.2721 194.949 94.9582 194.532 95.8011C194.131 96.6432 193.959 97.5383 194.016 98.4866C194.073 99.4349 194.35 100.303 194.848 101.092C195.361 101.863 196.023 102.466 196.834 102.902C197.661 103.337 198.557 103.525 199.522 103.468ZM209.405 103.504C208.058 103.585 206.926 103.085 206.01 102.004L205.928 100.631C206.237 101.331 206.687 101.88 207.278 102.279C207.887 102.677 208.598 102.851 209.413 102.803C210.329 102.748 211.044 102.422 211.559 101.823C212.091 101.224 212.328 100.433 212.269 99.4518C212.213 98.5035 211.859 97.7566 211.209 97.211C210.575 96.6644 209.826 96.4169 208.961 96.4685L208.362 96.5042L208.32 95.8054L208.819 95.7757C209.335 95.7449 209.766 95.5523 210.112 95.1977C210.474 94.8255 210.64 94.3898 210.61 93.8907C210.582 93.4249 210.418 93.0507 210.117 92.7681C209.816 92.4688 209.407 92.3346 208.891 92.3653C207.993 92.4189 207.362 92.9073 207 93.8305L206.927 92.6077C207.43 92.0768 208.08 91.7876 208.879 91.7399C209.561 91.6993 210.132 91.8906 210.591 92.314C211.051 92.7375 211.299 93.2569 211.335 93.8725C211.363 94.3384 211.254 94.7539 211.009 95.1192C210.764 95.4844 210.43 95.7631 210.007 95.9553C210.833 96.0897 211.531 96.4571 212.101 97.0576C212.687 97.6404 213.009 98.4226 213.068 99.4042C213.135 100.536 212.825 101.489 212.136 102.265C211.464 103.023 210.553 103.436 209.405 103.504ZM226.222 101.45L226.41 104.594L225.711 104.636L225.567 102.215L214.786 102.858L214.93 105.279L214.231 105.32L214.045 102.201L214.969 102.146L219.537 90.9792L225.399 101.499L226.222 101.45ZM224.6 101.547L219.635 92.6263L215.766 102.073L224.6 101.547ZM232.773 102.061C231.708 102.124 230.702 101.917 229.755 101.439C228.809 100.962 228.042 100.289 227.456 99.4228C226.869 98.5395 226.544 97.5738 226.482 96.5256C226.419 95.4775 226.628 94.4883 227.106 93.5582C227.584 92.6114 228.265 91.8445 229.148 91.2576C230.031 90.6706 231.005 90.3454 232.07 90.2819C233.152 90.2174 234.192 90.4476 235.192 90.9723C236.191 91.4804 236.909 92.1806 237.346 93.0728L237.178 90.2529L237.976 90.2052L238.646 101.435L237.847 101.483L237.681 98.6879C237.287 99.6463 236.633 100.437 235.718 101.059C234.819 101.663 233.837 101.998 232.773 102.061ZM232.781 101.359C233.696 101.305 234.531 101.021 235.285 100.509C236.038 99.9796 236.616 99.3107 237.018 98.502C237.437 97.6756 237.618 96.7966 237.562 95.8649C237.508 94.9499 237.224 94.1069 236.71 93.3361C236.197 92.5653 235.535 91.9703 234.726 91.5511C233.915 91.1153 233.052 90.9246 232.137 90.9792C231.222 91.0338 230.379 91.3261 229.61 91.8562C228.856 92.3853 228.262 93.0635 227.828 93.8909C227.409 94.7172 227.228 95.5879 227.282 96.503C227.337 97.418 227.621 98.2609 228.134 99.0317C228.663 99.7849 229.341 100.379 230.169 100.814C230.995 101.232 231.866 101.414 232.781 101.359ZM250.655 100.719L245.381 91.2413L241.272 101.279L240.473 101.326L245.299 89.443L251.528 100.667L250.655 100.719ZM258.461 88.9837L261.256 88.8171C261.938 88.7764 262.483 88.9526 262.89 89.3457C263.297 89.7222 263.518 90.2182 263.555 90.8338C263.611 91.7821 263.243 92.4636 262.45 92.8782C263.34 92.9754 264.019 93.2939 264.485 93.8337C264.951 94.3736 265.217 95.1926 265.283 96.2906C265.321 96.9395 265.199 97.5478 264.916 98.1157C264.648 98.6659 264.249 99.1155 263.719 99.4643C263.205 99.8122 262.624 100.005 261.975 100.044L259.13 100.214L258.461 88.9837ZM261.362 92.6926C261.844 92.6639 262.202 92.5006 262.434 92.2029C262.683 91.8876 262.79 91.4471 262.756 90.8814C262.727 90.3989 262.573 90.0409 262.291 89.8072C262.01 89.5735 261.62 89.4715 261.121 89.5013L259.299 89.6099L259.49 92.8042L261.362 92.6926ZM261.985 99.3674C262.734 99.3227 263.349 99.0022 263.831 98.4058C264.312 97.7927 264.528 97.0703 264.478 96.2384C264.42 95.2568 264.117 94.5235 263.571 94.0385C263.04 93.5359 262.308 93.3124 261.377 93.3679L259.53 93.4781L259.889 99.4924L261.985 99.3674ZM291.396 98.2898L290.522 98.3419L286.553 91.4159L276.621 92.0081L273.578 99.3523L272.704 99.4044L280.895 79.6819L291.396 98.2898ZM286.21 90.71L280.952 81.4817L276.927 91.2636L286.21 90.71ZM293.408 86.8998L294.207 86.8522L294.439 90.7453L298.649 86.5873L299.672 86.5263L294.799 91.3249L301.64 97.679L300.566 97.7429L294.515 92.018L294.877 98.0822L294.078 98.1299L293.408 86.8998ZM308.005 97.5749C306.94 97.6384 305.935 97.4312 304.988 96.9534C304.041 96.4755 303.275 95.8033 302.689 94.9366C302.102 94.0533 301.777 93.0876 301.715 92.0395C301.652 90.9914 301.86 90.0022 302.339 89.0721C302.817 88.1253 303.497 87.3584 304.381 86.7714C305.264 86.1845 306.238 85.8593 307.303 85.7958C308.384 85.7313 309.425 85.9614 310.424 86.4862C311.423 86.9943 312.141 87.6945 312.578 88.5867L312.41 85.7667L313.209 85.7191L313.878 96.9492L313.08 96.9968L312.913 94.2017C312.519 95.1602 311.865 95.9505 310.951 96.5727C310.052 97.1773 309.07 97.5114 308.005 97.5749ZM308.013 96.8731C308.929 96.8186 309.763 96.535 310.517 96.0226C311.27 95.4935 311.848 94.8246 312.251 94.0158C312.669 93.1895 312.85 92.3104 312.795 91.3788C312.74 90.4637 312.456 89.6208 311.943 88.85C311.429 88.0792 310.768 87.4842 309.958 87.065C309.147 86.6291 308.284 86.4385 307.369 86.4931C306.454 86.5476 305.612 86.8399 304.842 87.37C304.089 87.8991 303.495 88.5774 303.06 89.4047C302.642 90.2311 302.46 91.1018 302.515 92.0168C302.569 92.9319 302.853 93.7748 303.367 94.5456C303.896 95.2988 304.574 95.8928 305.401 96.3276C306.228 96.7459 307.098 96.9277 308.013 96.8731ZM328.165 95.3709L328.353 98.5153L327.654 98.557L327.51 96.1363L316.729 96.7792L316.873 99.1999L316.174 99.2415L315.988 96.1221L316.912 96.067L321.48 84.9003L327.342 95.42L328.165 95.3709ZM326.543 95.4677L321.578 86.5474L317.709 95.9945L326.543 95.4677ZM335.362 95.2674C336.227 95.2158 337.037 94.9421 337.792 94.4462C338.547 93.9504 339.16 93.2962 339.629 92.4835L339.705 93.7562C339.13 94.475 338.486 95.0143 337.773 95.3741C337.058 95.7172 336.235 95.9165 335.304 95.9721C334.272 96.0336 333.283 95.8171 332.335 95.3227C331.404 94.8272 330.636 94.1383 330.033 93.256C329.446 92.3727 329.122 91.4153 329.06 90.3838C328.994 89.2691 329.2 88.255 329.68 87.3415C330.159 86.4114 330.841 85.6695 331.726 85.1158C332.628 84.5611 333.645 84.2501 334.776 84.1826C336.506 84.0794 338.019 84.6737 339.315 85.9656L331.94 94.1691C332.516 94.5856 333.068 94.8865 333.597 95.0721C334.125 95.241 334.713 95.3061 335.362 95.2674ZM329.854 90.2613C329.936 91.6422 330.464 92.7962 331.438 93.7232L338.317 86.0251C337.739 85.5753 337.186 85.266 336.659 85.0971C336.13 84.9116 335.508 84.8402 334.793 84.8828C333.778 84.9434 332.885 85.222 332.113 85.7188C331.357 86.198 330.777 86.8337 330.373 87.6258C329.97 88.4179 329.797 89.2964 329.854 90.2613ZM353.558 83.3131L354.228 94.5431L353.429 94.5907L352.862 85.0826L348.431 95.1893L342.784 85.3329L343.372 95.1904L342.673 95.2321L342.004 84.002L342.902 83.9485L348.411 93.5877L352.809 83.3577L353.558 83.3131ZM357.31 83.1144L362.276 82.8182L362.318 83.517L358.15 83.7655L358.777 94.2719L357.978 94.3195L357.31 83.1144ZM369.648 94.0243C368.516 94.0918 367.477 93.8783 366.529 93.3838C365.58 92.8727 364.821 92.175 364.25 91.2908C363.679 90.3898 363.361 89.3987 363.297 88.3173C363.233 87.2525 363.432 86.2472 363.893 85.3014C364.371 84.3546 365.043 83.5882 365.91 83.0023C366.792 82.3987 367.791 82.0637 368.905 81.9972C370.003 81.9317 371.018 82.1467 371.949 82.6422C372.896 83.12 373.654 83.801 374.225 84.6853C374.795 85.5696 375.112 86.5441 375.175 87.6089C375.242 88.7236 375.053 89.7617 374.61 90.7231C374.165 91.6679 373.51 92.4416 372.644 93.0442C371.794 93.6292 370.795 93.9559 369.648 94.0243ZM369.606 93.3256C370.554 93.269 371.405 92.9762 372.158 92.4471C372.911 91.918 373.48 91.2413 373.865 90.4169C374.266 89.5749 374.437 88.6714 374.38 87.7064C374.323 86.7581 374.046 85.8898 373.548 85.1013C373.05 84.3129 372.396 83.7007 371.585 83.2649C370.775 82.8291 369.895 82.6394 368.947 82.6959C367.999 82.7525 367.14 83.0541 366.371 83.6009C365.618 84.13 365.033 84.816 364.616 85.659C364.215 86.501 364.043 87.3962 364.1 88.3445C364.156 89.2928 364.433 90.1612 364.931 90.9496C365.445 91.7204 366.107 92.3238 366.917 92.7596C367.745 93.1945 368.641 93.3831 369.606 93.3256ZM377.334 81.8953L378.133 81.8477L378.297 84.5928C378.692 83.6676 379.348 82.9022 380.263 82.2966C381.178 81.6744 382.159 81.3321 383.207 81.2696C384.289 81.2051 385.295 81.4123 386.225 81.8911C387.172 82.3689 387.938 83.0411 388.524 83.9078C389.11 84.7744 389.435 85.7402 389.498 86.8049C389.562 87.8697 389.354 88.8672 388.875 89.7973C388.396 90.7275 387.715 91.486 386.832 92.073C385.965 92.6589 384.991 92.9842 383.91 93.0486C382.895 93.1092 381.897 92.8932 380.916 92.4007C379.952 91.9072 379.193 91.2262 378.64 90.3575L379.1 98.0688L378.302 98.1165L377.334 81.8953ZM383.918 92.3469C384.833 92.2923 385.668 92.0088 386.422 91.4964C387.175 90.9673 387.753 90.2983 388.156 89.4896C388.574 88.6633 388.755 87.7842 388.7 86.8526C388.645 85.9375 388.361 85.0946 387.847 84.3238C387.334 83.553 386.672 82.958 385.863 82.5388C385.052 82.1029 384.189 81.9123 383.274 81.9668C382.359 82.0214 381.517 82.3137 380.747 82.8438C379.994 83.3729 379.4 84.0512 378.965 84.8785C378.547 85.7049 378.365 86.5756 378.419 87.4906C378.474 88.4057 378.758 89.2486 379.271 90.0194C379.8 90.7726 380.479 91.3666 381.306 91.8014C382.132 92.2196 383.003 92.4015 383.918 92.3469ZM397.698 92.3517C396.567 92.4191 395.527 92.2056 394.58 91.7112C393.631 91.2001 392.871 90.5024 392.301 89.6181C391.73 88.7172 391.412 87.726 391.347 86.6446C391.284 85.5798 391.483 84.5745 391.944 83.6287C392.422 82.6819 393.094 81.9156 393.961 81.3296C394.843 80.726 395.841 80.391 396.956 80.3245C398.054 80.259 399.069 80.474 400 80.9695C400.947 81.4473 401.705 82.1284 402.275 83.0126C402.846 83.8969 403.163 84.8715 403.226 85.9362C403.293 87.0509 403.104 88.089 402.661 89.0504C402.216 89.9952 401.561 90.7689 400.695 91.3715C399.845 91.9565 398.846 92.2832 397.698 92.3517ZM397.657 91.6529C398.605 91.5964 399.456 91.3035 400.209 90.7744C400.962 90.2453 401.531 89.5686 401.916 88.7442C402.317 87.9022 402.488 86.9987 402.431 86.0338C402.374 85.0855 402.097 84.2171 401.599 83.4286C401.101 82.6402 400.447 82.0281 399.636 81.5922C398.826 81.1564 397.946 80.9667 396.998 81.0233C396.049 81.0798 395.191 81.3815 394.422 81.9282C393.669 82.4573 393.084 83.1434 392.666 83.9863C392.266 84.8284 392.094 85.7235 392.15 86.6718C392.207 87.6201 392.484 88.4885 392.982 89.277C393.495 90.0478 394.157 90.6511 394.968 91.0869C395.795 91.5218 396.692 91.7104 397.657 91.6529ZM416.704 90.0913L416.892 93.2357L416.193 93.2774L416.049 90.8567L405.268 91.4996L405.412 93.9203L404.713 93.9619L404.527 90.8425L405.451 90.7874L410.019 79.6207L415.881 90.1404L416.704 90.0913ZM415.082 90.1881L410.117 81.2678L406.248 90.7149L415.082 90.1881ZM418.089 79.465L418.888 79.4174L419.12 83.3105L423.33 79.1525L424.353 79.0915L419.48 83.8901L426.32 90.2442L425.247 90.3082L419.196 84.5833L419.557 90.6475L418.759 90.6951L418.089 79.465ZM432.869 89.453C433.734 89.4014 434.545 89.1277 435.3 88.6319C436.055 88.136 436.667 87.4818 437.136 86.6691L437.212 87.9418C436.637 88.6606 435.993 89.1999 435.28 89.5597C434.566 89.9028 433.743 90.1021 432.811 90.1577C431.78 90.2192 430.79 90.0027 429.842 89.5083C428.911 89.0128 428.144 88.3239 427.54 87.4416C426.953 86.5583 426.629 85.6009 426.567 84.5694C426.501 83.4548 426.708 82.4407 427.187 81.5271C427.666 80.597 428.348 79.8551 429.234 79.3014C430.136 78.7467 431.152 78.4357 432.283 78.3682C434.014 78.265 435.527 78.8593 436.823 80.1512L429.448 88.3547C430.024 88.7712 430.576 89.0722 431.105 89.2577C431.632 89.4266 432.22 89.4917 432.869 89.453ZM427.362 84.447C427.444 85.8278 427.972 86.9818 428.945 87.9088L435.824 80.2107C435.247 79.761 434.694 79.4516 434.166 79.2827C433.638 79.0972 433.016 79.0258 432.3 79.0684C431.285 79.129 430.392 79.4076 429.62 79.9045C428.864 80.3836 428.284 81.0193 427.881 81.8114C427.477 82.6035 427.304 83.482 427.362 84.447ZM88.3827 134.714L88.5702 137.858L87.8715 137.9L87.7271 135.479L76.9463 136.122L77.0906 138.543L76.3918 138.584L76.2058 135.465L77.1292 135.41L81.6976 124.243L87.5592 134.763L88.3827 134.714ZM86.7606 134.81L81.7958 125.89L77.9263 135.337L86.7606 134.81ZM89.7677 124.087L90.5413 124.041L91.144 134.148L98.602 123.561L99.3257 123.517L99.9954 134.747L99.2217 134.794L98.6205 124.711L91.1361 135.276L90.4373 135.317L89.7677 124.087ZM108.754 134.551C107.673 134.615 106.659 134.417 105.713 133.956C104.784 133.494 104.027 132.829 103.441 131.962C102.855 131.096 102.528 130.097 102.461 128.965C102.398 127.917 102.607 126.936 103.087 126.023C103.565 125.093 104.246 124.334 105.13 123.747C106.03 123.159 107.037 122.832 108.152 122.766C109.083 122.71 109.891 122.812 110.574 123.072C111.258 123.332 111.934 123.759 112.604 124.353L112.684 125.701C112.087 124.919 111.435 124.34 110.728 123.965C110.036 123.572 109.192 123.405 108.193 123.464C107.278 123.519 106.428 123.812 105.641 124.343C104.87 124.856 104.267 125.527 103.833 126.354C103.398 127.182 103.208 128.053 103.262 128.968C103.322 129.966 103.608 130.85 104.122 131.621C104.634 132.375 105.295 132.954 106.103 133.356C106.928 133.741 107.798 133.907 108.713 133.852C110.576 133.741 112.007 132.812 113.004 131.067L113.085 132.414C112.524 133.082 111.886 133.596 111.173 133.956C110.476 134.298 109.669 134.496 108.754 134.551ZM115.016 122.582L115.814 122.534L116.047 126.427L120.256 122.269L121.28 122.208L116.407 127.007L123.247 133.361L122.174 133.425L116.122 127.7L116.484 133.764L115.685 133.812L115.016 122.582ZM128.49 133.023L122.457 122.138L123.305 122.087L128.861 132.1L133.163 121.5L133.936 121.454L127.192 138.135L126.419 138.181L128.49 133.023ZM141.119 132.621C140.037 132.685 139.024 132.487 138.078 132.026C137.149 131.564 136.391 130.899 135.805 130.033C135.219 129.166 134.892 128.167 134.825 127.036C134.763 125.987 134.971 125.007 135.451 124.093C135.93 123.163 136.611 122.404 137.494 121.817C138.394 121.229 139.401 120.902 140.516 120.836C141.448 120.78 142.255 120.882 142.939 121.142C143.622 121.402 144.299 121.829 144.968 122.424L145.049 123.771C144.451 122.989 143.799 122.41 143.092 122.035C142.401 121.642 141.556 121.475 140.558 121.535C139.643 121.589 138.792 121.882 138.006 122.413C137.235 122.927 136.632 123.597 136.197 124.424C135.762 125.252 135.572 126.123 135.627 127.038C135.686 128.036 135.973 128.921 136.486 129.691C136.999 130.446 137.659 131.024 138.468 131.427C139.292 131.811 140.162 131.977 141.077 131.922C142.94 131.811 144.371 130.882 145.369 129.137L145.449 130.484C144.888 131.152 144.251 131.666 143.538 132.026C142.84 132.368 142.034 132.566 141.119 132.621ZM153.304 131.894C152.223 131.959 151.209 131.76 150.263 131.299C149.334 130.837 148.576 130.173 147.991 129.306C147.405 128.439 147.078 127.44 147.01 126.309C146.948 125.261 147.157 124.28 147.636 123.366C148.115 122.436 148.796 121.678 149.68 121.091C150.579 120.503 151.587 120.176 152.701 120.109C153.633 120.054 154.441 120.156 155.124 120.416C155.807 120.675 156.484 121.102 157.154 121.697L157.234 123.045C156.637 122.262 155.984 121.683 155.277 121.308C154.586 120.915 153.741 120.748 152.743 120.808C151.828 120.863 150.977 121.155 150.191 121.686C149.42 122.2 148.817 122.87 148.382 123.698C147.948 124.525 147.757 125.396 147.812 126.311C147.871 127.309 148.158 128.194 148.671 128.965C149.184 129.719 149.845 130.297 150.653 130.7C151.478 131.085 152.347 131.25 153.262 131.195C155.126 131.084 156.556 130.156 157.554 128.41L157.635 129.758C157.073 130.426 156.436 130.939 155.723 131.299C155.025 131.641 154.219 131.84 153.304 131.894ZM159.566 119.925L160.339 119.879L160.942 129.986L168.4 119.398L169.124 119.355L169.793 130.585L169.02 130.632L168.418 120.549L160.934 131.114L160.235 131.155L159.566 119.925ZM178.607 130.461C177.475 130.528 176.436 130.315 175.488 129.82C174.539 129.309 173.78 128.611 173.209 127.727C172.638 126.826 172.32 125.835 172.256 124.753C172.192 123.689 172.391 122.683 172.852 121.738C173.33 120.791 174.002 120.024 174.869 119.439C175.751 118.835 176.75 118.5 177.864 118.433C178.962 118.368 179.977 118.583 180.908 119.078C181.855 119.556 182.613 120.237 183.184 121.122C183.754 122.006 184.071 122.98 184.134 124.045C184.201 125.16 184.012 126.198 183.569 127.159C183.124 128.104 182.469 128.878 181.603 129.48C180.753 130.065 179.754 130.392 178.607 130.461ZM178.565 129.762C179.513 129.705 180.364 129.412 181.117 128.883C181.87 128.354 182.439 127.677 182.824 126.853C183.225 126.011 183.396 125.108 183.339 124.143C183.282 123.194 183.005 122.326 182.507 121.538C182.009 120.749 181.355 120.137 180.545 119.701C179.734 119.265 178.854 119.076 177.906 119.132C176.958 119.189 176.099 119.49 175.33 120.037C174.577 120.566 173.992 121.252 173.575 122.095C173.174 122.937 173.002 123.832 173.059 124.781C173.115 125.729 173.392 126.597 173.89 127.386C174.404 128.157 175.066 128.76 175.876 129.196C176.704 129.631 177.6 129.819 178.565 129.762ZM186.349 118.328L187.148 118.281L187.524 124.594L195.136 124.14L194.759 117.827L195.558 117.779L196.227 129.009L195.429 129.057L195.177 124.839L187.566 125.293L187.817 129.511L187.019 129.558L186.349 118.328ZM199.29 117.557L200.089 117.509L200.465 123.823L208.076 123.369L207.7 117.055L208.499 117.007L209.168 128.237L208.37 128.285L208.118 124.068L200.507 124.521L200.758 128.739L199.96 128.787L199.29 117.557ZM212.231 116.785L213.029 116.737L213.26 120.605L214.483 120.532C215.647 120.463 216.565 120.734 217.236 121.345C217.906 121.94 218.276 122.827 218.347 124.009C218.386 124.674 218.257 125.3 217.958 125.885C217.659 126.471 217.236 126.947 216.69 127.313C216.144 127.663 215.529 127.858 214.847 127.899L212.9 128.015L212.231 116.785ZM220.117 116.315L220.89 116.268L221.56 127.499L220.786 127.545L220.117 116.315ZM214.832 127.224C215.647 127.175 216.32 126.843 216.851 126.227C217.382 125.611 217.623 124.887 217.573 124.055C217.515 123.09 217.213 122.365 216.667 121.88C216.136 121.377 215.405 121.154 214.473 121.209L213.3 121.279L213.659 127.293L214.832 127.224ZM224.636 116.045L225.409 115.999L226.012 126.106L233.47 115.518L234.194 115.475L234.863 126.705L234.09 126.751L233.488 116.669L226.004 127.234L225.305 127.275L224.636 116.045ZM229.235 112.54C228.12 112.607 227.231 112.384 226.566 111.873C225.901 111.362 225.527 110.691 225.444 109.861L226.143 109.819C226.23 110.449 226.544 110.956 227.085 111.341C227.642 111.725 228.337 111.892 229.168 111.843C229.984 111.794 230.637 111.547 231.128 111.1C231.635 110.652 231.912 110.11 231.957 109.473L232.656 109.431C232.671 110.248 232.372 110.959 231.756 111.563C231.14 112.151 230.3 112.477 229.235 112.54ZM243.425 114.925L244.224 114.877L244.456 118.77L248.666 114.612L249.689 114.551L244.816 119.35L251.657 125.704L250.584 125.768L244.532 120.043L244.894 126.107L244.095 126.155L243.425 114.925ZM262.33 125.067L257.057 115.589L252.947 125.627L252.148 125.675L256.974 113.791L263.203 125.015L262.33 125.067ZM268.939 124.648L262.905 113.763L263.754 113.713L269.31 123.725L273.611 113.125L274.385 113.079L267.641 129.76L266.867 129.806L268.939 124.648ZM281.866 112.232C282.964 112.166 283.979 112.381 284.91 112.877C285.857 113.355 286.615 114.036 287.186 114.92C287.756 115.804 288.073 116.779 288.136 117.843C288.203 118.958 288.014 119.996 287.571 120.958C287.126 121.902 286.471 122.676 285.605 123.279C284.755 123.864 283.756 124.19 282.608 124.259C281.494 124.325 280.462 124.111 279.515 123.617C278.567 123.122 277.799 122.434 277.213 121.55C276.641 120.649 276.324 119.667 276.26 118.602L276.202 117.628C276.076 115.516 276.19 113.781 276.543 112.424C276.912 111.05 277.506 109.946 278.324 109.112C279.143 108.279 280.242 107.537 281.622 106.887L285.982 104.824L286.026 105.547L281.837 107.55C280.181 108.333 278.938 109.334 278.109 110.552C277.28 111.754 276.868 113.398 276.876 115.485C277.338 114.555 278.002 113.798 278.869 113.212C279.752 112.625 280.751 112.298 281.866 112.232ZM282.567 123.56C283.515 123.504 284.366 123.211 285.119 122.682C285.872 122.153 286.441 121.476 286.826 120.651C287.227 119.809 287.398 118.906 287.341 117.941C287.284 116.993 287.007 116.124 286.509 115.336C286.011 114.547 285.357 113.935 284.546 113.499C283.736 113.064 282.856 112.874 281.908 112.931C280.959 112.987 280.101 113.289 279.332 113.835C278.579 114.365 277.994 115.051 277.576 115.894C277.176 116.736 277.004 117.631 277.06 118.579C277.117 119.527 277.394 120.396 277.892 121.184C278.405 121.955 279.067 122.558 279.878 122.994C280.706 123.429 281.602 123.618 282.567 123.56ZM289.963 115.606L297.725 115.143L297.771 115.917L290.01 116.379L289.963 115.606ZM300.38 111.528L301.178 111.481L301.411 115.374L305.621 111.216L306.644 111.155L301.771 115.954L308.611 122.308L307.538 122.372L301.487 116.647L301.848 122.711L301.05 122.759L300.38 111.528ZM314.977 122.204C313.912 122.267 312.906 122.06 311.959 121.582C311.013 121.104 310.246 120.432 309.66 119.565C309.073 118.682 308.749 117.716 308.686 116.668C308.624 115.62 308.832 114.631 309.311 113.701C309.788 112.754 310.469 111.987 311.352 111.4C312.236 110.813 313.21 110.488 314.274 110.424C315.356 110.36 316.396 110.59 317.396 111.115C318.395 111.623 319.113 112.323 319.55 113.215L319.382 110.395L320.18 110.348L320.85 121.578L320.051 121.625L319.885 118.83C319.491 119.789 318.837 120.579 317.922 121.201C317.023 121.806 316.042 122.14 314.977 122.204ZM314.985 121.502C315.9 121.447 316.735 121.164 317.489 120.651C318.242 120.122 318.82 119.453 319.222 118.645C319.641 117.818 319.822 116.939 319.766 116.007C319.712 115.092 319.428 114.249 318.914 113.479C318.401 112.708 317.739 112.113 316.93 111.694C316.119 111.258 315.256 111.067 314.341 111.122C313.426 111.176 312.584 111.469 311.814 111.999C311.061 112.528 310.467 113.206 310.032 114.033C309.613 114.86 309.432 115.73 309.486 116.646C309.541 117.561 309.825 118.403 310.338 119.174C310.867 119.927 311.546 120.521 312.373 120.956C313.199 121.375 314.07 121.556 314.985 121.502ZM329.649 121.203L329.449 121.215C328.368 121.28 327.345 121.074 326.382 120.597C325.434 120.102 324.659 119.422 324.056 118.557C323.47 117.69 323.147 116.741 323.085 115.709C323.024 114.678 323.241 113.705 323.737 112.79C324.233 111.859 324.923 111.109 325.807 110.538C326.707 109.95 327.689 109.625 328.754 109.561L328.954 109.549L328.704 105.357L329.502 105.309L329.752 109.502L329.877 109.494C330.942 109.431 331.939 109.638 332.87 110.117C333.799 110.579 334.547 111.236 335.116 112.087C335.701 112.937 336.024 113.886 336.087 114.934C336.149 115.982 335.95 116.971 335.487 117.9C335.025 118.829 334.361 119.587 333.494 120.173C332.644 120.758 331.687 121.082 330.622 121.145L330.447 121.156L330.733 125.947L329.934 125.995L329.649 121.203ZM329.607 120.505L328.995 110.248L328.796 110.26C327.881 110.314 327.03 110.607 326.244 111.138C325.473 111.652 324.862 112.323 324.41 113.151C323.974 113.962 323.783 114.816 323.837 115.715C323.89 116.613 324.182 117.447 324.712 118.217C325.258 118.969 325.944 119.554 326.77 119.973C327.613 120.39 328.492 120.571 329.407 120.517L329.607 120.505ZM330.555 120.448C331.47 120.394 332.297 120.111 333.034 119.599C333.788 119.087 334.367 118.426 334.769 117.617C335.189 116.808 335.371 115.945 335.316 115.03C335.262 114.115 334.978 113.28 334.466 112.526C333.969 111.755 333.316 111.159 332.506 110.74C331.696 110.321 330.834 110.138 329.919 110.193L329.794 110.2L330.406 120.457L330.555 120.448ZM344.429 119.771C345.294 119.72 346.105 119.446 346.86 118.95C347.615 118.454 348.227 117.8 348.696 116.987L348.772 118.26C348.197 118.979 347.553 119.518 346.84 119.878C346.126 120.221 345.303 120.42 344.371 120.476C343.34 120.537 342.35 120.321 341.402 119.826C340.471 119.331 339.704 118.642 339.1 117.76C338.513 116.876 338.189 115.919 338.127 114.888C338.061 113.773 338.268 112.759 338.747 111.845C339.226 110.915 339.908 110.173 340.794 109.62C341.696 109.065 342.712 108.754 343.843 108.686C345.574 108.583 347.087 109.177 348.383 110.469L341.008 118.673C341.584 119.089 342.136 119.39 342.665 119.576C343.192 119.745 343.78 119.81 344.429 119.771ZM338.922 114.765C339.004 116.146 339.532 117.3 340.505 118.227L347.384 110.529C346.807 110.079 346.254 109.77 345.726 109.601C345.198 109.415 344.576 109.344 343.86 109.387C342.845 109.447 341.952 109.726 341.18 110.223C340.424 110.702 339.844 111.337 339.441 112.129C339.037 112.922 338.864 113.8 338.922 114.765ZM351.604 119.969C351.371 119.983 351.159 119.912 350.966 119.757C350.789 119.601 350.694 119.398 350.679 119.148C350.665 118.915 350.736 118.71 350.893 118.534C351.066 118.357 351.269 118.261 351.502 118.247C351.735 118.234 351.939 118.305 352.116 118.461C352.308 118.617 352.412 118.811 352.426 119.044C352.441 119.293 352.362 119.507 352.188 119.684C352.032 119.86 351.837 119.955 351.604 119.969Z" fill="black"/>
</svg>
