<svg width="1320" height="192" viewBox="0 0 1320 192" fill="none" xmlns="http://www.w3.org/2000/svg">
<path fill-rule="evenodd" clip-rule="evenodd" d="M1284.84 19.9046C1286.41 15.7328 1286.41 11.7566 1286.41 11.7566L1288.37 19.9046H1303.19V170.438H1289.66L1286.88 181.988C1286.88 181.988 1286.88 175.529 1283.61 170.438H75.2668C33.6981 170.438 0 136.74 0 95.1714C0 53.6027 33.6981 19.9046 75.2668 19.9046H1284.84Z" fill="#DCDCDC"/>
<path d="M0 95.1714C0 53.6027 33.6981 19.9045 75.2669 19.9045H990.148V170.438H75.2668C33.6981 170.438 0 136.74 0 95.1714Z" fill="#F6C133"/>
<path d="M5 95.1714C5 56.3641 36.4595 24.9045 75.2669 24.9045H985.148V165.438H75.2668C36.4595 165.438 5 133.979 5 95.1714Z" stroke="#DCDCDC" stroke-opacity="0.94" stroke-width="10"/>
<path opacity="0.1" fill-rule="evenodd" clip-rule="evenodd" d="M1285.36 170.761C1293.27 175.93 1286.81 168.823 1286.81 168.823V163.981C1294.88 163.979 1299.17 163.977 1299.17 163.977L1294.58 160.978C1294.35 160.824 1294.12 160.653 1293.91 160.466C1291.72 158.517 1289.34 156.831 1286.81 155.425V154.933L1286.27 155.126C1280.53 152.053 1274.09 150.41 1267.48 150.41H1267.04H111.978C102.585 150.41 93.2003 149.243 84.3847 146.001C74.2914 142.29 60.8146 136.417 52.4045 129.09C48.8879 126.026 46.1773 123.743 43.9696 121.884C36.8661 115.902 34.9687 114.304 28.1798 105.185C17.499 90.8398 11.8652 87.4185 10.8764 106.154C10.3502 116.124 15.638 126.544 22.4493 134.894C32.5948 147.333 47.3145 156.98 63.143 159.644C71.6857 161.083 80.1831 161.416 84.3839 161.58C85.7164 161.633 86.6167 161.668 86.9489 161.716C91.3983 162.362 101.286 163.654 107.219 163.977C112.563 164.268 1075.76 164.035 1266.55 163.986C1271.29 164.989 1279.87 167.175 1285.36 170.761Z" fill="black"/>
<path opacity="0.4" fill-rule="evenodd" clip-rule="evenodd" d="M1285.42 19.5816C1293.33 14.4131 1286.88 21.5198 1286.88 21.5198V31.5675L1287.35 31.685C1288.88 32.0685 1289.41 33.9786 1288.29 35.0965C1288.01 35.3746 1287.66 35.5661 1287.28 35.6478L1272.54 38.7787C1268.92 39.546 1265.24 39.9329 1261.55 39.9329H222.172C209.598 39.9329 196.92 37.906 184.309 35.8899C177.657 34.8263 171.023 33.7657 164.433 33.0073C156.821 32.1313 147.425 31.534 135.955 31.534C132.229 31.534 126.493 31.4857 119.96 31.4306C103.735 31.294 82.5951 31.116 75.1461 31.534C59.4779 32.4131 54.5308 32.9106 54.4928 32.6607C54.4721 32.5251 55.899 32.169 57.8427 31.534C63.2894 29.7545 72.9555 29.3535 79.9004 29.0654C83.0413 28.9351 85.6257 28.8279 87.0113 28.6267C89.5847 28.253 118.782 28.4196 144.094 28.564C162.548 28.6693 178.937 28.7628 181.438 28.6266C187.371 28.3036 1052.54 29.5958 1052.54 29.5958L1265.17 26.6505C1269.39 25.828 1279.32 23.5707 1285.42 19.5816Z" fill="white"/>
<rect x="92.9438" y="39.4775" width="911.64" height="61.3034" rx="7" fill="#F3F3F3"/>
<path d="M131.072 76.0955L123.552 91.0955H122.832L124.632 87.4755L118.652 76.0955H119.372L125.012 86.7955L130.352 76.0955H131.072ZM137.895 90.5155V93.0355H137.335V91.0955H128.695V93.0355H128.135V90.5355H128.875L133.055 81.8355L137.235 90.5155H137.895ZM136.595 90.5155L133.055 83.1555L129.515 90.5155H136.595ZM143.647 90.7755C144.34 90.7755 145 90.5955 145.627 90.2355C146.254 89.8755 146.774 89.3821 147.187 88.7555V89.7755C146.694 90.3221 146.154 90.7221 145.567 90.9755C144.98 91.2155 144.314 91.3355 143.567 91.3355C142.74 91.3355 141.96 91.1155 141.227 90.6755C140.507 90.2355 139.927 89.6488 139.487 88.9155C139.06 88.1821 138.847 87.4021 138.847 86.5755C138.847 85.6821 139.06 84.8821 139.487 84.1755C139.914 83.4555 140.494 82.8955 141.227 82.4955C141.974 82.0955 142.8 81.8955 143.707 81.8955C145.094 81.8955 146.274 82.4421 147.247 83.5355L140.967 89.7355C141.407 90.0955 141.834 90.3621 142.247 90.5355C142.66 90.6955 143.127 90.7755 143.647 90.7755ZM139.487 86.5155C139.487 87.6221 139.854 88.5688 140.587 89.3555L146.447 83.5355C146.007 83.1488 145.58 82.8755 145.167 82.7155C144.754 82.5421 144.26 82.4555 143.687 82.4555C142.874 82.4555 142.147 82.6355 141.507 82.9955C140.88 83.3421 140.387 83.8221 140.027 84.4355C139.667 85.0488 139.487 85.7421 139.487 86.5155ZM156.152 91.0955L152.392 83.2755L148.632 91.0955H147.992L152.412 81.8355L156.852 91.0955H156.152ZM160.17 87.9355C159.503 87.7755 158.963 87.4288 158.55 86.8955C158.15 86.3488 157.95 85.7021 157.95 84.9555C157.95 84.4621 158.083 83.9955 158.35 83.5555C158.617 83.1155 158.977 82.7621 159.43 82.4955C159.883 82.2288 160.377 82.0955 160.91 82.0955H162.11V91.0955H161.47V87.9955H160.81L158.53 91.0955H157.85L160.17 87.9355ZM161.47 87.4555V82.6355H160.87C160.47 82.6355 160.09 82.7488 159.73 82.9755C159.37 83.2021 159.077 83.5021 158.85 83.8755C158.637 84.2355 158.53 84.6221 158.53 85.0355C158.53 85.4488 158.637 85.8421 158.85 86.2155C159.077 86.5888 159.37 86.8888 159.73 87.1155C160.09 87.3421 160.47 87.4555 160.87 87.4555H161.47ZM169.253 90.7755C169.946 90.7755 170.606 90.5955 171.233 90.2355C171.859 89.8755 172.379 89.3821 172.793 88.7555V89.7755C172.299 90.3221 171.759 90.7221 171.173 90.9755C170.586 91.2155 169.919 91.3355 169.173 91.3355C168.346 91.3355 167.566 91.1155 166.833 90.6755C166.113 90.2355 165.533 89.6488 165.093 88.9155C164.666 88.1821 164.453 87.4021 164.453 86.5755C164.453 85.6821 164.666 84.8821 165.093 84.1755C165.519 83.4555 166.099 82.8955 166.833 82.4955C167.579 82.0955 168.406 81.8955 169.313 81.8955C170.699 81.8955 171.879 82.4421 172.853 83.5355L166.573 89.7355C167.013 90.0955 167.439 90.3621 167.853 90.5355C168.266 90.6955 168.733 90.7755 169.253 90.7755ZM165.093 86.5155C165.093 87.6221 165.459 88.5688 166.193 89.3555L172.053 83.5355C171.613 83.1488 171.186 82.8755 170.773 82.7155C170.359 82.5421 169.866 82.4555 169.293 82.4555C168.479 82.4555 167.753 82.6355 167.113 82.9955C166.486 83.3421 165.993 83.8221 165.633 84.4355C165.273 85.0488 165.093 85.7421 165.093 86.5155ZM177.333 82.6755H173.893V82.1155H181.413V82.6755H177.973V91.0955H177.333V82.6755ZM187.613 82.0955H189.853C190.399 82.0955 190.826 82.2621 191.133 82.5955C191.439 82.9155 191.593 83.3221 191.593 83.8155C191.593 84.5755 191.266 85.1021 190.613 85.3955C191.319 85.5155 191.846 85.8021 192.193 86.2555C192.539 86.7088 192.713 87.3755 192.713 88.2555C192.713 88.7755 192.586 89.2555 192.333 89.6955C192.093 90.1221 191.753 90.4621 191.313 90.7155C190.886 90.9688 190.413 91.0955 189.893 91.0955H187.613V82.0955ZM189.753 85.1955C190.139 85.1955 190.433 85.0821 190.633 84.8555C190.846 84.6155 190.953 84.2688 190.953 83.8155C190.953 83.4288 190.846 83.1355 190.633 82.9355C190.419 82.7355 190.113 82.6355 189.713 82.6355H188.253V85.1955H189.753ZM189.933 90.5555C190.533 90.5555 191.039 90.3288 191.453 89.8755C191.866 89.4088 192.073 88.8421 192.073 88.1755C192.073 87.3888 191.866 86.7888 191.453 86.3755C191.053 85.9488 190.479 85.7355 189.733 85.7355H188.253V90.5555H189.933ZM194.956 82.0955H195.596V87.1555H201.696V82.0955H202.336V91.0955H201.696V87.7155H195.596V91.0955H194.956V82.0955ZM205.327 82.0955H205.947V90.1955L212.407 82.0955H212.987V91.0955H212.367V83.0155L205.887 91.0955H205.327V82.0955ZM225.252 82.0955V91.0955H224.612V83.4755L220.592 91.3355L216.552 83.1955V91.0955H215.992V82.0955H216.712L220.652 90.0555L224.652 82.0955H225.252ZM232.257 91.3155C231.404 91.3155 230.61 91.1021 229.877 90.6755C229.144 90.2488 228.564 89.6755 228.137 88.9555C227.71 88.2221 227.497 87.4355 227.497 86.5955C227.497 85.7555 227.71 84.9755 228.137 84.2555C228.564 83.5221 229.144 82.9421 229.877 82.5155C230.61 82.0888 231.404 81.8755 232.257 81.8755C233.124 81.8755 233.944 82.1088 234.717 82.5755C235.49 83.0288 236.03 83.6221 236.337 84.3555V82.0955H236.977V91.0955H236.337V88.8555C235.977 89.6021 235.417 90.2021 234.657 90.6555C233.91 91.0955 233.11 91.3155 232.257 91.3155ZM232.297 90.7555C233.03 90.7555 233.71 90.5688 234.337 90.1955C234.964 89.8088 235.457 89.3021 235.817 88.6755C236.19 88.0355 236.377 87.3421 236.377 86.5955C236.377 85.8621 236.19 85.1755 235.817 84.5355C235.444 83.8955 234.944 83.3888 234.317 83.0155C233.69 82.6288 233.01 82.4355 232.277 82.4355C231.544 82.4355 230.857 82.6288 230.217 83.0155C229.59 83.4021 229.084 83.9155 228.697 84.5555C228.324 85.1955 228.137 85.8821 228.137 86.6155C228.137 87.3488 228.324 88.0355 228.697 88.6755C229.084 89.3021 229.597 89.8088 230.237 90.1955C230.877 90.5688 231.564 90.7555 232.297 90.7555ZM239.742 82.0955H240.382V87.1555H246.482V82.0955H247.122V91.0955H246.482V87.7155H240.382V91.0955H239.742V82.0955ZM250.113 82.0955H250.733V90.1955L257.193 82.0955H257.773V91.0955H257.153V83.0155L250.673 91.0955H250.113V82.0955ZM264.917 90.7755C265.61 90.7755 266.27 90.5955 266.897 90.2355C267.523 89.8755 268.043 89.3821 268.457 88.7555V89.7755C267.963 90.3221 267.423 90.7221 266.837 90.9755C266.25 91.2155 265.583 91.3355 264.837 91.3355C264.01 91.3355 263.23 91.1155 262.497 90.6755C261.777 90.2355 261.197 89.6488 260.757 88.9155C260.33 88.1821 260.117 87.4021 260.117 86.5755C260.117 85.6821 260.33 84.8821 260.757 84.1755C261.183 83.4555 261.763 82.8955 262.497 82.4955C263.243 82.0955 264.07 81.8955 264.977 81.8955C266.363 81.8955 267.543 82.4421 268.517 83.5355L262.237 89.7355C262.677 90.0955 263.103 90.3621 263.517 90.5355C263.93 90.6955 264.397 90.7755 264.917 90.7755ZM260.757 86.5155C260.757 87.6221 261.123 88.5688 261.857 89.3555L267.717 83.5355C267.277 83.1488 266.85 82.8755 266.437 82.7155C266.023 82.5421 265.53 82.4555 264.957 82.4555C264.143 82.4555 263.417 82.6355 262.777 82.9955C262.15 83.3421 261.657 83.8221 261.297 84.4355C260.937 85.0488 260.757 85.7421 260.757 86.5155ZM274.912 82.0955H275.552V84.2955C275.912 83.5755 276.472 82.9955 277.232 82.5555C277.992 82.1021 278.792 81.8755 279.632 81.8755C280.498 81.8755 281.292 82.0888 282.012 82.5155C282.745 82.9421 283.325 83.5155 283.752 84.2355C284.178 84.9555 284.392 85.7421 284.392 86.5955C284.392 87.4488 284.178 88.2355 283.752 88.9555C283.325 89.6755 282.745 90.2488 282.012 90.6755C281.292 91.1021 280.498 91.3155 279.632 91.3155C278.818 91.3155 278.032 91.0955 277.272 90.6555C276.525 90.2155 275.952 89.6355 275.552 88.9155V95.0955H274.912V82.0955ZM279.672 90.7555C280.405 90.7555 281.085 90.5688 281.712 90.1955C282.338 89.8088 282.832 89.3021 283.192 88.6755C283.565 88.0355 283.752 87.3421 283.752 86.5955C283.752 85.8621 283.565 85.1755 283.192 84.5355C282.818 83.8955 282.318 83.3888 281.692 83.0155C281.065 82.6288 280.385 82.4355 279.652 82.4355C278.918 82.4355 278.232 82.6288 277.592 83.0155C276.965 83.4021 276.458 83.9155 276.072 84.5555C275.698 85.1955 275.512 85.8821 275.512 86.6155C275.512 87.3488 275.698 88.0355 276.072 88.6755C276.458 89.3021 276.972 89.8088 277.612 90.1955C278.252 90.5688 278.938 90.7555 279.672 90.7555ZM290.776 90.7755C291.469 90.7755 292.129 90.5955 292.756 90.2355C293.383 89.8755 293.903 89.3821 294.316 88.7555V89.7755C293.823 90.3221 293.283 90.7221 292.696 90.9755C292.109 91.2155 291.443 91.3355 290.696 91.3355C289.869 91.3355 289.089 91.1155 288.356 90.6755C287.636 90.2355 287.056 89.6488 286.616 88.9155C286.189 88.1821 285.976 87.4021 285.976 86.5755C285.976 85.6821 286.189 84.8821 286.616 84.1755C287.043 83.4555 287.623 82.8955 288.356 82.4955C289.103 82.0955 289.929 81.8955 290.836 81.8955C292.223 81.8955 293.403 82.4421 294.376 83.5355L288.096 89.7355C288.536 90.0955 288.963 90.3621 289.376 90.5355C289.789 90.6955 290.256 90.7755 290.776 90.7755ZM286.616 86.5155C286.616 87.6221 286.983 88.5688 287.716 89.3555L293.576 83.5355C293.136 83.1488 292.709 82.8755 292.296 82.7155C291.883 82.5421 291.389 82.4555 290.816 82.4555C290.003 82.4555 289.276 82.6355 288.636 82.9955C288.009 83.3421 287.516 83.8221 287.156 84.4355C286.796 85.0488 286.616 85.7421 286.616 86.5155ZM296.617 82.0955H303.857V91.0955H303.217V82.6555H297.257V91.0955H296.617V82.0955ZM309.751 91.0755L305.451 82.0955H306.131L310.091 90.3555L314.031 82.0955H314.651L308.471 95.0955H307.851L309.751 91.0755ZM318.485 82.6755H315.045V82.1155H322.565V82.6755H319.125V91.0955H318.485V82.6755ZM328.37 91.3155C327.517 91.3155 326.724 91.1021 325.99 90.6755C325.257 90.2488 324.677 89.6755 324.25 88.9555C323.824 88.2221 323.61 87.4355 323.61 86.5955C323.61 85.7555 323.824 84.9755 324.25 84.2555C324.677 83.5221 325.257 82.9421 325.99 82.5155C326.724 82.0888 327.517 81.8755 328.37 81.8755C329.237 81.8755 330.057 82.1088 330.83 82.5755C331.604 83.0288 332.144 83.6221 332.45 84.3555V82.0955H333.09V91.0955H332.45V88.8555C332.09 89.6021 331.53 90.2021 330.77 90.6555C330.024 91.0955 329.224 91.3155 328.37 91.3155ZM328.41 90.7555C329.144 90.7555 329.824 90.5688 330.45 90.1955C331.077 89.8088 331.57 89.3021 331.93 88.6755C332.304 88.0355 332.49 87.3421 332.49 86.5955C332.49 85.8621 332.304 85.1755 331.93 84.5355C331.557 83.8955 331.057 83.3888 330.43 83.0155C329.804 82.6288 329.124 82.4355 328.39 82.4355C327.657 82.4355 326.97 82.6288 326.33 83.0155C325.704 83.4021 325.197 83.9155 324.81 84.5555C324.437 85.1955 324.25 85.8821 324.25 86.6155C324.25 87.3488 324.437 88.0355 324.81 88.6755C325.197 89.3021 325.71 89.8088 326.35 90.1955C326.99 90.5688 327.677 90.7555 328.41 90.7555ZM343.955 91.0955H335.855V82.0955H336.495V90.5355H342.455V82.0955H343.095V90.5155H344.515V93.0355H343.955V91.0955ZM346.519 82.0955H347.139V90.1955L353.599 82.0955H354.179V91.0955H353.559V83.0155L347.079 91.0955H346.519V82.0955ZM357.183 82.0955H357.803V90.1955L364.263 82.0955H364.843V91.0955H364.223V83.0155L357.743 91.0955H357.183V82.0955ZM372.242 82.0955H374.482C375.028 82.0955 375.455 82.2621 375.762 82.5955C376.068 82.9155 376.222 83.3221 376.222 83.8155C376.222 84.5755 375.895 85.1021 375.242 85.3955C375.948 85.5155 376.475 85.8021 376.822 86.2555C377.168 86.7088 377.342 87.3755 377.342 88.2555C377.342 88.7755 377.215 89.2555 376.962 89.6955C376.722 90.1221 376.382 90.4621 375.942 90.7155C375.515 90.9688 375.042 91.0955 374.522 91.0955H372.242V82.0955ZM374.382 85.1955C374.768 85.1955 375.062 85.0821 375.262 84.8555C375.475 84.6155 375.582 84.2688 375.582 83.8155C375.582 83.4288 375.475 83.1355 375.262 82.9355C375.048 82.7355 374.742 82.6355 374.342 82.6355H372.882V85.1955H374.382ZM374.562 90.5555C375.162 90.5555 375.668 90.3288 376.082 89.8755C376.495 89.4088 376.702 88.8421 376.702 88.1755C376.702 87.3888 376.495 86.7888 376.082 86.3755C375.682 85.9488 375.108 85.7355 374.362 85.7355H372.882V90.5555H374.562ZM382.095 91.0755L377.795 82.0955H378.475L382.435 90.3555L386.375 82.0955H386.995L380.815 95.0955H380.195L382.095 91.0755ZM389.739 91.3555C388.659 91.3555 387.779 90.9021 387.099 89.9955V88.8955C387.312 89.4688 387.645 89.9288 388.099 90.2755C388.565 90.6221 389.125 90.7955 389.779 90.7955C390.512 90.7955 391.099 90.5688 391.539 90.1155C391.992 89.6621 392.219 89.0421 392.219 88.2555C392.219 87.4955 391.972 86.8821 391.479 86.4155C390.999 85.9488 390.412 85.7155 389.719 85.7155H389.239V85.1555H389.639C390.052 85.1555 390.405 85.0221 390.699 84.7555C391.005 84.4755 391.159 84.1355 391.159 83.7355C391.159 83.3621 391.045 83.0555 390.819 82.8155C390.592 82.5621 390.272 82.4355 389.859 82.4355C389.139 82.4355 388.612 82.7955 388.279 83.5155V82.5355C388.705 82.1355 389.239 81.9355 389.879 81.9355C390.425 81.9355 390.872 82.1155 391.219 82.4755C391.565 82.8355 391.739 83.2621 391.739 83.7555C391.739 84.1288 391.632 84.4555 391.419 84.7355C391.205 85.0155 390.925 85.2221 390.579 85.3555C391.232 85.5021 391.772 85.8288 392.199 86.3355C392.639 86.8288 392.859 87.4688 392.859 88.2555C392.859 89.1621 392.565 89.9088 391.979 90.4955C391.405 91.0688 390.659 91.3555 389.739 91.3555ZM398.996 91.4155C398.09 91.4155 397.27 91.1955 396.536 90.7555C395.803 90.3021 395.23 89.7088 394.816 88.9755C394.403 88.2288 394.196 87.4221 394.196 86.5555C394.196 85.7021 394.403 84.9088 394.816 84.1755C395.243 83.4421 395.816 82.8621 396.536 82.4355C397.27 81.9955 398.083 81.7755 398.976 81.7755C399.856 81.7755 400.656 81.9955 401.376 82.4355C402.11 82.8621 402.683 83.4421 403.096 84.1755C403.51 84.9088 403.716 85.7021 403.716 86.5555C403.716 87.4488 403.516 88.2688 403.116 89.0155C402.716 89.7488 402.156 90.3355 401.436 90.7755C400.73 91.2021 399.916 91.4155 398.996 91.4155ZM398.996 90.8555C399.756 90.8555 400.45 90.6621 401.076 90.2755C401.703 89.8888 402.19 89.3755 402.536 88.7355C402.896 88.0821 403.076 87.3688 403.076 86.5955C403.076 85.8355 402.896 85.1288 402.536 84.4755C402.176 83.8221 401.683 83.3021 401.056 82.9155C400.43 82.5288 399.736 82.3355 398.976 82.3355C398.216 82.3355 397.516 82.5355 396.876 82.9355C396.25 83.3221 395.75 83.8421 395.376 84.4955C395.016 85.1488 394.836 85.8555 394.836 86.6155C394.836 87.3755 395.016 88.0821 395.376 88.7355C395.75 89.3755 396.25 89.8888 396.876 90.2755C397.516 90.6621 398.223 90.8555 398.996 90.8555ZM405.757 82.0955H407.997C408.544 82.0955 408.97 82.2621 409.277 82.5955C409.584 82.9155 409.737 83.3221 409.737 83.8155C409.737 84.5755 409.41 85.1021 408.757 85.3955C409.464 85.5155 409.99 85.8021 410.337 86.2555C410.684 86.7088 410.857 87.3755 410.857 88.2555C410.857 88.7755 410.73 89.2555 410.477 89.6955C410.237 90.1221 409.897 90.4621 409.457 90.7155C409.03 90.9688 408.557 91.0955 408.037 91.0955H405.757V82.0955ZM407.897 85.1955C408.284 85.1955 408.577 85.0821 408.777 84.8555C408.99 84.6155 409.097 84.2688 409.097 83.8155C409.097 83.4288 408.99 83.1355 408.777 82.9355C408.564 82.7355 408.257 82.6355 407.857 82.6355H406.397V85.1955H407.897ZM408.077 90.5555C408.677 90.5555 409.184 90.3288 409.597 89.8755C410.01 89.4088 410.217 88.8421 410.217 88.1755C410.217 87.3888 410.01 86.7888 409.597 86.3755C409.197 85.9488 408.624 85.7355 407.877 85.7355H406.397V90.5555H408.077ZM417.495 82.0955H419.735C420.282 82.0955 420.709 82.2621 421.015 82.5955C421.322 82.9155 421.475 83.3221 421.475 83.8155C421.475 84.5755 421.149 85.1021 420.495 85.3955C421.202 85.5155 421.729 85.8021 422.075 86.2555C422.422 86.7088 422.595 87.3755 422.595 88.2555C422.595 88.7755 422.469 89.2555 422.215 89.6955C421.975 90.1221 421.635 90.4621 421.195 90.7155C420.769 90.9688 420.295 91.0955 419.775 91.0955H417.495V82.0955ZM419.635 85.1955C420.022 85.1955 420.315 85.0821 420.515 84.8555C420.729 84.6155 420.835 84.2688 420.835 83.8155C420.835 83.4288 420.729 83.1355 420.515 82.9355C420.302 82.7355 419.995 82.6355 419.595 82.6355H418.135V85.1955H419.635ZM419.815 90.5555C420.415 90.5555 420.922 90.3288 421.335 89.8755C421.749 89.4088 421.955 88.8421 421.955 88.1755C421.955 87.3888 421.749 86.7888 421.335 86.3755C420.935 85.9488 420.362 85.7355 419.615 85.7355H418.135V90.5555H419.815ZM433.234 91.3155C432.38 91.3155 431.587 91.1021 430.854 90.6755C430.12 90.2488 429.54 89.6755 429.114 88.9555C428.687 88.2221 428.474 87.4355 428.474 86.5955C428.474 85.7555 428.687 84.9755 429.114 84.2555C429.54 83.5221 430.12 82.9421 430.854 82.5155C431.587 82.0888 432.38 81.8755 433.234 81.8755C434.1 81.8755 434.92 82.1088 435.694 82.5755C436.467 83.0288 437.007 83.6221 437.314 84.3555V82.0955H437.954V91.0955H437.314V88.8555C436.954 89.6021 436.394 90.2021 435.634 90.6555C434.887 91.0955 434.087 91.3155 433.234 91.3155ZM433.274 90.7555C434.007 90.7555 434.687 90.5688 435.314 90.1955C435.94 89.8088 436.434 89.3021 436.794 88.6755C437.167 88.0355 437.354 87.3421 437.354 86.5955C437.354 85.8621 437.167 85.1755 436.794 84.5355C436.42 83.8955 435.92 83.3888 435.294 83.0155C434.667 82.6288 433.987 82.4355 433.254 82.4355C432.52 82.4355 431.834 82.6288 431.194 83.0155C430.567 83.4021 430.06 83.9155 429.674 84.5555C429.3 85.1955 429.114 85.8821 429.114 86.6155C429.114 87.3488 429.3 88.0355 429.674 88.6755C430.06 89.3021 430.574 89.8088 431.214 90.1955C431.854 90.5688 432.54 90.7555 433.274 90.7555ZM440.718 82.0955H441.358V85.2155L444.918 82.0955H445.738L441.618 85.6955L446.778 91.0955H445.918L441.358 86.2355V91.0955H440.718V82.0955ZM451.867 91.3155C451.013 91.3155 450.22 91.1021 449.487 90.6755C448.753 90.2488 448.173 89.6755 447.747 88.9555C447.32 88.2221 447.107 87.4355 447.107 86.5955C447.107 85.7555 447.32 84.9755 447.747 84.2555C448.173 83.5221 448.753 82.9421 449.487 82.5155C450.22 82.0888 451.013 81.8755 451.867 81.8755C452.733 81.8755 453.553 82.1088 454.327 82.5755C455.1 83.0288 455.64 83.6221 455.947 84.3555V82.0955H456.587V91.0955H455.947V88.8555C455.587 89.6021 455.027 90.2021 454.267 90.6555C453.52 91.0955 452.72 91.3155 451.867 91.3155ZM451.907 90.7555C452.64 90.7555 453.32 90.5688 453.947 90.1955C454.573 89.8088 455.067 89.3021 455.427 88.6755C455.8 88.0355 455.987 87.3421 455.987 86.5955C455.987 85.8621 455.8 85.1755 455.427 84.5355C455.053 83.8955 454.553 83.3888 453.927 83.0155C453.3 82.6288 452.62 82.4355 451.887 82.4355C451.153 82.4355 450.467 82.6288 449.827 83.0155C449.2 83.4021 448.693 83.9155 448.307 84.5555C447.933 85.1955 447.747 85.8821 447.747 86.6155C447.747 87.3488 447.933 88.0355 448.307 88.6755C448.693 89.3021 449.207 89.8088 449.847 90.1955C450.487 90.5688 451.173 90.7555 451.907 90.7555ZM468.071 90.5155V93.0355H467.511V91.0955H458.871V93.0355H458.311V90.5355H459.051L463.231 81.8355L467.411 90.5155H468.071ZM466.771 90.5155L463.231 83.1555L459.691 90.5155H466.771ZM473.823 90.7755C474.516 90.7755 475.176 90.5955 475.803 90.2355C476.43 89.8755 476.95 89.3821 477.363 88.7555V89.7755C476.87 90.3221 476.33 90.7221 475.743 90.9755C475.156 91.2155 474.49 91.3355 473.743 91.3355C472.916 91.3355 472.136 91.1155 471.403 90.6755C470.683 90.2355 470.103 89.6488 469.663 88.9155C469.236 88.1821 469.023 87.4021 469.023 86.5755C469.023 85.6821 469.236 84.8821 469.663 84.1755C470.09 83.4555 470.67 82.8955 471.403 82.4955C472.15 82.0955 472.976 81.8955 473.883 81.8955C475.27 81.8955 476.45 82.4421 477.423 83.5355L471.143 89.7355C471.583 90.0955 472.01 90.3621 472.423 90.5355C472.836 90.6955 473.303 90.7755 473.823 90.7755ZM469.663 86.5155C469.663 87.6221 470.03 88.5688 470.763 89.3555L476.623 83.5355C476.183 83.1488 475.756 82.8755 475.343 82.7155C474.93 82.5421 474.436 82.4555 473.863 82.4555C473.05 82.4555 472.323 82.6355 471.683 82.9955C471.056 83.3421 470.563 83.8221 470.203 84.4355C469.843 85.0488 469.663 85.7421 469.663 86.5155ZM488.923 82.0955V91.0955H488.283V83.4755L484.263 91.3355L480.223 83.1955V91.0955H479.663V82.0955H480.383L484.323 90.0555L488.323 82.0955H488.923ZM491.929 82.0955H492.549V90.1955L499.009 82.0955H499.589V91.0955H498.969V83.0155L492.489 91.0955H491.929V82.0955ZM507.673 86.4555C507.446 86.9088 507.053 87.2955 506.493 87.6155C505.933 87.9221 505.353 88.0755 504.753 88.0755C503.846 88.0755 503.14 87.7821 502.633 87.1955C502.14 86.6088 501.893 85.7755 501.893 84.6955V82.0955H502.533V84.8355C502.533 85.6755 502.733 86.3288 503.133 86.7955C503.533 87.2488 504.1 87.4755 504.833 87.4755C505.353 87.4755 505.826 87.3621 506.253 87.1355C506.693 86.8955 507.04 86.5755 507.293 86.1755C507.546 85.7621 507.673 85.3155 507.673 84.8355V82.0955H508.313V91.0955H507.673V86.4555ZM515.444 90.7755C516.137 90.7755 516.797 90.5955 517.424 90.2355C518.051 89.8755 518.571 89.3821 518.984 88.7555V89.7755C518.491 90.3221 517.951 90.7221 517.364 90.9755C516.777 91.2155 516.111 91.3355 515.364 91.3355C514.537 91.3355 513.757 91.1155 513.024 90.6755C512.304 90.2355 511.724 89.6488 511.284 88.9155C510.857 88.1821 510.644 87.4021 510.644 86.5755C510.644 85.6821 510.857 84.8821 511.284 84.1755C511.711 83.4555 512.291 82.8955 513.024 82.4955C513.771 82.0955 514.597 81.8955 515.504 81.8955C516.891 81.8955 518.071 82.4421 519.044 83.5355L512.764 89.7355C513.204 90.0955 513.631 90.3621 514.044 90.5355C514.457 90.6955 514.924 90.7755 515.444 90.7755ZM511.284 86.5155C511.284 87.6221 511.651 88.5688 512.384 89.3555L518.244 83.5355C517.804 83.1488 517.377 82.8755 516.964 82.7155C516.551 82.5421 516.057 82.4555 515.484 82.4555C514.671 82.4555 513.944 82.6355 513.304 82.9955C512.677 83.3421 512.184 83.8221 511.824 84.4355C511.464 85.0488 511.284 85.7421 511.284 86.5155ZM525.284 91.3555C524.418 91.3555 523.618 91.1488 522.884 90.7355C522.164 90.3221 521.591 89.7555 521.164 89.0355C520.738 88.3155 520.524 87.5021 520.524 86.5955C520.524 85.7555 520.738 84.9821 521.164 84.2755C521.591 83.5555 522.171 82.9821 522.904 82.5555C523.651 82.1288 524.471 81.9155 525.364 81.9155C526.111 81.9155 526.751 82.0355 527.284 82.2755C527.818 82.5155 528.338 82.8888 528.844 83.3955V84.4755C528.404 83.8221 527.911 83.3288 527.364 82.9955C526.831 82.6488 526.164 82.4755 525.364 82.4755C524.631 82.4755 523.938 82.6688 523.284 83.0555C522.644 83.4288 522.131 83.9355 521.744 84.5755C521.358 85.2155 521.164 85.9021 521.164 86.6355C521.164 87.4355 521.351 88.1555 521.724 88.7955C522.098 89.4221 522.598 89.9155 523.224 90.2755C523.864 90.6221 524.551 90.7955 525.284 90.7955C526.778 90.7955 527.964 90.1221 528.844 88.7755V89.8555C528.364 90.3621 527.831 90.7421 527.244 90.9955C526.671 91.2355 526.018 91.3555 525.284 91.3555ZM530.855 82.0955H531.495V85.2155L535.055 82.0955H535.875L531.755 85.6955L536.915 91.0955H536.055L531.495 86.2355V91.0955H530.855V82.0955ZM542.082 91.4155C541.176 91.4155 540.356 91.1955 539.622 90.7555C538.889 90.3021 538.316 89.7088 537.902 88.9755C537.489 88.2288 537.282 87.4221 537.282 86.5555C537.282 85.7021 537.489 84.9088 537.902 84.1755C538.329 83.4421 538.902 82.8621 539.622 82.4355C540.356 81.9955 541.169 81.7755 542.062 81.7755C542.942 81.7755 543.742 81.9955 544.462 82.4355C545.196 82.8621 545.769 83.4421 546.182 84.1755C546.596 84.9088 546.802 85.7021 546.802 86.5555C546.802 87.4488 546.602 88.2688 546.202 89.0155C545.802 89.7488 545.242 90.3355 544.522 90.7755C543.816 91.2021 543.002 91.4155 542.082 91.4155ZM542.082 90.8555C542.842 90.8555 543.536 90.6621 544.162 90.2755C544.789 89.8888 545.276 89.3755 545.622 88.7355C545.982 88.0821 546.162 87.3688 546.162 86.5955C546.162 85.8355 545.982 85.1288 545.622 84.4755C545.262 83.8221 544.769 83.3021 544.142 82.9155C543.516 82.5288 542.822 82.3355 542.062 82.3355C541.302 82.3355 540.602 82.5355 539.962 82.9355C539.336 83.3221 538.836 83.8421 538.462 84.4955C538.102 85.1488 537.922 85.8555 537.922 86.6155C537.922 87.3755 538.102 88.0821 538.462 88.7355C538.836 89.3755 539.336 89.8888 539.962 90.2755C540.602 90.6621 541.309 90.8555 542.082 90.8555ZM548.843 82.0955H549.463V90.1955L555.923 82.0955H556.503V91.0955H555.883V83.0155L549.403 91.0955H548.843V82.0955ZM552.683 79.5155C551.79 79.5155 551.09 79.2955 550.583 78.8555C550.076 78.4155 549.81 77.8621 549.783 77.1955H550.343C550.383 77.7021 550.61 78.1221 551.023 78.4555C551.45 78.7888 551.996 78.9555 552.663 78.9555C553.316 78.9555 553.85 78.7888 554.263 78.4555C554.69 78.1221 554.936 77.7021 555.003 77.1955H555.563C555.536 77.8488 555.263 78.4021 554.743 78.8555C554.223 79.2955 553.536 79.5155 552.683 79.5155ZM567.902 91.3555C567.035 91.3555 566.235 91.1488 565.502 90.7355C564.782 90.3221 564.208 89.7555 563.782 89.0355C563.355 88.3155 563.142 87.5021 563.142 86.5955C563.142 85.7555 563.355 84.9821 563.782 84.2755C564.208 83.5555 564.788 82.9821 565.522 82.5555C566.268 82.1288 567.088 81.9155 567.982 81.9155C568.728 81.9155 569.368 82.0355 569.902 82.2755C570.435 82.5155 570.955 82.8888 571.462 83.3955V84.4755C571.022 83.8221 570.528 83.3288 569.982 82.9955C569.448 82.6488 568.782 82.4755 567.982 82.4755C567.248 82.4755 566.555 82.6688 565.902 83.0555C565.262 83.4288 564.748 83.9355 564.362 84.5755C563.975 85.2155 563.782 85.9021 563.782 86.6355C563.782 87.4355 563.968 88.1555 564.342 88.7955C564.715 89.4221 565.215 89.9155 565.842 90.2755C566.482 90.6221 567.168 90.7955 567.902 90.7955C569.395 90.7955 570.582 90.1221 571.462 88.7755V89.8555C570.982 90.3621 570.448 90.7421 569.862 90.9955C569.288 91.2355 568.635 91.3555 567.902 91.3555ZM573.232 82.0955H573.872V84.2955C574.232 83.5755 574.792 82.9955 575.552 82.5555C576.312 82.1021 577.112 81.8755 577.952 81.8755C578.819 81.8755 579.612 82.0888 580.332 82.5155C581.065 82.9421 581.645 83.5155 582.072 84.2355C582.499 84.9555 582.712 85.7421 582.712 86.5955C582.712 87.4488 582.499 88.2355 582.072 88.9555C581.645 89.6755 581.065 90.2488 580.332 90.6755C579.612 91.1021 578.819 91.3155 577.952 91.3155C577.139 91.3155 576.352 91.0955 575.592 90.6555C574.845 90.2155 574.272 89.6355 573.872 88.9155V95.0955H573.232V82.0955ZM577.992 90.7555C578.725 90.7555 579.405 90.5688 580.032 90.1955C580.659 89.8088 581.152 89.3021 581.512 88.6755C581.885 88.0355 582.072 87.3421 582.072 86.5955C582.072 85.8621 581.885 85.1755 581.512 84.5355C581.139 83.8955 580.639 83.3888 580.012 83.0155C579.385 82.6288 578.705 82.4355 577.972 82.4355C577.239 82.4355 576.552 82.6288 575.912 83.0155C575.285 83.4021 574.779 83.9155 574.392 84.5555C574.019 85.1955 573.832 85.8821 573.832 86.6155C573.832 87.3488 574.019 88.0355 574.392 88.6755C574.779 89.3021 575.292 89.8088 575.932 90.1955C576.572 90.5688 577.259 90.7555 577.992 90.7555ZM589.096 90.7755C589.79 90.7755 590.45 90.5955 591.076 90.2355C591.703 89.8755 592.223 89.3821 592.636 88.7555V89.7755C592.143 90.3221 591.603 90.7221 591.016 90.9755C590.43 91.2155 589.763 91.3355 589.016 91.3355C588.19 91.3355 587.41 91.1155 586.676 90.6755C585.956 90.2355 585.376 89.6488 584.936 88.9155C584.51 88.1821 584.296 87.4021 584.296 86.5755C584.296 85.6821 584.51 84.8821 584.936 84.1755C585.363 83.4555 585.943 82.8955 586.676 82.4955C587.423 82.0955 588.25 81.8955 589.156 81.8955C590.543 81.8955 591.723 82.4421 592.696 83.5355L586.416 89.7355C586.856 90.0955 587.283 90.3621 587.696 90.5355C588.11 90.6955 588.576 90.7755 589.096 90.7755ZM584.936 86.5155C584.936 87.6221 585.303 88.5688 586.036 89.3555L591.896 83.5355C591.456 83.1488 591.03 82.8755 590.616 82.7155C590.203 82.5421 589.71 82.4555 589.136 82.4555C588.323 82.4555 587.596 82.6355 586.956 82.9955C586.33 83.3421 585.836 83.8221 585.476 84.4355C585.116 85.0488 584.936 85.7421 584.936 86.5155ZM603.051 90.5155V93.0355H602.491V91.0955H593.851V93.0355H593.291V90.5355H594.031L598.211 81.8355L602.391 90.5155H603.051ZM601.751 90.5155L598.211 83.1555L594.671 90.5155H601.751ZM608.803 90.7755C609.497 90.7755 610.157 90.5955 610.783 90.2355C611.41 89.8755 611.93 89.3821 612.343 88.7555V89.7755C611.85 90.3221 611.31 90.7221 610.723 90.9755C610.137 91.2155 609.47 91.3355 608.723 91.3355C607.897 91.3355 607.117 91.1155 606.383 90.6755C605.663 90.2355 605.083 89.6488 604.643 88.9155C604.217 88.1821 604.003 87.4021 604.003 86.5755C604.003 85.6821 604.217 84.8821 604.643 84.1755C605.07 83.4555 605.65 82.8955 606.383 82.4955C607.13 82.0955 607.957 81.8955 608.863 81.8955C610.25 81.8955 611.43 82.4421 612.403 83.5355L606.123 89.7355C606.563 90.0955 606.99 90.3621 607.403 90.5355C607.817 90.6955 608.283 90.7755 608.803 90.7755ZM604.643 86.5155C604.643 87.6221 605.01 88.5688 605.743 89.3555L611.603 83.5355C611.163 83.1488 610.737 82.8755 610.323 82.7155C609.91 82.5421 609.417 82.4555 608.843 82.4555C608.03 82.4555 607.303 82.6355 606.663 82.9955C606.037 83.3421 605.543 83.8221 605.183 84.4355C604.823 85.0488 604.643 85.7421 604.643 86.5155ZM614.524 91.2755C614.337 91.2755 614.171 91.2088 614.024 91.0755C613.891 90.9421 613.824 90.7755 613.824 90.5755C613.824 90.3888 613.891 90.2288 614.024 90.0955C614.171 89.9621 614.337 89.8955 614.524 89.8955C614.711 89.8955 614.871 89.9621 615.004 90.0955C615.151 90.2288 615.224 90.3888 615.224 90.5755C615.224 90.7755 615.151 90.9421 615.004 91.0755C614.871 91.2088 614.711 91.2755 614.524 91.2755Z" fill="black"/>
<path d="M127.077 68.3652C122.527 68.3652 120.252 66.8986 120.252 63.9652V56.5402C120.252 53.4402 122.527 51.8902 127.077 51.8902C131.643 51.8902 133.927 53.4319 133.927 56.5152V63.2152C133.927 64.7486 133.185 66.0069 131.702 66.9902H135.702V68.3652H127.077ZM127.127 66.7402C130.11 66.7402 131.602 65.8069 131.602 63.9402V56.4652C131.602 54.4652 130.102 53.4652 127.102 53.4652C126.435 53.4652 125.86 53.5069 125.377 53.5902C124.893 53.6569 124.435 53.7902 124.002 53.9902C123.052 54.4402 122.577 55.2652 122.577 56.4652V63.9402C122.577 65.8069 124.093 66.7402 127.127 66.7402ZM142.321 68.6152C140.938 68.6152 139.288 68.4819 137.371 68.2152V66.1902C139.305 66.6069 141.005 66.8152 142.471 66.8152C143.705 66.8152 144.605 66.6819 145.171 66.4152C145.738 66.1319 146.021 65.6152 146.021 64.8652V62.7652C146.021 62.0652 145.821 61.5736 145.421 61.2902C145.021 61.0069 144.321 60.8652 143.321 60.8652H141.421C139.838 60.8652 138.713 60.5486 138.046 59.9152C137.38 59.2819 137.046 58.2986 137.046 56.9652V55.6652C137.046 54.7819 137.238 54.0652 137.621 53.5152C138.021 52.9652 138.68 52.5569 139.596 52.2902C140.53 52.0236 141.805 51.8902 143.421 51.8902C144.505 51.8902 145.896 51.9819 147.596 52.1652V53.9902C145.696 53.7069 144.246 53.5652 143.246 53.5652C141.696 53.5652 140.671 53.7152 140.171 54.0152C139.655 54.3319 139.396 54.8569 139.396 55.5902V57.4402C139.396 58.0069 139.596 58.4236 139.996 58.6902C140.413 58.9402 141.121 59.0652 142.121 59.0652H144.071C145.188 59.0652 146.055 59.1986 146.671 59.4652C147.305 59.7319 147.746 60.1402 147.996 60.6902C148.263 61.2236 148.396 61.9486 148.396 62.8652V64.0402C148.396 65.1902 148.18 66.0986 147.746 66.7652C147.33 67.4319 146.68 67.9069 145.796 68.1902C144.913 68.4736 143.755 68.6152 142.321 68.6152ZM155.741 52.1402H158.316L162.341 66.0652H162.391L166.416 52.1402H168.991L173.016 66.0652H173.066L177.091 52.1402H179.541L174.316 68.3652H171.491L167.616 54.8652L163.641 68.3652H160.816L155.741 52.1402ZM186.811 68.6152C185.744 68.6152 184.944 68.5736 184.411 68.4902C183.877 68.4236 183.344 68.2652 182.811 68.0152C182.261 67.7652 181.861 67.3652 181.611 66.8152C181.361 66.2486 181.236 65.4902 181.236 64.5402V60.3402C181.236 59.5902 181.327 58.9319 181.511 58.3652C181.694 57.7986 181.936 57.3569 182.236 57.0402C182.486 56.7569 182.861 56.5402 183.361 56.3902C183.877 56.2236 184.402 56.1152 184.936 56.0652C185.536 56.0319 186.161 56.0152 186.811 56.0152C187.677 56.0152 188.327 56.0402 188.761 56.0902C189.211 56.1236 189.686 56.2069 190.186 56.3402C190.702 56.4902 191.102 56.7152 191.386 57.0152C191.669 57.3152 191.911 57.7486 192.111 58.3152C192.294 58.8986 192.386 59.5736 192.386 60.3402V64.5402C192.386 65.9569 192.061 66.9902 191.411 67.6402C191.144 67.9069 190.761 68.1152 190.261 68.2652C189.761 68.4152 189.244 68.5152 188.711 68.5652C188.077 68.5986 187.444 68.6152 186.811 68.6152ZM186.811 67.1402C187.511 67.1402 188.019 67.1236 188.336 67.0902C188.652 67.0569 188.961 66.9652 189.261 66.8152C189.561 66.6819 189.769 66.4652 189.886 66.1652C190.019 65.8486 190.086 65.4152 190.086 64.8652V59.9652C190.086 59.2152 189.994 58.6736 189.811 58.3402C189.627 57.9902 189.311 57.7652 188.861 57.6652C188.427 57.5486 187.744 57.4902 186.811 57.4902C185.877 57.4902 185.186 57.5486 184.736 57.6652C184.302 57.7652 183.994 57.9902 183.811 58.3402C183.627 58.6736 183.536 59.2152 183.536 59.9652V64.8652C183.536 65.4152 183.594 65.8486 183.711 66.1652C183.844 66.4652 184.061 66.6819 184.361 66.8152C184.661 66.9652 184.969 67.0569 185.286 67.0902C185.602 67.1236 186.111 67.1402 186.811 67.1402ZM195.895 56.2652H198.02V58.2402C198.02 57.8569 198.186 57.4986 198.52 57.1652C198.853 56.8152 199.278 56.5402 199.795 56.3402C200.311 56.1236 200.82 56.0152 201.32 56.0152H202.42V57.9402H201.17C200.103 57.9402 199.328 58.0819 198.845 58.3652C198.378 58.6319 198.145 59.1236 198.145 59.8402V68.3652H195.895V56.2652ZM204.659 50.8652H206.909V68.3652H204.659V50.8652ZM215.137 68.6152C213.937 68.6152 212.995 68.4986 212.312 68.2652C211.628 68.0152 211.128 67.6152 210.812 67.0652C210.512 66.5152 210.362 65.7486 210.362 64.7652V59.4402C210.362 58.2236 210.737 57.3486 211.487 56.8152C212.253 56.2819 213.512 56.0152 215.262 56.0152C216.312 56.0152 217.212 56.1486 217.962 56.4152C218.728 56.6819 219.12 57.0652 219.137 57.5652H219.187L219.137 54.4902V50.8652H221.387V68.3652H219.187V66.9402C219.187 67.3902 218.828 67.7736 218.112 68.0902C217.395 68.4402 216.403 68.6152 215.137 68.6152ZM215.612 67.0652C216.862 67.0652 217.762 66.9236 218.312 66.6402C218.862 66.3569 219.137 65.8736 219.137 65.1902V59.2152C219.137 58.1319 218.028 57.5902 215.812 57.5902C214.478 57.5902 213.612 57.6902 213.212 57.8902C212.795 58.0902 212.587 58.5319 212.587 59.2152V65.1902C212.587 65.8736 212.812 66.3569 213.262 66.6402C213.728 66.9236 214.512 67.0652 215.612 67.0652ZM237.331 68.6152C236.447 68.6152 235.672 68.5569 235.006 68.4402C234.356 68.3236 233.714 68.1236 233.081 67.8402C232.414 67.5402 231.897 67.0819 231.531 66.4652C231.181 65.8486 231.006 65.0986 231.006 64.2152V52.1402H233.331V64.1902C233.331 65.2069 233.672 65.9319 234.356 66.3652C235.039 66.7819 236.047 66.9902 237.381 66.9902C238.714 66.9902 239.706 66.7819 240.356 66.3652C241.022 65.9319 241.356 65.2069 241.356 64.1902V52.1402H243.681V64.2152C243.681 67.1486 241.564 68.6152 237.331 68.6152ZM247.75 56.2652H250V57.7402C250.233 56.5902 251.558 56.0152 253.975 56.0152C255.525 56.0152 256.608 56.2986 257.225 56.8652C257.858 57.4152 258.175 58.2902 258.175 59.4902V68.3652H255.925V59.6152C255.925 59.2986 255.9 59.0402 255.85 58.8402C255.8 58.6402 255.7 58.4402 255.55 58.2402C255.217 57.8236 254.475 57.6152 253.325 57.6152C252.442 57.6152 251.758 57.6819 251.275 57.8152C250.808 57.9319 250.475 58.1319 250.275 58.4152C250.092 58.6986 250 59.0986 250 59.6152V68.3652H247.75V56.2652ZM262.081 51.8902H264.331V54.2402H262.081V51.8902ZM262.081 56.2652H264.331V68.3652H262.081V56.2652ZM266.434 56.2652H268.809L272.159 66.4152H272.284L275.534 56.2652H277.709L273.484 68.3652H270.784L266.434 56.2652ZM284.906 68.6152C281.206 68.6152 279.356 67.3819 279.356 64.9152V60.1402C279.356 58.6736 279.772 57.6236 280.606 56.9902C281.456 56.3402 282.822 56.0152 284.706 56.0152C286.489 56.0152 287.772 56.3236 288.556 56.9402C289.356 57.5569 289.756 58.6236 289.756 60.1402V62.8152H281.631V64.6402C281.631 65.4736 281.922 66.0736 282.506 66.4402C283.089 66.8069 283.989 66.9902 285.206 66.9902C286.356 66.9902 287.714 66.7902 289.281 66.3902V68.1152C287.747 68.4486 286.289 68.6152 284.906 68.6152ZM287.506 61.3402V59.4402C287.506 58.7069 287.281 58.2069 286.831 57.9402C286.397 57.6569 285.647 57.5152 284.581 57.5152C283.547 57.5152 282.797 57.6569 282.331 57.9402C281.864 58.2069 281.631 58.7069 281.631 59.4402V61.3402H287.506ZM293.185 56.2652H295.31V58.2402C295.31 57.8569 295.476 57.4986 295.81 57.1652C296.143 56.8152 296.568 56.5402 297.085 56.3402C297.601 56.1236 298.11 56.0152 298.61 56.0152H299.71V57.9402H298.46C297.393 57.9402 296.618 58.0819 296.135 58.3652C295.668 58.6319 295.435 59.1236 295.435 59.8402V68.3652H293.185V56.2652ZM305.649 68.6152C304.366 68.6152 302.983 68.5152 301.499 68.3152V66.5902C303.449 66.9069 304.849 67.0652 305.699 67.0652C306.766 67.0652 307.533 66.9652 307.999 66.7652C308.466 66.5486 308.699 66.1569 308.699 65.5902V64.3652C308.699 63.8486 308.524 63.4819 308.174 63.2652C307.824 63.0486 307.258 62.9402 306.474 62.9402H305.099C303.849 62.9402 302.891 62.6819 302.224 62.1652C301.574 61.6486 301.249 60.9236 301.249 59.9902V58.8652C301.249 56.9652 303.049 56.0152 306.649 56.0152C306.916 56.0152 308.141 56.0819 310.324 56.2152V57.8402C308.841 57.6069 307.583 57.4902 306.549 57.4902C305.366 57.4902 304.558 57.6069 304.124 57.8402C303.691 58.0736 303.474 58.4652 303.474 59.0152V60.0402C303.474 60.8569 304.216 61.2652 305.699 61.2652H307.099C309.649 61.2652 310.924 62.2152 310.924 64.1152V65.1652C310.924 66.4152 310.491 67.3069 309.624 67.8402C308.758 68.3569 307.433 68.6152 305.649 68.6152ZM314.034 51.8902H316.284V54.2402H314.034V51.8902ZM314.034 56.2652H316.284V68.3652H314.034V56.2652ZM325.262 68.6152C324.228 68.6152 323.42 68.5069 322.837 68.2902C322.253 68.0569 321.828 67.6736 321.562 67.1402C321.312 66.5902 321.187 65.8236 321.187 64.8402V57.7402H318.487V56.2652H321.187V52.5152H323.462V56.2652H327.787V57.7402H323.462V64.9652C323.462 65.5652 323.528 66.0152 323.662 66.3152C323.812 66.6152 324.062 66.8319 324.412 66.9652C324.778 67.0819 325.303 67.1402 325.987 67.1402C326.203 67.1402 326.803 67.0736 327.787 66.9402V68.4152C326.937 68.5486 326.095 68.6152 325.262 68.6152ZM333.12 68.5402L328.445 56.2652H330.895L334.27 66.1402H334.32L337.37 56.2652H339.645L333.57 73.5652H331.22L333.12 68.5402ZM347.656 52.1402H353.356C354.789 52.1402 355.906 52.2319 356.706 52.4152C357.523 52.5819 358.114 52.8902 358.481 53.3402C358.864 53.7902 359.056 54.4486 359.056 55.3152V58.1152C359.056 59.0819 358.656 59.8319 357.856 60.3652C357.073 60.8819 356.073 61.1402 354.856 61.1402L360.056 68.3652H357.081L352.431 61.4402H350.081V68.3652H347.656V52.1402ZM353.256 59.8402C354.456 59.8402 355.314 59.6986 355.831 59.4152C356.364 59.1152 356.631 58.5819 356.631 57.8152V55.5652C356.631 54.3486 355.581 53.7402 353.481 53.7402H350.081V59.8402H353.256ZM367.027 68.6152C365.877 68.6152 364.985 68.5069 364.352 68.2902C363.735 68.0736 363.285 67.6902 363.002 67.1402C362.735 66.5902 362.602 65.7986 362.602 64.7652C362.602 63.8486 362.727 63.1402 362.977 62.6402C363.244 62.1236 363.685 61.7569 364.302 61.5402C364.935 61.3236 365.827 61.2152 366.977 61.2152H370.602V59.2902C370.602 58.8402 370.51 58.4986 370.327 58.2652C370.16 58.0152 369.869 57.8402 369.452 57.7402C369.052 57.6402 368.46 57.5902 367.677 57.5902C366.427 57.5902 365.044 57.6902 363.527 57.8902V56.2402C365.177 56.0902 366.669 56.0152 368.002 56.0152C369.402 56.0152 370.435 56.1236 371.102 56.3402C371.769 56.5402 372.227 56.8986 372.477 57.4152C372.727 57.9319 372.852 58.7319 372.852 59.8152V68.3652H370.677V67.2152C370.494 68.1486 369.277 68.6152 367.027 68.6152ZM367.402 67.1402C368.219 67.1402 368.91 67.0819 369.477 66.9652C370.227 66.8152 370.602 66.4652 370.602 65.9152V62.6152H367.127C366.41 62.6152 365.894 62.6736 365.577 62.7902C365.26 62.8902 365.052 63.0902 364.952 63.3902C364.852 63.6902 364.802 64.1736 364.802 64.8402C364.802 65.4402 364.86 65.9069 364.977 66.2402C365.094 66.5569 365.302 66.7902 365.602 66.9402C365.902 67.0736 366.352 67.1402 366.952 67.1402H367.402ZM376.754 56.2652H379.004V57.7402C379.237 56.5902 380.562 56.0152 382.979 56.0152C384.529 56.0152 385.612 56.2986 386.229 56.8652C386.862 57.4152 387.179 58.2902 387.179 59.4902V68.3652H384.929V59.6152C384.929 59.2986 384.904 59.0402 384.854 58.8402C384.804 58.6402 384.704 58.4402 384.554 58.2402C384.221 57.8236 383.479 57.6152 382.329 57.6152C381.446 57.6152 380.762 57.6819 380.279 57.8152C379.812 57.9319 379.479 58.1319 379.279 58.4152C379.096 58.6986 379.004 59.0986 379.004 59.6152V68.3652H376.754V56.2652ZM391.085 50.8652H393.335V68.3652H391.085V50.8652ZM393.61 61.7402L398.71 56.2652H401.46L396.21 61.7402L401.935 68.3652H399.135L393.61 61.7402ZM403.927 51.8902H406.177V54.2402H403.927V51.8902ZM403.927 56.2652H406.177V68.3652H403.927V56.2652ZM410.079 56.2652H412.329V57.7402C412.563 56.5902 413.888 56.0152 416.304 56.0152C417.854 56.0152 418.938 56.2986 419.554 56.8652C420.188 57.4152 420.504 58.2902 420.504 59.4902V68.3652H418.254V59.6152C418.254 59.2986 418.229 59.0402 418.179 58.8402C418.129 58.6402 418.029 58.4402 417.879 58.2402C417.546 57.8236 416.804 57.6152 415.654 57.6152C414.771 57.6152 414.088 57.6819 413.604 57.8152C413.138 57.9319 412.804 58.1319 412.604 58.4152C412.421 58.6986 412.329 59.0986 412.329 59.6152V68.3652H410.079V56.2652ZM428.985 73.8652C427.335 73.8652 425.944 73.7736 424.81 73.5902V71.9902C426.81 72.2236 428.269 72.3402 429.185 72.3402C430.335 72.3402 431.169 72.1569 431.685 71.7902C432.219 71.4236 432.485 70.8152 432.485 69.9652V67.0652C432.452 67.5986 432.085 67.9902 431.385 68.2402C430.702 68.4902 429.835 68.6152 428.785 68.6152C427.535 68.6152 426.56 68.4986 425.86 68.2652C425.177 68.0319 424.685 67.6486 424.385 67.1152C424.102 66.5819 423.96 65.8569 423.96 64.9402V60.0152C423.96 58.5819 424.344 57.5569 425.11 56.9402C425.894 56.3236 427.169 56.0152 428.935 56.0152C431.035 56.0152 432.269 56.4902 432.635 57.4402V56.2652H434.735V69.5152C434.735 70.6319 434.527 71.5069 434.11 72.1402C433.694 72.7736 433.069 73.2152 432.235 73.4652C431.402 73.7319 430.319 73.8652 428.985 73.8652ZM429.26 67.1152C430.444 67.1152 431.277 66.9736 431.76 66.6902C432.244 66.4069 432.485 65.8736 432.485 65.0902V59.6152C432.485 59.0652 432.394 58.6486 432.21 58.3652C432.044 58.0819 431.727 57.8819 431.26 57.7652C430.794 57.6319 430.11 57.5652 429.21 57.5652C428.36 57.5652 427.719 57.6236 427.285 57.7402C426.869 57.8569 426.577 58.0652 426.41 58.3652C426.26 58.6486 426.185 59.0652 426.185 59.6152V65.0902C426.185 65.6569 426.269 66.0819 426.435 66.3652C426.602 66.6486 426.902 66.8486 427.335 66.9652C427.769 67.0652 428.41 67.1152 429.26 67.1152ZM442.344 68.6152C441.06 68.6152 439.677 68.5152 438.194 68.3152V66.5902C440.144 66.9069 441.544 67.0652 442.394 67.0652C443.46 67.0652 444.227 66.9652 444.694 66.7652C445.16 66.5486 445.394 66.1569 445.394 65.5902V64.3652C445.394 63.8486 445.219 63.4819 444.869 63.2652C444.519 63.0486 443.952 62.9402 443.169 62.9402H441.794C440.544 62.9402 439.585 62.6819 438.919 62.1652C438.269 61.6486 437.944 60.9236 437.944 59.9902V58.8652C437.944 56.9652 439.744 56.0152 443.344 56.0152C443.61 56.0152 444.835 56.0819 447.019 56.2152V57.8402C445.535 57.6069 444.277 57.4902 443.244 57.4902C442.06 57.4902 441.252 57.6069 440.819 57.8402C440.385 58.0736 440.169 58.4652 440.169 59.0152V60.0402C440.169 60.8569 440.91 61.2652 442.394 61.2652H443.794C446.344 61.2652 447.619 62.2152 447.619 64.1152V65.1652C447.619 66.4152 447.185 67.3069 446.319 67.8402C445.452 68.3569 444.127 68.6152 442.344 68.6152ZM455.54 60.2402H473.99V62.0152H455.54V60.2402ZM482.861 56.2652H493.086V68.3652H490.836V57.9152H485.111V68.3652H482.861V56.2652ZM502.265 68.6152C501.198 68.6152 500.398 68.5736 499.865 68.4902C499.331 68.4236 498.798 68.2652 498.265 68.0152C497.715 67.7652 497.315 67.3652 497.065 66.8152C496.815 66.2486 496.69 65.4902 496.69 64.5402V60.3402C496.69 59.5902 496.781 58.9319 496.965 58.3652C497.148 57.7986 497.39 57.3569 497.69 57.0402C497.94 56.7569 498.315 56.5402 498.815 56.3902C499.331 56.2236 499.856 56.1152 500.39 56.0652C500.99 56.0319 501.615 56.0152 502.265 56.0152C503.131 56.0152 503.781 56.0402 504.215 56.0902C504.665 56.1236 505.14 56.2069 505.64 56.3402C506.156 56.4902 506.556 56.7152 506.84 57.0152C507.123 57.3152 507.365 57.7486 507.565 58.3152C507.748 58.8986 507.84 59.5736 507.84 60.3402V64.5402C507.84 65.9569 507.515 66.9902 506.865 67.6402C506.598 67.9069 506.215 68.1152 505.715 68.2652C505.215 68.4152 504.698 68.5152 504.165 68.5652C503.531 68.5986 502.898 68.6152 502.265 68.6152ZM502.265 67.1402C502.965 67.1402 503.473 67.1236 503.79 67.0902C504.106 67.0569 504.415 66.9652 504.715 66.8152C505.015 66.6819 505.223 66.4652 505.34 66.1652C505.473 65.8486 505.54 65.4152 505.54 64.8652V59.9652C505.54 59.2152 505.448 58.6736 505.265 58.3402C505.081 57.9902 504.765 57.7652 504.315 57.6652C503.881 57.5486 503.198 57.4902 502.265 57.4902C501.331 57.4902 500.64 57.5486 500.19 57.6652C499.756 57.7652 499.448 57.9902 499.265 58.3402C499.081 58.6736 498.99 59.2152 498.99 59.9652V64.8652C498.99 65.4152 499.048 65.8486 499.165 66.1652C499.298 66.4652 499.515 66.6819 499.815 66.8152C500.115 66.9652 500.423 67.0569 500.74 67.0902C501.056 67.1236 501.565 67.1402 502.265 67.1402ZM514.049 68.6152C513.065 68.6152 511.932 68.4736 510.649 68.1902V66.4152C511.899 66.7819 513.032 66.9652 514.049 66.9652C515.199 66.9652 516.04 66.8402 516.574 66.5902C517.107 66.3236 517.374 65.8236 517.374 65.0902V64.3152C517.374 63.6986 517.099 63.2902 516.549 63.0902C516.015 62.8736 515.257 62.7652 514.274 62.7652H512.899V61.2152H513.849C514.865 61.2152 515.64 61.0986 516.174 60.8652C516.707 60.6319 516.974 60.2152 516.974 59.6152V58.8652C516.974 57.9986 515.974 57.5652 513.974 57.5652C512.924 57.5652 511.899 57.6652 510.899 57.8652V56.2402C511.849 56.0902 512.865 56.0152 513.949 56.0152C515.232 56.0152 516.232 56.0819 516.949 56.2152C517.665 56.3486 518.224 56.5986 518.624 56.9652C519.04 57.3319 519.249 57.9236 519.249 58.7402V59.7152C519.249 60.2486 519.049 60.6902 518.649 61.0402C518.265 61.3736 517.765 61.5902 517.149 61.6902V61.7902C518.865 62.0569 519.724 62.7986 519.724 64.0152V65.2652C519.724 65.8319 519.607 66.3402 519.374 66.7902C519.157 67.2236 518.865 67.5569 518.499 67.7902C517.999 68.1069 517.365 68.3236 516.599 68.4402C515.849 68.5569 514.999 68.6152 514.049 68.6152ZM533.965 56.2652V68.3652H531.715V59.4402L525.415 68.3652H523.165V56.2652H525.415V65.4902L531.84 56.2652H533.965ZM548.262 68.3652H538.012V56.2652H540.262V66.7152H546.237V56.2652H548.487V66.7152H550.187V71.4652H548.262V68.3652ZM563.677 56.2652V68.3652H561.427V59.4402L555.127 68.3652H552.877V56.2652H555.127V65.4902L561.552 56.2652H563.677ZM577.324 56.2652V68.3652H575.074V64.0152H572.424L569.349 68.3652H566.374L570.074 63.5902C569.124 63.4402 568.433 63.1319 567.999 62.6652C567.583 62.1819 567.374 61.5236 567.374 60.6902V59.3902C567.374 58.5236 567.491 57.8736 567.724 57.4402C567.974 57.0069 568.391 56.7069 568.974 56.5402C569.558 56.3569 570.424 56.2652 571.574 56.2652H577.324ZM575.074 57.8152H571.799C571.183 57.8152 570.724 57.8652 570.424 57.9652C570.124 58.0652 569.916 58.2402 569.799 58.4902C569.699 58.7402 569.649 59.1069 569.649 59.5902V60.4402C569.649 61.0902 569.799 61.5902 570.099 61.9402C570.416 62.2902 570.891 62.4652 571.524 62.4652H575.074V57.8152ZM592.245 64.6652C592.245 63.7652 592.495 62.9819 592.995 62.3152C593.495 61.6486 594.145 61.1402 594.945 60.7902C595.579 60.5069 596.32 60.2236 597.17 59.9402C598.02 59.6569 598.679 59.3569 599.145 59.0402C599.612 58.7236 599.845 58.3486 599.845 57.9152V55.8402C599.845 55.3236 599.637 54.9819 599.22 54.8152C598.77 54.6319 598.07 54.5402 597.12 54.5402C595.97 54.5402 594.454 54.7486 592.57 55.1652V52.4152C594.237 52.0652 595.979 51.8902 597.795 51.8902C599.762 51.8902 601.22 52.1902 602.17 52.7902C603.137 53.3902 603.62 54.3902 603.62 55.7902V58.0402C603.62 58.8902 603.362 59.6319 602.845 60.2652C602.345 60.8819 601.695 61.3486 600.895 61.6652C600.145 61.9819 599.379 62.2652 598.595 62.5152C597.745 62.8152 597.07 63.1486 596.57 63.5152C596.087 63.8819 595.845 64.3152 595.845 64.8152V65.6402H603.645V68.3652H592.245V64.6652ZM611.922 68.6152C610.522 68.6152 608.706 68.4902 606.472 68.2402V65.3402L607.272 65.4902C607.589 65.5569 607.764 65.5986 607.797 65.6152L608.647 65.7652C608.847 65.7986 609.272 65.8486 609.922 65.9152C610.422 65.9652 610.931 65.9902 611.447 65.9902C612.414 65.9902 613.081 65.8736 613.447 65.6402C613.831 65.4069 614.022 64.9652 614.022 64.3152V62.4402C614.022 61.6569 613.181 61.2652 611.497 61.2652H608.547V58.7652H611.497C612.797 58.7652 613.447 58.2902 613.447 57.3402V55.7652C613.447 55.4152 613.381 55.1486 613.247 54.9652C613.114 54.7652 612.872 54.6236 612.522 54.5402C612.189 54.4569 611.689 54.4152 611.022 54.4152C610.072 54.4152 608.606 54.5152 606.622 54.7152V52.1152C608.889 51.9652 610.489 51.8902 611.422 51.8902C613.456 51.8902 614.922 52.1236 615.822 52.5902C616.739 53.0569 617.197 53.8819 617.197 55.0652V57.7402C617.197 58.2236 617.047 58.6402 616.747 58.9902C616.464 59.3236 616.097 59.5486 615.647 59.6652C617.114 60.1819 617.847 60.9902 617.847 62.0902V64.7402C617.847 66.1236 617.372 67.1152 616.422 67.7152C615.472 68.3152 613.972 68.6152 611.922 68.6152ZM626.349 55.9652L621.924 58.4152V55.3402L627.049 52.1402H629.999V68.3652H626.349V55.9652ZM654.175 51.8902H656.35L648.25 68.6152H646.075L654.175 51.8902ZM668.903 55.9652L664.478 58.4152V55.3402L669.603 52.1402H672.553V68.3652H668.903V55.9652ZM684.08 68.6152C683.346 68.6152 682.746 68.5902 682.28 68.5402C681.813 68.4902 681.305 68.3902 680.755 68.2402C680.188 68.0736 679.73 67.8402 679.38 67.5402C679.03 67.2236 678.738 66.7736 678.505 66.1902C678.255 65.6236 678.13 64.9402 678.13 64.1402V56.3652C678.13 55.5986 678.246 54.9236 678.48 54.3402C678.713 53.7569 679.013 53.2986 679.38 52.9652C679.696 52.6819 680.13 52.4569 680.68 52.2902C681.23 52.1069 681.78 51.9902 682.33 51.9402C682.963 51.9069 683.546 51.8902 684.08 51.8902C684.83 51.8902 685.43 51.9152 685.88 51.9652C686.33 51.9986 686.83 52.0986 687.38 52.2652C687.98 52.4486 688.455 52.6902 688.805 52.9902C689.155 53.2902 689.455 53.7236 689.705 54.2902C689.955 54.8569 690.08 55.5486 690.08 56.3652V64.1402C690.08 64.9069 689.955 65.5819 689.705 66.1652C689.471 66.7486 689.171 67.1986 688.805 67.5152C688.471 67.7986 688.013 68.0319 687.43 68.2152C686.863 68.3986 686.321 68.5069 685.805 68.5402C685.338 68.5902 684.763 68.6152 684.08 68.6152ZM684.13 66.2652C684.83 66.2652 685.33 66.2236 685.63 66.1402C685.93 66.0402 686.13 65.8652 686.23 65.6152C686.33 65.3652 686.38 64.9569 686.38 64.3902V56.1152C686.38 55.5486 686.33 55.1402 686.23 54.8902C686.13 54.6402 685.93 54.4736 685.63 54.3902C685.33 54.2902 684.83 54.2402 684.13 54.2402C683.413 54.2402 682.896 54.2902 682.58 54.3902C682.28 54.4736 682.08 54.6402 681.98 54.8902C681.88 55.1402 681.83 55.5486 681.83 56.1152V64.3902C681.83 64.9569 681.88 65.3652 681.98 65.6152C682.08 65.8652 682.28 66.0402 682.58 66.1402C682.896 66.2236 683.413 66.2652 684.13 66.2652ZM698.582 68.6152C697.848 68.6152 697.248 68.5902 696.782 68.5402C696.315 68.4902 695.807 68.3902 695.257 68.2402C694.69 68.0736 694.232 67.8402 693.882 67.5402C693.532 67.2236 693.24 66.7736 693.007 66.1902C692.757 65.6236 692.632 64.9402 692.632 64.1402V56.3652C692.632 55.5986 692.748 54.9236 692.982 54.3402C693.215 53.7569 693.515 53.2986 693.882 52.9652C694.198 52.6819 694.632 52.4569 695.182 52.2902C695.732 52.1069 696.282 51.9902 696.832 51.9402C697.465 51.9069 698.048 51.8902 698.582 51.8902C699.332 51.8902 699.932 51.9152 700.382 51.9652C700.832 51.9986 701.332 52.0986 701.882 52.2652C702.482 52.4486 702.957 52.6902 703.307 52.9902C703.657 53.2902 703.957 53.7236 704.207 54.2902C704.457 54.8569 704.582 55.5486 704.582 56.3652V64.1402C704.582 64.9069 704.457 65.5819 704.207 66.1652C703.973 66.7486 703.673 67.1986 703.307 67.5152C702.973 67.7986 702.515 68.0319 701.932 68.2152C701.365 68.3986 700.823 68.5069 700.307 68.5402C699.84 68.5902 699.265 68.6152 698.582 68.6152ZM698.632 66.2652C699.332 66.2652 699.832 66.2236 700.132 66.1402C700.432 66.0402 700.632 65.8652 700.732 65.6152C700.832 65.3652 700.882 64.9569 700.882 64.3902V56.1152C700.882 55.5486 700.832 55.1402 700.732 54.8902C700.632 54.6402 700.432 54.4736 700.132 54.3902C699.832 54.2902 699.332 54.2402 698.632 54.2402C697.915 54.2402 697.398 54.2902 697.082 54.3902C696.782 54.4736 696.582 54.6402 696.482 54.8902C696.382 55.1402 696.332 55.5486 696.332 56.1152V64.3902C696.332 64.9569 696.382 65.3652 696.482 65.6152C696.582 65.8652 696.782 66.0402 697.082 66.1402C697.398 66.2236 697.915 66.2652 698.632 66.2652ZM707.309 64.6652C707.309 63.7652 707.559 62.9819 708.059 62.3152C708.559 61.6486 709.209 61.1402 710.009 60.7902C710.642 60.5069 711.384 60.2236 712.234 59.9402C713.084 59.6569 713.742 59.3569 714.209 59.0402C714.675 58.7236 714.909 58.3486 714.909 57.9152V55.8402C714.909 55.3236 714.7 54.9819 714.284 54.8152C713.834 54.6319 713.134 54.5402 712.184 54.5402C711.034 54.5402 709.517 54.7486 707.634 55.1652V52.4152C709.3 52.0652 711.042 51.8902 712.859 51.8902C714.825 51.8902 716.284 52.1902 717.234 52.7902C718.2 53.3902 718.684 54.3902 718.684 55.7902V58.0402C718.684 58.8902 718.425 59.6319 717.909 60.2652C717.409 60.8819 716.759 61.3486 715.959 61.6652C715.209 61.9819 714.442 62.2652 713.659 62.5152C712.809 62.8152 712.134 63.1486 711.634 63.5152C711.15 63.8819 710.909 64.3152 710.909 64.8152V65.6402H718.709V68.3652H707.309V64.6652Z" fill="#010F2C"/>
<path d="M1109.11 126.118L1115.83 116.518H1078.15C1084.39 111.558 1110.47 96.4379 1110.63 84.6779C1110.95 63.6379 1072.79 63.5579 1064.39 81.8779H1066.79C1073.59 68.3579 1097.75 68.9179 1097.83 84.1179C1097.91 100.358 1077.35 111.878 1063.27 126.118H1109.11ZM1165.73 70.1179H1130.69L1123.97 79.7179H1156.45L1143.57 98.1179C1170.69 98.1179 1162.13 125.078 1143.09 125.318C1137.49 125.318 1125.81 123.798 1120.29 114.918H1117.89C1123.09 124.198 1135.25 127.718 1143.09 127.718C1180.69 127.718 1183.09 93.4779 1151.89 90.0379L1165.73 70.1179ZM1208.94 70.1179H1174.3V72.5179H1196.94V126.118H1208.94V70.1179Z" fill="#0A0A09"/>
<rect x="1286.38" y="0.915771" width="33.618" height="190.831" rx="16.809" fill="#C4C4C4"/>
</svg>
