<svg width="1320" height="192" viewBox="0 0 1320 192" fill="none" xmlns="http://www.w3.org/2000/svg">
<path fill-rule="evenodd" clip-rule="evenodd" d="M1284.84 19.6572C1286.41 15.4854 1286.41 11.5094 1286.41 11.5094L1288.37 19.6572H1303.19V170.191H1289.66L1286.88 181.741C1286.88 181.741 1286.88 175.282 1283.61 170.191H75.2668C33.6981 170.191 0 136.493 0 94.924C0 53.3553 33.6981 19.6572 75.2668 19.6572H1284.84Z" fill="#DCDCDC"/>
<path d="M0 94.9241C0 53.3553 33.6981 19.6572 75.2668 19.6572H661.384V170.191H75.2668C33.6981 170.191 0 136.493 0 94.9241Z" fill="#F6BABA"/>
<path d="M5 94.9241C5 56.1168 36.4595 24.6572 75.2668 24.6572H656.384V165.191H75.2668C36.4595 165.191 5 133.731 5 94.9241Z" stroke="#DCDCDC" stroke-opacity="0.94" stroke-width="10"/>
<path opacity="0.1" fill-rule="evenodd" clip-rule="evenodd" d="M1285.36 170.514C1293.27 175.682 1286.81 168.576 1286.81 168.576V163.733C1294.88 163.731 1299.17 163.73 1299.17 163.73L1294.58 160.731C1294.35 160.577 1294.12 160.406 1293.91 160.219C1291.72 158.27 1289.34 156.583 1286.81 155.178V154.685L1286.27 154.879C1280.53 151.805 1274.09 150.163 1267.48 150.163H1267.04H111.978C102.585 150.163 93.2003 148.996 84.3847 145.754C74.2914 142.042 60.8146 136.169 52.4045 128.842C48.8879 125.779 46.1773 123.496 43.9696 121.637C36.8661 115.654 34.9687 114.056 28.1798 104.938C17.499 90.5925 11.8652 87.1711 10.8764 105.907C10.3502 115.877 15.638 126.296 22.4493 134.647C32.5948 147.085 47.3145 156.732 63.143 159.397C71.6857 160.835 80.1831 161.168 84.3839 161.333C85.7164 161.385 86.6167 161.421 86.9489 161.469C91.3983 162.115 101.286 163.407 107.219 163.73C112.563 164.021 1075.75 163.788 1266.55 163.739C1271.29 164.741 1279.87 166.928 1285.36 170.514Z" fill="black"/>
<path opacity="0.4" fill-rule="evenodd" clip-rule="evenodd" d="M1285.42 19.3343C1293.33 14.1658 1286.88 21.2725 1286.88 21.2725V31.3202L1287.35 31.4377C1288.88 31.8212 1289.41 33.7313 1288.29 34.8492C1288.01 35.1273 1287.66 35.3188 1287.28 35.4005L1272.54 38.5313C1268.92 39.2987 1265.24 39.6856 1261.55 39.6856H222.172C209.598 39.6856 196.92 37.6586 184.309 35.6425C177.657 34.579 171.023 33.5184 164.433 32.76C156.821 31.884 147.425 31.2866 135.955 31.2866C132.229 31.2866 126.493 31.2383 119.96 31.1833C103.735 31.0467 82.5951 30.8687 75.1461 31.2866C59.4779 32.1658 54.5308 32.6633 54.4928 32.4134C54.4721 32.2777 55.899 31.9217 57.8427 31.2866C63.2894 29.5072 72.9555 29.1062 79.9004 28.8181C83.0413 28.6878 85.6257 28.5806 87.0113 28.3794C89.5847 28.0057 118.782 28.1723 144.094 28.3167C162.548 28.422 178.937 28.5155 181.438 28.3793C187.371 28.0563 1052.54 29.3484 1052.54 29.3484L1265.17 26.4031C1269.39 25.5806 1279.32 23.3234 1285.42 19.3343Z" fill="white"/>
<rect x="92.9438" y="39.2302" width="911.64" height="81.0787" rx="7" fill="#F3F3F3"/>
<path d="M120.212 95.6235H120.872C122.445 95.6235 123.672 96.0435 124.552 96.8835C125.432 97.7102 125.872 98.8235 125.872 100.224C125.872 101.197 125.658 102.064 125.232 102.824C124.805 103.57 124.225 104.15 123.492 104.564C122.758 104.964 121.938 105.164 121.032 105.164H120.872V110.624H120.212V95.6235ZM121.072 104.584C122.285 104.584 123.278 104.21 124.052 103.464C124.825 102.704 125.212 101.637 125.212 100.264C125.212 98.9569 124.845 97.9569 124.112 97.2635C123.392 96.5569 122.365 96.2035 121.032 96.2035H120.872V104.584H121.072ZM131.124 110.844C130.271 110.844 129.478 110.63 128.744 110.204C128.011 109.777 127.431 109.204 127.004 108.484C126.578 107.75 126.364 106.964 126.364 106.124C126.364 105.284 126.578 104.504 127.004 103.784C127.431 103.05 128.011 102.47 128.744 102.044C129.478 101.617 130.271 101.404 131.124 101.404C131.991 101.404 132.811 101.637 133.584 102.104C134.358 102.557 134.898 103.15 135.204 103.884V101.624H135.844V110.624H135.204V108.384C134.844 109.13 134.284 109.73 133.524 110.184C132.778 110.624 131.978 110.844 131.124 110.844ZM131.164 110.284C131.898 110.284 132.578 110.097 133.204 109.724C133.831 109.337 134.324 108.83 134.684 108.204C135.058 107.564 135.244 106.87 135.244 106.124C135.244 105.39 135.058 104.704 134.684 104.064C134.311 103.424 133.811 102.917 133.184 102.544C132.558 102.157 131.878 101.964 131.144 101.964C130.411 101.964 129.724 102.157 129.084 102.544C128.458 102.93 127.951 103.444 127.564 104.084C127.191 104.724 127.004 105.41 127.004 106.144C127.004 106.877 127.191 107.564 127.564 108.204C127.951 108.83 128.464 109.337 129.104 109.724C129.744 110.097 130.431 110.284 131.164 110.284ZM142.609 110.884C141.742 110.884 140.942 110.677 140.209 110.264C139.489 109.85 138.915 109.284 138.489 108.564C138.062 107.844 137.849 107.03 137.849 106.124C137.849 105.284 138.062 104.51 138.489 103.804C138.915 103.084 139.495 102.51 140.229 102.084C140.975 101.657 141.795 101.444 142.689 101.444C143.435 101.444 144.075 101.564 144.609 101.804C145.142 102.044 145.662 102.417 146.169 102.924V104.004C145.729 103.35 145.235 102.857 144.689 102.524C144.155 102.177 143.489 102.004 142.689 102.004C141.955 102.004 141.262 102.197 140.609 102.584C139.969 102.957 139.455 103.464 139.069 104.104C138.682 104.744 138.489 105.43 138.489 106.164C138.489 106.964 138.675 107.684 139.049 108.324C139.422 108.95 139.922 109.444 140.549 109.804C141.189 110.15 141.875 110.324 142.609 110.324C144.102 110.324 145.289 109.65 146.169 108.304V109.384C145.689 109.89 145.155 110.27 144.569 110.524C143.995 110.764 143.342 110.884 142.609 110.884ZM152.374 110.884C151.508 110.884 150.708 110.677 149.974 110.264C149.254 109.85 148.681 109.284 148.254 108.564C147.828 107.844 147.614 107.03 147.614 106.124C147.614 105.284 147.828 104.51 148.254 103.804C148.681 103.084 149.261 102.51 149.994 102.084C150.741 101.657 151.561 101.444 152.454 101.444C153.201 101.444 153.841 101.564 154.374 101.804C154.908 102.044 155.428 102.417 155.934 102.924V104.004C155.494 103.35 155.001 102.857 154.454 102.524C153.921 102.177 153.254 102.004 152.454 102.004C151.721 102.004 151.028 102.197 150.374 102.584C149.734 102.957 149.221 103.464 148.834 104.104C148.448 104.744 148.254 105.43 148.254 106.164C148.254 106.964 148.441 107.684 148.814 108.324C149.188 108.95 149.688 109.444 150.314 109.804C150.954 110.15 151.641 110.324 152.374 110.324C153.868 110.324 155.054 109.65 155.934 108.304V109.384C155.454 109.89 154.921 110.27 154.334 110.524C153.761 110.764 153.108 110.884 152.374 110.884ZM163.025 105.984C162.798 106.437 162.405 106.824 161.845 107.144C161.285 107.45 160.705 107.604 160.105 107.604C159.198 107.604 158.491 107.31 157.985 106.724C157.491 106.137 157.245 105.304 157.245 104.224V101.624H157.885V104.364C157.885 105.204 158.085 105.857 158.485 106.324C158.885 106.777 159.451 107.004 160.185 107.004C160.705 107.004 161.178 106.89 161.605 106.664C162.045 106.424 162.391 106.104 162.645 105.704C162.898 105.29 163.025 104.844 163.025 104.364V101.624H163.665V110.624H163.025V105.984ZM166.656 101.624H167.276V109.724L173.736 101.624H174.316V110.624H173.696V102.544L167.216 110.624H166.656V101.624ZM179.56 102.204H176.12V101.644H183.64V102.204H180.2V110.624H179.56V102.204ZM185.445 101.624H186.085V104.724H187.065C187.998 104.724 188.718 104.984 189.225 105.504C189.731 106.01 189.985 106.737 189.985 107.684C189.985 108.217 189.851 108.71 189.585 109.164C189.318 109.617 188.958 109.977 188.505 110.244C188.051 110.497 187.551 110.624 187.005 110.624H185.445V101.624ZM191.765 101.624H192.385V110.624H191.765V101.624ZM187.025 110.084C187.678 110.084 188.231 109.85 188.685 109.384C189.138 108.917 189.365 108.35 189.365 107.684C189.365 106.91 189.158 106.317 188.745 105.904C188.345 105.477 187.771 105.264 187.025 105.264H186.085V110.084H187.025ZM195.386 101.624H197.626C198.173 101.624 198.599 101.79 198.906 102.124C199.213 102.444 199.366 102.85 199.366 103.344C199.366 104.104 199.039 104.63 198.386 104.924C199.093 105.044 199.619 105.33 199.966 105.784C200.313 106.237 200.486 106.904 200.486 107.784C200.486 108.304 200.359 108.784 200.106 109.224C199.866 109.65 199.526 109.99 199.086 110.244C198.659 110.497 198.186 110.624 197.666 110.624H195.386V101.624ZM197.526 104.724C197.913 104.724 198.206 104.61 198.406 104.384C198.619 104.144 198.726 103.797 198.726 103.344C198.726 102.957 198.619 102.664 198.406 102.464C198.193 102.264 197.886 102.164 197.486 102.164H196.026V104.724H197.526ZM197.706 110.084C198.306 110.084 198.813 109.857 199.226 109.404C199.639 108.937 199.846 108.37 199.846 107.704C199.846 106.917 199.639 106.317 199.226 105.904C198.826 105.477 198.253 105.264 197.506 105.264H196.026V110.084H197.706ZM206.73 110.844C205.876 110.844 205.083 110.63 204.35 110.204C203.616 109.777 203.036 109.204 202.61 108.484C202.183 107.75 201.97 106.964 201.97 106.124C201.97 105.284 202.183 104.504 202.61 103.784C203.036 103.05 203.616 102.47 204.35 102.044C205.083 101.617 205.876 101.404 206.73 101.404C207.596 101.404 208.416 101.637 209.19 102.104C209.963 102.557 210.503 103.15 210.81 103.884V101.624H211.45V110.624H210.81V108.384C210.45 109.13 209.89 109.73 209.13 110.184C208.383 110.624 207.583 110.844 206.73 110.844ZM206.77 110.284C207.503 110.284 208.183 110.097 208.81 109.724C209.436 109.337 209.93 108.83 210.29 108.204C210.663 107.564 210.85 106.87 210.85 106.124C210.85 105.39 210.663 104.704 210.29 104.064C209.916 103.424 209.416 102.917 208.79 102.544C208.163 102.157 207.483 101.964 206.75 101.964C206.016 101.964 205.33 102.157 204.69 102.544C204.063 102.93 203.556 103.444 203.17 104.084C202.796 104.724 202.61 105.41 202.61 106.144C202.61 106.877 202.796 107.564 203.17 108.204C203.556 108.83 204.07 109.337 204.71 109.724C205.35 110.097 206.036 110.284 206.77 110.284ZM218.354 110.304C219.048 110.304 219.708 110.124 220.334 109.764C220.961 109.404 221.481 108.91 221.894 108.284V109.304C221.401 109.85 220.861 110.25 220.274 110.504C219.688 110.744 219.021 110.864 218.274 110.864C217.448 110.864 216.668 110.644 215.934 110.204C215.214 109.764 214.634 109.177 214.194 108.444C213.768 107.71 213.554 106.93 213.554 106.104C213.554 105.21 213.768 104.41 214.194 103.704C214.621 102.984 215.201 102.424 215.934 102.024C216.681 101.624 217.508 101.424 218.414 101.424C219.801 101.424 220.981 101.97 221.954 103.064L215.674 109.264C216.114 109.624 216.541 109.89 216.954 110.064C217.368 110.224 217.834 110.304 218.354 110.304ZM214.194 106.044C214.194 107.15 214.561 108.097 215.294 108.884L221.154 103.064C220.714 102.677 220.288 102.404 219.874 102.244C219.461 102.07 218.968 101.984 218.394 101.984C217.581 101.984 216.854 102.164 216.214 102.524C215.588 102.87 215.094 103.35 214.734 103.964C214.374 104.577 214.194 105.27 214.194 106.044ZM226.435 102.204H222.995V101.644H230.515V102.204H227.075V110.624H226.435V102.204ZM240.754 110.944C239.848 110.944 239.028 110.724 238.294 110.284C237.561 109.83 236.988 109.237 236.574 108.504C236.161 107.757 235.954 106.95 235.954 106.084C235.954 105.23 236.161 104.437 236.574 103.704C237.001 102.97 237.574 102.39 238.294 101.964C239.028 101.524 239.841 101.304 240.734 101.304C241.614 101.304 242.414 101.524 243.134 101.964C243.868 102.39 244.441 102.97 244.854 103.704C245.268 104.437 245.474 105.23 245.474 106.084C245.474 106.977 245.274 107.797 244.874 108.544C244.474 109.277 243.914 109.864 243.194 110.304C242.488 110.73 241.674 110.944 240.754 110.944ZM240.754 110.384C241.514 110.384 242.208 110.19 242.834 109.804C243.461 109.417 243.948 108.904 244.294 108.264C244.654 107.61 244.834 106.897 244.834 106.124C244.834 105.364 244.654 104.657 244.294 104.004C243.934 103.35 243.441 102.83 242.814 102.444C242.188 102.057 241.494 101.864 240.734 101.864C239.974 101.864 239.274 102.064 238.634 102.464C238.008 102.85 237.508 103.37 237.134 104.024C236.774 104.677 236.594 105.384 236.594 106.144C236.594 106.904 236.774 107.61 237.134 108.264C237.508 108.904 238.008 109.417 238.634 109.804C239.274 110.19 239.981 110.384 240.754 110.384ZM247.515 101.624H254.755V110.624H254.115V102.184H248.155V110.624H247.515V101.624ZM259.989 102.204H256.549V101.644H264.069V102.204H260.629V110.624H259.989V102.204ZM265.874 101.624H266.494V109.724L272.954 101.624H273.534V110.624H272.914V102.544L266.434 110.624H265.874V101.624ZM285.798 101.624V110.624H285.158V103.004L281.138 110.864L277.098 102.724V110.624H276.538V101.624H277.258L281.198 109.584L285.198 101.624H285.798ZM292.804 110.844C291.951 110.844 291.157 110.63 290.424 110.204C289.691 109.777 289.111 109.204 288.684 108.484C288.257 107.75 288.044 106.964 288.044 106.124C288.044 105.284 288.257 104.504 288.684 103.784C289.111 103.05 289.691 102.47 290.424 102.044C291.157 101.617 291.951 101.404 292.804 101.404C293.671 101.404 294.491 101.637 295.264 102.104C296.037 102.557 296.577 103.15 296.884 103.884V101.624H297.524V110.624H296.884V108.384C296.524 109.13 295.964 109.73 295.204 110.184C294.457 110.624 293.657 110.844 292.804 110.844ZM292.844 110.284C293.577 110.284 294.257 110.097 294.884 109.724C295.511 109.337 296.004 108.83 296.364 108.204C296.737 107.564 296.924 106.87 296.924 106.124C296.924 105.39 296.737 104.704 296.364 104.064C295.991 103.424 295.491 102.917 294.864 102.544C294.237 102.157 293.557 101.964 292.824 101.964C292.091 101.964 291.404 102.157 290.764 102.544C290.137 102.93 289.631 103.444 289.244 104.084C288.871 104.724 288.684 105.41 288.684 106.144C288.684 106.877 288.871 107.564 289.244 108.204C289.631 108.83 290.144 109.337 290.784 109.724C291.424 110.097 292.111 110.284 292.844 110.284ZM307.148 110.624L303.388 102.804L299.628 110.624H298.988L303.408 101.364L307.848 110.624H307.148ZM309.546 101.624H310.186V104.724H311.166C312.1 104.724 312.82 104.984 313.326 105.504C313.833 106.01 314.086 106.737 314.086 107.684C314.086 108.217 313.953 108.71 313.686 109.164C313.42 109.617 313.06 109.977 312.606 110.244C312.153 110.497 311.653 110.624 311.106 110.624H309.546V101.624ZM311.126 110.084C311.78 110.084 312.333 109.85 312.786 109.384C313.24 108.917 313.466 108.35 313.466 107.684C313.466 106.91 313.26 106.317 312.846 105.904C312.446 105.477 311.873 105.264 311.126 105.264H310.186V110.084H311.126ZM316.382 101.624H317.022V106.684H323.122V101.624H323.762V110.624H323.122V107.244H317.022V110.624H316.382V101.624ZM330.793 110.944C329.887 110.944 329.067 110.724 328.333 110.284C327.6 109.83 327.027 109.237 326.613 108.504C326.2 107.757 325.993 106.95 325.993 106.084C325.993 105.23 326.2 104.437 326.613 103.704C327.04 102.97 327.613 102.39 328.333 101.964C329.067 101.524 329.88 101.304 330.773 101.304C331.653 101.304 332.453 101.524 333.173 101.964C333.907 102.39 334.48 102.97 334.893 103.704C335.307 104.437 335.513 105.23 335.513 106.084C335.513 106.977 335.313 107.797 334.913 108.544C334.513 109.277 333.953 109.864 333.233 110.304C332.527 110.73 331.713 110.944 330.793 110.944ZM330.793 110.384C331.553 110.384 332.247 110.19 332.873 109.804C333.5 109.417 333.987 108.904 334.333 108.264C334.693 107.61 334.873 106.897 334.873 106.124C334.873 105.364 334.693 104.657 334.333 104.004C333.973 103.35 333.48 102.83 332.853 102.444C332.227 102.057 331.533 101.864 330.773 101.864C330.013 101.864 329.313 102.064 328.673 102.464C328.047 102.85 327.547 103.37 327.173 104.024C326.813 104.677 326.633 105.384 326.633 106.144C326.633 106.904 326.813 107.61 327.173 108.264C327.547 108.904 328.047 109.417 328.673 109.804C329.313 110.19 330.02 110.384 330.793 110.384ZM341.889 110.304C342.583 110.304 343.243 110.124 343.869 109.764C344.496 109.404 345.016 108.91 345.429 108.284V109.304C344.936 109.85 344.396 110.25 343.809 110.504C343.223 110.744 342.556 110.864 341.809 110.864C340.983 110.864 340.203 110.644 339.469 110.204C338.749 109.764 338.169 109.177 337.729 108.444C337.303 107.71 337.089 106.93 337.089 106.104C337.089 105.21 337.303 104.41 337.729 103.704C338.156 102.984 338.736 102.424 339.469 102.024C340.216 101.624 341.043 101.424 341.949 101.424C343.336 101.424 344.516 101.97 345.489 103.064L339.209 109.264C339.649 109.624 340.076 109.89 340.489 110.064C340.903 110.224 341.369 110.304 341.889 110.304ZM337.729 106.044C337.729 107.15 338.096 108.097 338.829 108.884L344.689 103.064C344.249 102.677 343.823 102.404 343.409 102.244C342.996 102.07 342.503 101.984 341.929 101.984C341.116 101.984 340.389 102.164 339.749 102.524C339.123 102.87 338.629 103.35 338.269 103.964C337.909 104.577 337.729 105.27 337.729 106.044ZM356.124 110.884C355.258 110.884 354.458 110.677 353.724 110.264C353.004 109.85 352.431 109.284 352.004 108.564C351.578 107.844 351.364 107.03 351.364 106.124C351.364 105.284 351.578 104.51 352.004 103.804C352.431 103.084 353.011 102.51 353.744 102.084C354.491 101.657 355.311 101.444 356.204 101.444C356.951 101.444 357.591 101.564 358.124 101.804C358.658 102.044 359.178 102.417 359.684 102.924V104.004C359.244 103.35 358.751 102.857 358.204 102.524C357.671 102.177 357.004 102.004 356.204 102.004C355.471 102.004 354.778 102.197 354.124 102.584C353.484 102.957 352.971 103.464 352.584 104.104C352.198 104.744 352.004 105.43 352.004 106.164C352.004 106.964 352.191 107.684 352.564 108.324C352.938 108.95 353.438 109.444 354.064 109.804C354.704 110.15 355.391 110.324 356.124 110.324C357.618 110.324 358.804 109.65 359.684 108.304V109.384C359.204 109.89 358.671 110.27 358.084 110.524C357.511 110.764 356.858 110.884 356.124 110.884ZM365.93 110.944C365.023 110.944 364.203 110.724 363.47 110.284C362.737 109.83 362.163 109.237 361.75 108.504C361.337 107.757 361.13 106.95 361.13 106.084C361.13 105.23 361.337 104.437 361.75 103.704C362.177 102.97 362.75 102.39 363.47 101.964C364.203 101.524 365.017 101.304 365.91 101.304C366.79 101.304 367.59 101.524 368.31 101.964C369.043 102.39 369.617 102.97 370.03 103.704C370.443 104.437 370.65 105.23 370.65 106.084C370.65 106.977 370.45 107.797 370.05 108.544C369.65 109.277 369.09 109.864 368.37 110.304C367.663 110.73 366.85 110.944 365.93 110.944ZM365.93 110.384C366.69 110.384 367.383 110.19 368.01 109.804C368.637 109.417 369.123 108.904 369.47 108.264C369.83 107.61 370.01 106.897 370.01 106.124C370.01 105.364 369.83 104.657 369.47 104.004C369.11 103.35 368.617 102.83 367.99 102.444C367.363 102.057 366.67 101.864 365.91 101.864C365.15 101.864 364.45 102.064 363.81 102.464C363.183 102.85 362.683 103.37 362.31 104.024C361.95 104.677 361.77 105.384 361.77 106.144C361.77 106.904 361.95 107.61 362.31 108.264C362.683 108.904 363.183 109.417 363.81 109.804C364.45 110.19 365.157 110.384 365.93 110.384ZM376.926 110.944C376.019 110.944 375.199 110.724 374.466 110.284C373.733 109.83 373.159 109.237 372.746 108.504C372.333 107.757 372.126 106.95 372.126 106.084C372.126 105.23 372.333 104.437 372.746 103.704C373.173 102.97 373.746 102.39 374.466 101.964C375.199 101.524 376.013 101.304 376.906 101.304C377.786 101.304 378.586 101.524 379.306 101.964C380.039 102.39 380.613 102.97 381.026 103.704C381.439 104.437 381.646 105.23 381.646 106.084C381.646 106.977 381.446 107.797 381.046 108.544C380.646 109.277 380.086 109.864 379.366 110.304C378.659 110.73 377.846 110.944 376.926 110.944ZM376.926 110.384C377.686 110.384 378.379 110.19 379.006 109.804C379.633 109.417 380.119 108.904 380.466 108.264C380.826 107.61 381.006 106.897 381.006 106.124C381.006 105.364 380.826 104.657 380.466 104.004C380.106 103.35 379.613 102.83 378.986 102.444C378.359 102.057 377.666 101.864 376.906 101.864C376.146 101.864 375.446 102.064 374.806 102.464C374.179 102.85 373.679 103.37 373.306 104.024C372.946 104.677 372.766 105.384 372.766 106.144C372.766 106.904 372.946 107.61 373.306 108.264C373.679 108.904 374.179 109.417 374.806 109.804C375.446 110.19 376.153 110.384 376.926 110.384ZM385.517 102.204H382.077V101.644H389.597V102.204H386.157V110.624H385.517V102.204ZM391.402 101.624H392.042V106.684H398.142V101.624H398.782V110.624H398.142V107.244H392.042V110.624H391.402V101.624ZM405.813 110.944C404.906 110.944 404.086 110.724 403.353 110.284C402.619 109.83 402.046 109.237 401.633 108.504C401.219 107.757 401.013 106.95 401.013 106.084C401.013 105.23 401.219 104.437 401.633 103.704C402.059 102.97 402.633 102.39 403.353 101.964C404.086 101.524 404.899 101.304 405.793 101.304C406.673 101.304 407.473 101.524 408.193 101.964C408.926 102.39 409.499 102.97 409.913 103.704C410.326 104.437 410.533 105.23 410.533 106.084C410.533 106.977 410.333 107.797 409.933 108.544C409.533 109.277 408.973 109.864 408.253 110.304C407.546 110.73 406.733 110.944 405.813 110.944ZM405.813 110.384C406.573 110.384 407.266 110.19 407.893 109.804C408.519 109.417 409.006 108.904 409.353 108.264C409.713 107.61 409.893 106.897 409.893 106.124C409.893 105.364 409.713 104.657 409.353 104.004C408.993 103.35 408.499 102.83 407.873 102.444C407.246 102.057 406.553 101.864 405.793 101.864C405.033 101.864 404.333 102.064 403.693 102.464C403.066 102.85 402.566 103.37 402.193 104.024C401.833 104.677 401.653 105.384 401.653 106.144C401.653 106.904 401.833 107.61 402.193 108.264C402.566 108.904 403.066 109.417 403.693 109.804C404.333 110.19 405.039 110.384 405.813 110.384ZM412.574 101.624H413.214V110.064H417.694V101.624H418.334V110.064H422.814V101.624H423.454V110.624H412.574V101.624ZM430.6 110.304C431.294 110.304 431.954 110.124 432.58 109.764C433.207 109.404 433.727 108.91 434.14 108.284V109.304C433.647 109.85 433.107 110.25 432.52 110.504C431.934 110.744 431.267 110.864 430.52 110.864C429.694 110.864 428.914 110.644 428.18 110.204C427.46 109.764 426.88 109.177 426.44 108.444C426.014 107.71 425.8 106.93 425.8 106.104C425.8 105.21 426.014 104.41 426.44 103.704C426.867 102.984 427.447 102.424 428.18 102.024C428.927 101.624 429.754 101.424 430.66 101.424C432.047 101.424 433.227 101.97 434.2 103.064L427.92 109.264C428.36 109.624 428.787 109.89 429.2 110.064C429.614 110.224 430.08 110.304 430.6 110.304ZM426.44 106.044C426.44 107.15 426.807 108.097 427.54 108.884L433.4 103.064C432.96 102.677 432.534 102.404 432.12 102.244C431.707 102.07 431.214 101.984 430.64 101.984C429.827 101.984 429.1 102.164 428.46 102.524C427.834 102.87 427.34 103.35 426.98 103.964C426.62 104.577 426.44 105.27 426.44 106.044ZM436.441 101.624H437.081V106.684H443.181V101.624H443.821V110.624H443.181V107.244H437.081V110.624H436.441V101.624ZM446.812 101.624H447.432V109.724L453.892 101.624H454.472V110.624H453.852V102.544L447.372 110.624H446.812V101.624ZM461.616 110.304C462.309 110.304 462.969 110.124 463.596 109.764C464.223 109.404 464.743 108.91 465.156 108.284V109.304C464.663 109.85 464.123 110.25 463.536 110.504C462.949 110.744 462.283 110.864 461.536 110.864C460.709 110.864 459.929 110.644 459.196 110.204C458.476 109.764 457.896 109.177 457.456 108.444C457.029 107.71 456.816 106.93 456.816 106.104C456.816 105.21 457.029 104.41 457.456 103.704C457.883 102.984 458.463 102.424 459.196 102.024C459.943 101.624 460.769 101.424 461.676 101.424C463.063 101.424 464.243 101.97 465.216 103.064L458.936 109.264C459.376 109.624 459.803 109.89 460.216 110.064C460.629 110.224 461.096 110.304 461.616 110.304ZM457.456 106.044C457.456 107.15 457.823 108.097 458.556 108.884L464.416 103.064C463.976 102.677 463.549 102.404 463.136 102.244C462.723 102.07 462.229 101.984 461.656 101.984C460.843 101.984 460.116 102.164 459.476 102.524C458.849 102.87 458.356 103.35 457.996 103.964C457.636 104.577 457.456 105.27 457.456 106.044ZM471.851 101.624H479.091V110.624H478.451V102.184H472.491V110.624H471.851V101.624ZM481.845 101.624H482.485V103.824C482.845 103.104 483.405 102.524 484.165 102.084C484.925 101.63 485.725 101.404 486.565 101.404C487.432 101.404 488.225 101.617 488.945 102.044C489.679 102.47 490.259 103.044 490.685 103.764C491.112 104.484 491.325 105.27 491.325 106.124C491.325 106.977 491.112 107.764 490.685 108.484C490.259 109.204 489.679 109.777 488.945 110.204C488.225 110.63 487.432 110.844 486.565 110.844C485.752 110.844 484.965 110.624 484.205 110.184C483.459 109.744 482.885 109.164 482.485 108.444V114.624H481.845V101.624ZM486.605 110.284C487.339 110.284 488.019 110.097 488.645 109.724C489.272 109.337 489.765 108.83 490.125 108.204C490.499 107.564 490.685 106.87 490.685 106.124C490.685 105.39 490.499 104.704 490.125 104.064C489.752 103.424 489.252 102.917 488.625 102.544C487.999 102.157 487.319 101.964 486.585 101.964C485.852 101.964 485.165 102.157 484.525 102.544C483.899 102.93 483.392 103.444 483.005 104.084C482.632 104.724 482.445 105.41 482.445 106.144C482.445 106.877 482.632 107.564 483.005 108.204C483.392 108.83 483.905 109.337 484.545 109.724C485.185 110.097 485.872 110.284 486.605 110.284ZM497.71 110.304C498.403 110.304 499.063 110.124 499.69 109.764C500.316 109.404 500.836 108.91 501.25 108.284V109.304C500.756 109.85 500.216 110.25 499.63 110.504C499.043 110.744 498.376 110.864 497.63 110.864C496.803 110.864 496.023 110.644 495.29 110.204C494.57 109.764 493.99 109.177 493.55 108.444C493.123 107.71 492.91 106.93 492.91 106.104C492.91 105.21 493.123 104.41 493.55 103.704C493.976 102.984 494.556 102.424 495.29 102.024C496.036 101.624 496.863 101.424 497.77 101.424C499.156 101.424 500.336 101.97 501.31 103.064L495.03 109.264C495.47 109.624 495.896 109.89 496.31 110.064C496.723 110.224 497.19 110.304 497.71 110.304ZM493.55 106.044C493.55 107.15 493.916 108.097 494.65 108.884L500.51 103.064C500.07 102.677 499.643 102.404 499.23 102.244C498.816 102.07 498.323 101.984 497.75 101.984C496.936 101.984 496.21 102.164 495.57 102.524C494.943 102.87 494.45 103.35 494.09 103.964C493.73 104.577 493.55 105.27 493.55 106.044ZM503.55 101.624H510.79V110.624H510.15V102.184H504.19V110.624H503.55V101.624ZM517.824 110.944C516.918 110.944 516.098 110.724 515.364 110.284C514.631 109.83 514.058 109.237 513.644 108.504C513.231 107.757 513.024 106.95 513.024 106.084C513.024 105.23 513.231 104.437 513.644 103.704C514.071 102.97 514.644 102.39 515.364 101.964C516.098 101.524 516.911 101.304 517.804 101.304C518.684 101.304 519.484 101.524 520.204 101.964C520.938 102.39 521.511 102.97 521.924 103.704C522.338 104.437 522.544 105.23 522.544 106.084C522.544 106.977 522.344 107.797 521.944 108.544C521.544 109.277 520.984 109.864 520.264 110.304C519.558 110.73 518.744 110.944 517.824 110.944ZM517.824 110.384C518.584 110.384 519.278 110.19 519.904 109.804C520.531 109.417 521.018 108.904 521.364 108.264C521.724 107.61 521.904 106.897 521.904 106.124C521.904 105.364 521.724 104.657 521.364 104.004C521.004 103.35 520.511 102.83 519.884 102.444C519.258 102.057 518.564 101.864 517.804 101.864C517.044 101.864 516.344 102.064 515.704 102.464C515.078 102.85 514.578 103.37 514.204 104.024C513.844 104.677 513.664 105.384 513.664 106.144C513.664 106.904 513.844 107.61 514.204 108.264C514.578 108.904 515.078 109.417 515.704 109.804C516.344 110.19 517.051 110.384 517.824 110.384ZM533.11 110.044V112.564H532.55V110.624H523.91V112.564H523.35V110.064H524.09L528.27 101.364L532.45 110.044H533.11ZM531.81 110.044L528.27 102.684L524.73 110.044H531.81ZM538.312 110.844C537.458 110.844 536.665 110.63 535.932 110.204C535.198 109.777 534.618 109.204 534.192 108.484C533.765 107.75 533.552 106.964 533.552 106.124C533.552 105.284 533.765 104.504 534.192 103.784C534.618 103.05 535.198 102.47 535.932 102.044C536.665 101.617 537.458 101.404 538.312 101.404C539.178 101.404 539.998 101.637 540.772 102.104C541.545 102.557 542.085 103.15 542.392 103.884V101.624H543.032V110.624H542.392V108.384C542.032 109.13 541.472 109.73 540.712 110.184C539.965 110.624 539.165 110.844 538.312 110.844ZM538.352 110.284C539.085 110.284 539.765 110.097 540.392 109.724C541.018 109.337 541.512 108.83 541.872 108.204C542.245 107.564 542.432 106.87 542.432 106.124C542.432 105.39 542.245 104.704 541.872 104.064C541.498 103.424 540.998 102.917 540.372 102.544C539.745 102.157 539.065 101.964 538.332 101.964C537.598 101.964 536.912 102.157 536.272 102.544C535.645 102.93 535.138 103.444 534.752 104.084C534.378 104.724 534.192 105.41 534.192 106.144C534.192 106.877 534.378 107.564 534.752 108.204C535.138 108.83 535.652 109.337 536.292 109.724C536.932 110.097 537.618 110.284 538.352 110.284ZM545.796 101.624H548.036C548.583 101.624 549.01 101.79 549.316 102.124C549.623 102.444 549.776 102.85 549.776 103.344C549.776 104.104 549.45 104.63 548.796 104.924C549.503 105.044 550.03 105.33 550.376 105.784C550.723 106.237 550.896 106.904 550.896 107.784C550.896 108.304 550.77 108.784 550.516 109.224C550.276 109.65 549.936 109.99 549.496 110.244C549.07 110.497 548.596 110.624 548.076 110.624H545.796V101.624ZM547.936 104.724C548.323 104.724 548.616 104.61 548.816 104.384C549.03 104.144 549.136 103.797 549.136 103.344C549.136 102.957 549.03 102.664 548.816 102.464C548.603 102.264 548.296 102.164 547.896 102.164H546.436V104.724H547.936ZM548.116 110.084C548.716 110.084 549.223 109.857 549.636 109.404C550.05 108.937 550.256 108.37 550.256 107.704C550.256 106.917 550.05 106.317 549.636 105.904C549.236 105.477 548.663 105.264 547.916 105.264H546.436V110.084H548.116ZM557.14 110.844C556.287 110.844 555.493 110.63 554.76 110.204C554.027 109.777 553.447 109.204 553.02 108.484C552.593 107.75 552.38 106.964 552.38 106.124C552.38 105.284 552.593 104.504 553.02 103.784C553.447 103.05 554.027 102.47 554.76 102.044C555.493 101.617 556.287 101.404 557.14 101.404C558.007 101.404 558.827 101.637 559.6 102.104C560.373 102.557 560.913 103.15 561.22 103.884V101.624H561.86V110.624H561.22V108.384C560.86 109.13 560.3 109.73 559.54 110.184C558.793 110.624 557.993 110.844 557.14 110.844ZM557.18 110.284C557.913 110.284 558.593 110.097 559.22 109.724C559.847 109.337 560.34 108.83 560.7 108.204C561.073 107.564 561.26 106.87 561.26 106.124C561.26 105.39 561.073 104.704 560.7 104.064C560.327 103.424 559.827 102.917 559.2 102.544C558.573 102.157 557.893 101.964 557.16 101.964C556.427 101.964 555.74 102.157 555.1 102.544C554.473 102.93 553.967 103.444 553.58 104.084C553.207 104.724 553.02 105.41 553.02 106.144C553.02 106.877 553.207 107.564 553.58 108.204C553.967 108.83 554.48 109.337 555.12 109.724C555.76 110.097 556.447 110.284 557.18 110.284ZM566.864 102.204H563.424V101.644H570.944V102.204H567.504V110.624H566.864V102.204ZM576.089 110.304C576.782 110.304 577.442 110.124 578.069 109.764C578.695 109.404 579.215 108.91 579.629 108.284V109.304C579.135 109.85 578.595 110.25 578.009 110.504C577.422 110.744 576.755 110.864 576.009 110.864C575.182 110.864 574.402 110.644 573.669 110.204C572.949 109.764 572.369 109.177 571.929 108.444C571.502 107.71 571.289 106.93 571.289 106.104C571.289 105.21 571.502 104.41 571.929 103.704C572.355 102.984 572.935 102.424 573.669 102.024C574.415 101.624 575.242 101.424 576.149 101.424C577.535 101.424 578.715 101.97 579.689 103.064L573.409 109.264C573.849 109.624 574.275 109.89 574.689 110.064C575.102 110.224 575.569 110.304 576.089 110.304ZM571.929 106.044C571.929 107.15 572.295 108.097 573.029 108.884L578.889 103.064C578.449 102.677 578.022 102.404 577.609 102.244C577.195 102.07 576.702 101.984 576.129 101.984C575.315 101.984 574.589 102.164 573.949 102.524C573.322 102.87 572.829 103.35 572.469 103.964C572.109 104.577 571.929 105.27 571.929 106.044ZM588.594 110.624L584.834 102.804L581.074 110.624H580.434L584.854 101.364L589.294 110.624H588.594ZM595.132 110.304C595.825 110.304 596.485 110.124 597.112 109.764C597.738 109.404 598.258 108.91 598.672 108.284V109.304C598.178 109.85 597.638 110.25 597.052 110.504C596.465 110.744 595.798 110.864 595.052 110.864C594.225 110.864 593.445 110.644 592.712 110.204C591.992 109.764 591.412 109.177 590.972 108.444C590.545 107.71 590.332 106.93 590.332 106.104C590.332 105.21 590.545 104.41 590.972 103.704C591.398 102.984 591.978 102.424 592.712 102.024C593.458 101.624 594.285 101.424 595.192 101.424C596.578 101.424 597.758 101.97 598.732 103.064L592.452 109.264C592.892 109.624 593.318 109.89 593.732 110.064C594.145 110.224 594.612 110.304 595.132 110.304ZM590.972 106.044C590.972 107.15 591.338 108.097 592.072 108.884L597.932 103.064C597.492 102.677 597.065 102.404 596.652 102.244C596.238 102.07 595.745 101.984 595.172 101.984C594.358 101.984 593.632 102.164 592.992 102.524C592.365 102.87 591.872 103.35 591.512 103.964C591.152 104.577 590.972 105.27 590.972 106.044ZM600.972 101.624H601.592V109.724L608.052 101.624H608.632V110.624H608.012V102.544L601.532 110.624H600.972V101.624ZM604.812 99.0435C603.919 99.0435 603.219 98.8235 602.712 98.3835C602.205 97.9435 601.939 97.3902 601.912 96.7235H602.472C602.512 97.2302 602.739 97.6502 603.152 97.9835C603.579 98.3169 604.125 98.4835 604.792 98.4835C605.445 98.4835 605.979 98.3169 606.392 97.9835C606.819 97.6502 607.065 97.2302 607.132 96.7235H607.692C607.665 97.3769 607.392 97.9302 606.872 98.3835C606.352 98.8235 605.665 99.0435 604.812 99.0435ZM616.031 101.624H616.651V109.724L623.111 101.624H623.691V110.624H623.071V102.544L616.591 110.624H616.031V101.624ZM635.089 110.884C634.223 110.884 633.423 110.677 632.689 110.264C631.969 109.85 631.396 109.284 630.969 108.564C630.543 107.844 630.329 107.03 630.329 106.124C630.329 105.284 630.543 104.51 630.969 103.804C631.396 103.084 631.976 102.51 632.709 102.084C633.456 101.657 634.276 101.444 635.169 101.444C635.916 101.444 636.556 101.564 637.089 101.804C637.623 102.044 638.143 102.417 638.649 102.924V104.004C638.209 103.35 637.716 102.857 637.169 102.524C636.636 102.177 635.969 102.004 635.169 102.004C634.436 102.004 633.743 102.197 633.089 102.584C632.449 102.957 631.936 103.464 631.549 104.104C631.163 104.744 630.969 105.43 630.969 106.164C630.969 106.964 631.156 107.684 631.529 108.324C631.903 108.95 632.403 109.444 633.029 109.804C633.669 110.15 634.356 110.324 635.089 110.324C636.583 110.324 637.769 109.65 638.649 108.304V109.384C638.169 109.89 637.636 110.27 637.049 110.524C636.476 110.764 635.823 110.884 635.089 110.884ZM642.899 102.204H639.459V101.644H646.979V102.204H643.539V110.624H642.899V102.204ZM652.075 110.604L647.775 101.624H648.455L652.415 109.884L656.355 101.624H656.975L650.795 114.624H650.175L652.075 110.604ZM665.883 110.044V112.564H665.323V110.624H656.683V112.564H656.123V110.064H656.863L661.043 101.364L665.223 110.044H665.883ZM664.583 110.044L661.043 102.684L657.503 110.044H664.583ZM671.635 110.304C672.329 110.304 672.989 110.124 673.615 109.764C674.242 109.404 674.762 108.91 675.175 108.284V109.304C674.682 109.85 674.142 110.25 673.555 110.504C672.969 110.744 672.302 110.864 671.555 110.864C670.729 110.864 669.949 110.644 669.215 110.204C668.495 109.764 667.915 109.177 667.475 108.444C667.049 107.71 666.835 106.93 666.835 106.104C666.835 105.21 667.049 104.41 667.475 103.704C667.902 102.984 668.482 102.424 669.215 102.024C669.962 101.624 670.789 101.424 671.695 101.424C673.082 101.424 674.262 101.97 675.235 103.064L668.955 109.264C669.395 109.624 669.822 109.89 670.235 110.064C670.649 110.224 671.115 110.304 671.635 110.304ZM667.475 106.044C667.475 107.15 667.842 108.097 668.575 108.884L674.435 103.064C673.995 102.677 673.569 102.404 673.155 102.244C672.742 102.07 672.249 101.984 671.675 101.984C670.862 101.984 670.135 102.164 669.495 102.524C668.869 102.87 668.375 103.35 668.015 103.964C667.655 104.577 667.475 105.27 667.475 106.044ZM677.476 101.624H678.116V106.684H684.216V101.624H684.856V110.624H684.216V107.244H678.116V110.624H677.476V101.624ZM690.087 102.204H686.647V101.644H694.167V102.204H690.727V110.624H690.087V102.204ZM699.211 110.944C698.305 110.944 697.485 110.724 696.751 110.284C696.018 109.83 695.445 109.237 695.031 108.504C694.618 107.757 694.411 106.95 694.411 106.084C694.411 105.23 694.618 104.437 695.031 103.704C695.458 102.97 696.031 102.39 696.751 101.964C697.485 101.524 698.298 101.304 699.191 101.304C700.071 101.304 700.871 101.524 701.591 101.964C702.325 102.39 702.898 102.97 703.311 103.704C703.725 104.437 703.931 105.23 703.931 106.084C703.931 106.977 703.731 107.797 703.331 108.544C702.931 109.277 702.371 109.864 701.651 110.304C700.945 110.73 700.131 110.944 699.211 110.944ZM699.211 110.384C699.971 110.384 700.665 110.19 701.291 109.804C701.918 109.417 702.405 108.904 702.751 108.264C703.111 107.61 703.291 106.897 703.291 106.124C703.291 105.364 703.111 104.657 702.751 104.004C702.391 103.35 701.898 102.83 701.271 102.444C700.645 102.057 699.951 101.864 699.191 101.864C698.431 101.864 697.731 102.064 697.091 102.464C696.465 102.85 695.965 103.37 695.591 104.024C695.231 104.677 695.051 105.384 695.051 106.144C695.051 106.904 695.231 107.61 695.591 108.264C695.965 108.904 696.465 109.417 697.091 109.804C697.731 110.19 698.438 110.384 699.211 110.384ZM705.972 101.624H708.212C708.759 101.624 709.185 101.79 709.492 102.124C709.799 102.444 709.952 102.85 709.952 103.344C709.952 104.104 709.625 104.63 708.972 104.924C709.679 105.044 710.205 105.33 710.552 105.784C710.899 106.237 711.072 106.904 711.072 107.784C711.072 108.304 710.945 108.784 710.692 109.224C710.452 109.65 710.112 109.99 709.672 110.244C709.245 110.497 708.772 110.624 708.252 110.624H705.972V101.624ZM708.112 104.724C708.499 104.724 708.792 104.61 708.992 104.384C709.205 104.144 709.312 103.797 709.312 103.344C709.312 102.957 709.205 102.664 708.992 102.464C708.779 102.264 708.472 102.164 708.072 102.164H706.612V104.724H708.112ZM708.292 110.084C708.892 110.084 709.399 109.857 709.812 109.404C710.225 108.937 710.432 108.37 710.432 107.704C710.432 106.917 710.225 106.317 709.812 105.904C709.412 105.477 708.839 105.264 708.092 105.264H706.612V110.084H708.292ZM713.196 110.804C713.009 110.804 712.842 110.737 712.696 110.604C712.562 110.47 712.496 110.304 712.496 110.104C712.496 109.917 712.562 109.757 712.696 109.624C712.842 109.49 713.009 109.424 713.196 109.424C713.382 109.424 713.542 109.49 713.676 109.624C713.822 109.757 713.896 109.917 713.896 110.104C713.896 110.304 713.822 110.47 713.676 110.604C713.542 110.737 713.382 110.804 713.196 110.804Z" fill="black"/>
<path d="M124.752 53.5929H119.252V51.8929H132.677V53.5929H127.202V68.1179H124.752V53.5929ZM135.376 51.8929H137.801V58.8929H146.426V51.8929H148.851V68.1179H146.426V60.5929H137.801V68.1179H135.376V51.8929ZM153.051 51.8929H163.951V53.5929H155.476V58.8929H163.126V60.5929H155.476V66.4179H164.201V68.1179H153.051V51.8929ZM171.415 51.8929H173.99L178.015 65.8179H178.065L182.09 51.8929H184.665L188.69 65.8179H188.74L192.765 51.8929H195.215L189.99 68.1179H187.165L183.29 54.6179L179.315 68.1179H176.49L171.415 51.8929ZM202.484 68.3679C201.418 68.3679 200.618 68.3263 200.084 68.2429C199.551 68.1763 199.018 68.0179 198.484 67.7679C197.934 67.5179 197.534 67.1179 197.284 66.5679C197.034 66.0013 196.909 65.2429 196.909 64.2929V60.0929C196.909 59.3429 197.001 58.6846 197.184 58.1179C197.368 57.5513 197.609 57.1096 197.909 56.7929C198.159 56.5096 198.534 56.2929 199.034 56.1429C199.551 55.9763 200.076 55.8679 200.609 55.8179C201.209 55.7846 201.834 55.7679 202.484 55.7679C203.351 55.7679 204.001 55.7929 204.434 55.8429C204.884 55.8763 205.359 55.9596 205.859 56.0929C206.376 56.2429 206.776 56.4679 207.059 56.7679C207.343 57.0679 207.584 57.5013 207.784 58.0679C207.968 58.6513 208.059 59.3263 208.059 60.0929V64.2929C208.059 65.7096 207.734 66.7429 207.084 67.3929C206.818 67.6596 206.434 67.8679 205.934 68.0179C205.434 68.1679 204.918 68.2679 204.384 68.3179C203.751 68.3513 203.118 68.3679 202.484 68.3679ZM202.484 66.8929C203.184 66.8929 203.693 66.8763 204.009 66.8429C204.326 66.8096 204.634 66.7179 204.934 66.5679C205.234 66.4346 205.443 66.2179 205.559 65.9179C205.693 65.6013 205.759 65.1679 205.759 64.6179V59.7179C205.759 58.9679 205.668 58.4263 205.484 58.0929C205.301 57.7429 204.984 57.5179 204.534 57.4179C204.101 57.3013 203.418 57.2429 202.484 57.2429C201.551 57.2429 200.859 57.3013 200.409 57.4179C199.976 57.5179 199.668 57.7429 199.484 58.0929C199.301 58.4263 199.209 58.9679 199.209 59.7179V64.6179C199.209 65.1679 199.268 65.6013 199.384 65.9179C199.518 66.2179 199.734 66.4346 200.034 66.5679C200.334 66.7179 200.643 66.8096 200.959 66.8429C201.276 66.8763 201.784 66.8929 202.484 66.8929ZM211.568 56.0179H213.693V57.9929C213.693 57.6096 213.86 57.2513 214.193 56.9179C214.527 56.5679 214.952 56.2929 215.468 56.0929C215.985 55.8763 216.493 55.7679 216.993 55.7679H218.093V57.6929H216.843C215.777 57.6929 215.002 57.8346 214.518 58.1179C214.052 58.3846 213.818 58.8763 213.818 59.5929V68.1179H211.568V56.0179ZM220.333 50.6179H222.583V68.1179H220.333V50.6179ZM230.81 68.3679C229.61 68.3679 228.669 68.2513 227.985 68.0179C227.302 67.7679 226.802 67.3679 226.485 66.8179C226.185 66.2679 226.035 65.5013 226.035 64.5179V59.1929C226.035 57.9763 226.41 57.1013 227.16 56.5679C227.927 56.0346 229.185 55.7679 230.935 55.7679C231.985 55.7679 232.885 55.9013 233.635 56.1679C234.402 56.4346 234.794 56.8179 234.81 57.3179H234.86L234.81 54.2429V50.6179H237.06V68.1179H234.86V66.6929C234.86 67.1429 234.502 67.5263 233.785 67.8429C233.069 68.1929 232.077 68.3679 230.81 68.3679ZM231.285 66.8179C232.535 66.8179 233.435 66.6763 233.985 66.3929C234.535 66.1096 234.81 65.6263 234.81 64.9429V58.9679C234.81 57.8846 233.702 57.3429 231.485 57.3429C230.152 57.3429 229.285 57.4429 228.885 57.6429C228.469 57.8429 228.26 58.2846 228.26 58.9679V64.9429C228.26 65.6263 228.485 66.1096 228.935 66.3929C229.402 66.6763 230.185 66.8179 231.285 66.8179ZM253.004 68.3679C252.121 68.3679 251.346 68.3096 250.679 68.1929C250.029 68.0763 249.388 67.8763 248.754 67.5929C248.088 67.2929 247.571 66.8346 247.204 66.2179C246.854 65.6013 246.679 64.8513 246.679 63.9679V51.8929H249.004V63.9429C249.004 64.9596 249.346 65.6846 250.029 66.1179C250.713 66.5346 251.721 66.7429 253.054 66.7429C254.388 66.7429 255.379 66.5346 256.029 66.1179C256.696 65.6846 257.029 64.9596 257.029 63.9429V51.8929H259.354V63.9679C259.354 66.9013 257.238 68.3679 253.004 68.3679ZM263.424 56.0179H265.674V57.4929C265.907 56.3429 267.232 55.7679 269.649 55.7679C271.199 55.7679 272.282 56.0513 272.899 56.6179C273.532 57.1679 273.849 58.0429 273.849 59.2429V68.1179H271.599V59.3679C271.599 59.0513 271.574 58.7929 271.524 58.5929C271.474 58.3929 271.374 58.1929 271.224 57.9929C270.891 57.5763 270.149 57.3679 268.999 57.3679C268.116 57.3679 267.432 57.4346 266.949 57.5679C266.482 57.6846 266.149 57.8846 265.949 58.1679C265.766 58.4513 265.674 58.8513 265.674 59.3679V68.1179H263.424V56.0179ZM277.755 51.6429H280.005V53.9929H277.755V51.6429ZM277.755 56.0179H280.005V68.1179H277.755V56.0179ZM282.107 56.0179H284.482L287.832 66.1679H287.957L291.207 56.0179H293.382L289.157 68.1179H286.457L282.107 56.0179ZM300.58 68.3679C296.88 68.3679 295.03 67.1346 295.03 64.6679V59.8929C295.03 58.4263 295.446 57.3763 296.28 56.7429C297.13 56.0929 298.496 55.7679 300.38 55.7679C302.163 55.7679 303.446 56.0763 304.23 56.6929C305.03 57.3096 305.43 58.3763 305.43 59.8929V62.5679H297.305V64.3929C297.305 65.2263 297.596 65.8263 298.18 66.1929C298.763 66.5596 299.663 66.7429 300.88 66.7429C302.03 66.7429 303.388 66.5429 304.955 66.1429V67.8679C303.421 68.2013 301.963 68.3679 300.58 68.3679ZM303.18 61.0929V59.1929C303.18 58.4596 302.955 57.9596 302.505 57.6929C302.071 57.4096 301.321 57.2679 300.255 57.2679C299.221 57.2679 298.471 57.4096 298.005 57.6929C297.538 57.9596 297.305 58.4596 297.305 59.1929V61.0929H303.18ZM308.859 56.0179H310.984V57.9929C310.984 57.6096 311.15 57.2513 311.484 56.9179C311.817 56.5679 312.242 56.2929 312.759 56.0929C313.275 55.8763 313.784 55.7679 314.284 55.7679H315.384V57.6929H314.134C313.067 57.6929 312.292 57.8346 311.809 58.1179C311.342 58.3846 311.109 58.8763 311.109 59.5929V68.1179H308.859V56.0179ZM321.323 68.3679C320.04 68.3679 318.656 68.2679 317.173 68.0679V66.3429C319.123 66.6596 320.523 66.8179 321.373 66.8179C322.44 66.8179 323.206 66.7179 323.673 66.5179C324.14 66.3013 324.373 65.9096 324.373 65.3429V64.1179C324.373 63.6013 324.198 63.2346 323.848 63.0179C323.498 62.8013 322.931 62.6929 322.148 62.6929H320.773C319.523 62.6929 318.565 62.4346 317.898 61.9179C317.248 61.4013 316.923 60.6763 316.923 59.7429V58.6179C316.923 56.7179 318.723 55.7679 322.323 55.7679C322.59 55.7679 323.815 55.8346 325.998 55.9679V57.5929C324.515 57.3596 323.256 57.2429 322.223 57.2429C321.04 57.2429 320.231 57.3596 319.798 57.5929C319.365 57.8263 319.148 58.2179 319.148 58.7679V59.7929C319.148 60.6096 319.89 61.0179 321.373 61.0179H322.773C325.323 61.0179 326.598 61.9679 326.598 63.8679V64.9179C326.598 66.1679 326.165 67.0596 325.298 67.5929C324.431 68.1096 323.106 68.3679 321.323 68.3679ZM329.708 51.6429H331.958V53.9929H329.708V51.6429ZM329.708 56.0179H331.958V68.1179H329.708V56.0179ZM340.935 68.3679C339.902 68.3679 339.094 68.2596 338.51 68.0429C337.927 67.8096 337.502 67.4263 337.235 66.8929C336.985 66.3429 336.86 65.5763 336.86 64.5929V57.4929H334.16V56.0179H336.86V52.2679H339.135V56.0179H343.46V57.4929H339.135V64.7179C339.135 65.3179 339.202 65.7679 339.335 66.0679C339.485 66.3679 339.735 66.5846 340.085 66.7179C340.452 66.8346 340.977 66.8929 341.66 66.8929C341.877 66.8929 342.477 66.8263 343.46 66.6929V68.1679C342.61 68.3013 341.769 68.3679 340.935 68.3679ZM348.794 68.2929L344.119 56.0179H346.569L349.944 65.8929H349.994L353.044 56.0179H355.319L349.244 73.3179H346.894L348.794 68.2929ZM363.33 51.8929H369.03C370.463 51.8929 371.58 51.9846 372.38 52.1679C373.196 52.3346 373.788 52.6429 374.155 53.0929C374.538 53.5429 374.73 54.2013 374.73 55.0679V57.8679C374.73 58.8346 374.33 59.5846 373.53 60.1179C372.746 60.6346 371.746 60.8929 370.53 60.8929L375.73 68.1179H372.755L368.105 61.1929H365.755V68.1179H363.33V51.8929ZM368.93 59.5929C370.13 59.5929 370.988 59.4513 371.505 59.1679C372.038 58.8679 372.305 58.3346 372.305 57.5679V55.3179C372.305 54.1013 371.255 53.4929 369.155 53.4929H365.755V59.5929H368.93ZM382.701 68.3679C381.551 68.3679 380.659 68.2596 380.026 68.0429C379.409 67.8263 378.959 67.4429 378.676 66.8929C378.409 66.3429 378.276 65.5513 378.276 64.5179C378.276 63.6013 378.401 62.8929 378.651 62.3929C378.917 61.8763 379.359 61.5096 379.976 61.2929C380.609 61.0763 381.501 60.9679 382.651 60.9679H386.276V59.0429C386.276 58.5929 386.184 58.2513 386.001 58.0179C385.834 57.7679 385.542 57.5929 385.126 57.4929C384.726 57.3929 384.134 57.3429 383.351 57.3429C382.101 57.3429 380.717 57.4429 379.201 57.6429V55.9929C380.851 55.8429 382.342 55.7679 383.676 55.7679C385.076 55.7679 386.109 55.8763 386.776 56.0929C387.442 56.2929 387.901 56.6513 388.151 57.1679C388.401 57.6846 388.526 58.4846 388.526 59.5679V68.1179H386.351V66.9679C386.167 67.9013 384.951 68.3679 382.701 68.3679ZM383.076 66.8929C383.892 66.8929 384.584 66.8346 385.151 66.7179C385.901 66.5679 386.276 66.2179 386.276 65.6679V62.3679H382.801C382.084 62.3679 381.567 62.4263 381.251 62.5429C380.934 62.6429 380.726 62.8429 380.626 63.1429C380.526 63.4429 380.476 63.9263 380.476 64.5929C380.476 65.1929 380.534 65.6596 380.651 65.9929C380.767 66.3096 380.976 66.5429 381.276 66.6929C381.576 66.8263 382.026 66.8929 382.626 66.8929H383.076ZM392.428 56.0179H394.678V57.4929C394.911 56.3429 396.236 55.7679 398.653 55.7679C400.203 55.7679 401.286 56.0513 401.903 56.6179C402.536 57.1679 402.853 58.0429 402.853 59.2429V68.1179H400.603V59.3679C400.603 59.0513 400.578 58.7929 400.528 58.5929C400.478 58.3929 400.378 58.1929 400.228 57.9929C399.895 57.5763 399.153 57.3679 398.003 57.3679C397.12 57.3679 396.436 57.4346 395.953 57.5679C395.486 57.6846 395.153 57.8846 394.953 58.1679C394.77 58.4513 394.678 58.8513 394.678 59.3679V68.1179H392.428V56.0179ZM406.759 50.6179H409.009V68.1179H406.759V50.6179ZM409.284 61.4929L414.384 56.0179H417.134L411.884 61.4929L417.609 68.1179H414.809L409.284 61.4929ZM419.601 51.6429H421.851V53.9929H419.601V51.6429ZM419.601 56.0179H421.851V68.1179H419.601V56.0179ZM425.753 56.0179H428.003V57.4929C428.236 56.3429 429.561 55.7679 431.978 55.7679C433.528 55.7679 434.611 56.0513 435.228 56.6179C435.861 57.1679 436.178 58.0429 436.178 59.2429V68.1179H433.928V59.3679C433.928 59.0513 433.903 58.7929 433.853 58.5929C433.803 58.3929 433.703 58.1929 433.553 57.9929C433.22 57.5763 432.478 57.3679 431.328 57.3679C430.445 57.3679 429.761 57.4346 429.278 57.5679C428.811 57.6846 428.478 57.8846 428.278 58.1679C428.095 58.4513 428.003 58.8513 428.003 59.3679V68.1179H425.753V56.0179ZM444.659 73.6179C443.009 73.6179 441.617 73.5263 440.484 73.3429V71.7429C442.484 71.9763 443.942 72.0929 444.859 72.0929C446.009 72.0929 446.842 71.9096 447.359 71.5429C447.892 71.1763 448.159 70.5679 448.159 69.7179V66.8179C448.126 67.3513 447.759 67.7429 447.059 67.9929C446.376 68.2429 445.509 68.3679 444.459 68.3679C443.209 68.3679 442.234 68.2513 441.534 68.0179C440.851 67.7846 440.359 67.4013 440.059 66.8679C439.776 66.3346 439.634 65.6096 439.634 64.6929V59.7679C439.634 58.3346 440.017 57.3096 440.784 56.6929C441.567 56.0763 442.842 55.7679 444.609 55.7679C446.709 55.7679 447.942 56.2429 448.309 57.1929V56.0179H450.409V69.2679C450.409 70.3846 450.201 71.2596 449.784 71.8929C449.367 72.5263 448.742 72.9679 447.909 73.2179C447.076 73.4846 445.992 73.6179 444.659 73.6179ZM444.934 66.8679C446.117 66.8679 446.951 66.7263 447.434 66.4429C447.917 66.1596 448.159 65.6263 448.159 64.8429V59.3679C448.159 58.8179 448.067 58.4013 447.884 58.1179C447.717 57.8346 447.401 57.6346 446.934 57.5179C446.467 57.3846 445.784 57.3179 444.884 57.3179C444.034 57.3179 443.392 57.3763 442.959 57.4929C442.542 57.6096 442.251 57.8179 442.084 58.1179C441.934 58.4013 441.859 58.8179 441.859 59.3679V64.8429C441.859 65.4096 441.942 65.8346 442.109 66.1179C442.276 66.4013 442.576 66.6013 443.009 66.7179C443.442 66.8179 444.084 66.8679 444.934 66.8679ZM458.017 68.3679C456.734 68.3679 455.351 68.2679 453.867 68.0679V66.3429C455.817 66.6596 457.217 66.8179 458.067 66.8179C459.134 66.8179 459.901 66.7179 460.367 66.5179C460.834 66.3013 461.067 65.9096 461.067 65.3429V64.1179C461.067 63.6013 460.892 63.2346 460.542 63.0179C460.192 62.8013 459.626 62.6929 458.842 62.6929H457.467C456.217 62.6929 455.259 62.4346 454.592 61.9179C453.942 61.4013 453.617 60.6763 453.617 59.7429V58.6179C453.617 56.7179 455.417 55.7679 459.017 55.7679C459.284 55.7679 460.509 55.8346 462.692 55.9679V57.5929C461.209 57.3596 459.951 57.2429 458.917 57.2429C457.734 57.2429 456.926 57.3596 456.492 57.5929C456.059 57.8263 455.842 58.2179 455.842 58.7679V59.7929C455.842 60.6096 456.584 61.0179 458.067 61.0179H459.467C462.017 61.0179 463.292 61.9679 463.292 63.8679V64.9179C463.292 66.1679 462.859 67.0596 461.992 67.5929C461.126 68.1096 459.801 68.3679 458.017 68.3679ZM477.239 68.3679C476.206 68.3679 475.398 68.2596 474.814 68.0429C474.231 67.8096 473.806 67.4263 473.539 66.8929C473.289 66.3429 473.164 65.5763 473.164 64.5929V57.4929H470.464V56.0179H473.164V52.2679H475.439V56.0179H479.764V57.4929H475.439V64.7179C475.439 65.3179 475.506 65.7679 475.639 66.0679C475.789 66.3679 476.039 66.5846 476.389 66.7179C476.756 66.8346 477.281 66.8929 477.964 66.8929C478.181 66.8929 478.781 66.8263 479.764 66.6929V68.1679C478.914 68.3013 478.073 68.3679 477.239 68.3679ZM482.223 50.6179H484.473V57.4929C484.706 56.3429 486.031 55.7679 488.448 55.7679C489.998 55.7679 491.081 56.0513 491.698 56.6179C492.331 57.1679 492.648 58.0429 492.648 59.2429V68.1179H490.398V59.3929C490.398 59.0763 490.373 58.8179 490.323 58.6179C490.273 58.4179 490.173 58.2179 490.023 58.0179C489.689 57.6013 488.948 57.3929 487.798 57.3929C486.881 57.3929 486.181 57.4596 485.698 57.5929C485.231 57.7096 484.906 57.9096 484.723 58.1929C484.556 58.4763 484.473 58.8763 484.473 59.3929V68.1179H482.223V50.6179ZM501.654 68.3679C497.954 68.3679 496.104 67.1346 496.104 64.6679V59.8929C496.104 58.4263 496.52 57.3763 497.354 56.7429C498.204 56.0929 499.57 55.7679 501.454 55.7679C503.237 55.7679 504.52 56.0763 505.304 56.6929C506.104 57.3096 506.504 58.3763 506.504 59.8929V62.5679H498.379V64.3929C498.379 65.2263 498.67 65.8263 499.254 66.1929C499.837 66.5596 500.737 66.7429 501.954 66.7429C503.104 66.7429 504.462 66.5429 506.029 66.1429V67.8679C504.495 68.2013 503.037 68.3679 501.654 68.3679ZM504.254 61.0929V59.1929C504.254 58.4596 504.029 57.9596 503.579 57.6929C503.145 57.4096 502.395 57.2679 501.329 57.2679C500.295 57.2679 499.545 57.4096 499.079 57.6929C498.612 57.9596 498.379 58.4596 498.379 59.1929V61.0929H504.254ZM521.094 68.3679C520.194 68.3679 519.469 68.3179 518.919 68.2179C518.386 68.1346 517.853 67.9679 517.319 67.7179C516.236 67.2013 515.694 66.0179 515.694 64.1679V50.6179H517.944V54.2429V55.6679C517.928 56.1013 517.919 56.5846 517.919 57.1179C518.003 56.7346 518.353 56.4096 518.969 56.1429C519.603 55.8929 520.519 55.7679 521.719 55.7679C525.053 55.7679 526.719 56.9096 526.719 59.1929V64.1679C526.719 64.8846 526.611 65.5096 526.394 66.0429C526.194 66.5763 525.928 66.9929 525.594 67.2929C525.294 67.5763 524.878 67.8013 524.344 67.9679C523.828 68.1346 523.311 68.2429 522.794 68.2929C522.328 68.3429 521.761 68.3679 521.094 68.3679ZM521.144 66.8929C522.011 66.8929 522.669 66.8346 523.119 66.7179C523.586 66.5846 523.919 66.3513 524.119 66.0179C524.319 65.6846 524.419 65.1763 524.419 64.4929V59.7429C524.419 59.0596 524.319 58.5513 524.119 58.2179C523.919 57.8679 523.586 57.6429 523.119 57.5429C522.669 57.4263 522.003 57.3679 521.119 57.3679C520.303 57.3679 519.669 57.4346 519.219 57.5679C518.769 57.7013 518.444 57.9429 518.244 58.2929C518.044 58.6263 517.944 59.1096 517.944 59.7429V64.4929C517.944 65.1763 518.036 65.6846 518.219 66.0179C518.419 66.3513 518.744 66.5846 519.194 66.7179C519.644 66.8346 520.294 66.8929 521.144 66.8929ZM535.272 68.3679C531.572 68.3679 529.722 67.1346 529.722 64.6679V59.8929C529.722 58.4263 530.139 57.3763 530.972 56.7429C531.822 56.0929 533.189 55.7679 535.072 55.7679C536.855 55.7679 538.139 56.0763 538.922 56.6929C539.722 57.3096 540.122 58.3763 540.122 59.8929V62.5679H531.997V64.3929C531.997 65.2263 532.289 65.8263 532.872 66.1929C533.455 66.5596 534.355 66.7429 535.572 66.7429C536.722 66.7429 538.08 66.5429 539.647 66.1429V67.8679C538.114 68.2013 536.655 68.3679 535.272 68.3679ZM537.872 61.0929V59.1929C537.872 58.4596 537.647 57.9596 537.197 57.6929C536.764 57.4096 536.014 57.2679 534.947 57.2679C533.914 57.2679 533.164 57.4096 532.697 57.6929C532.23 57.9596 531.997 58.4596 531.997 59.1929V61.0929H537.872ZM547.251 68.3679C545.968 68.3679 544.584 68.2679 543.101 68.0679V66.3429C545.051 66.6596 546.451 66.8179 547.301 66.8179C548.368 66.8179 549.134 66.7179 549.601 66.5179C550.068 66.3013 550.301 65.9096 550.301 65.3429V64.1179C550.301 63.6013 550.126 63.2346 549.776 63.0179C549.426 62.8013 548.859 62.6929 548.076 62.6929H546.701C545.451 62.6929 544.493 62.4346 543.826 61.9179C543.176 61.4013 542.851 60.6763 542.851 59.7429V58.6179C542.851 56.7179 544.651 55.7679 548.251 55.7679C548.518 55.7679 549.743 55.8346 551.926 55.9679V57.5929C550.443 57.3596 549.184 57.2429 548.151 57.2429C546.968 57.2429 546.159 57.3596 545.726 57.5929C545.293 57.8263 545.076 58.2179 545.076 58.7679V59.7929C545.076 60.6096 545.818 61.0179 547.301 61.0179H548.701C551.251 61.0179 552.526 61.9679 552.526 63.8679V64.9179C552.526 66.1679 552.093 67.0596 551.226 67.5929C550.359 68.1096 549.034 68.3679 547.251 68.3679ZM560.711 68.3679C559.678 68.3679 558.869 68.2596 558.286 68.0429C557.703 67.8096 557.278 67.4263 557.011 66.8929C556.761 66.3429 556.636 65.5763 556.636 64.5929V57.4929H553.936V56.0179H556.636V52.2679H558.911V56.0179H563.236V57.4929H558.911V64.7179C558.911 65.3179 558.978 65.7679 559.111 66.0679C559.261 66.3679 559.511 66.5846 559.861 66.7179C560.228 66.8346 560.753 66.8929 561.436 66.8929C561.653 66.8929 562.253 66.8263 563.236 66.6929V68.1679C562.386 68.3013 561.544 68.3679 560.711 68.3679ZM124.302 88.3679C123.018 88.3679 121.635 88.2679 120.152 88.0679V86.3429C122.102 86.6596 123.502 86.8179 124.352 86.8179C125.418 86.8179 126.185 86.7179 126.652 86.5179C127.118 86.3013 127.352 85.9096 127.352 85.3429V84.1179C127.352 83.6013 127.177 83.2346 126.827 83.0179C126.477 82.8013 125.91 82.6929 125.127 82.6929H123.752C122.502 82.6929 121.543 82.4346 120.877 81.9179C120.227 81.4013 119.902 80.6763 119.902 79.7429V78.6179C119.902 76.7179 121.702 75.7679 125.302 75.7679C125.568 75.7679 126.793 75.8346 128.977 75.9679V77.5929C127.493 77.3596 126.235 77.2429 125.202 77.2429C124.018 77.2429 123.21 77.3596 122.777 77.5929C122.343 77.8263 122.127 78.2179 122.127 78.7679V79.7929C122.127 80.6096 122.868 81.0179 124.352 81.0179H125.752C128.302 81.0179 129.577 81.9679 129.577 83.8679V84.9179C129.577 86.1679 129.143 87.0596 128.277 87.5929C127.41 88.1096 126.085 88.3679 124.302 88.3679ZM137.762 88.3679C136.728 88.3679 135.92 88.2596 135.337 88.0429C134.753 87.8096 134.328 87.4263 134.062 86.8929C133.812 86.3429 133.687 85.5763 133.687 84.5929V77.4929H130.987V76.0179H133.687V72.2679H135.962V76.0179H140.287V77.4929H135.962V84.7179C135.962 85.3179 136.028 85.7679 136.162 86.0679C136.312 86.3679 136.562 86.5846 136.912 86.7179C137.278 86.8346 137.803 86.8929 138.487 86.8929C138.703 86.8929 139.303 86.8263 140.287 86.6929V88.1679C139.437 88.3013 138.595 88.3679 137.762 88.3679ZM146.945 88.3679C145.395 88.3679 144.304 88.0929 143.67 87.5429C143.054 86.9763 142.745 86.0929 142.745 84.8929V76.0179H144.995V84.7679C144.995 85.0846 145.02 85.3429 145.07 85.5429C145.137 85.7263 145.245 85.9179 145.395 86.1179C145.695 86.5513 146.429 86.7679 147.595 86.7679C148.829 86.7679 149.695 86.6513 150.195 86.4179C150.679 86.1846 150.92 85.7596 150.92 85.1429V76.0179H153.17V88.1179H150.92V86.6429C150.704 87.7929 149.379 88.3679 146.945 88.3679ZM161.401 88.3679C160.201 88.3679 159.26 88.2513 158.576 88.0179C157.893 87.7679 157.393 87.3679 157.076 86.8179C156.776 86.2679 156.626 85.5013 156.626 84.5179V79.1929C156.626 77.9763 157.001 77.1013 157.751 76.5679C158.518 76.0346 159.776 75.7679 161.526 75.7679C162.576 75.7679 163.476 75.9013 164.226 76.1679C164.993 76.4346 165.385 76.8179 165.401 77.3179H165.451L165.401 74.2429V70.6179H167.651V88.1179H165.451V86.6929C165.451 87.1429 165.093 87.5263 164.376 87.8429C163.66 88.1929 162.668 88.3679 161.401 88.3679ZM161.876 86.8179C163.126 86.8179 164.026 86.6763 164.576 86.3929C165.126 86.1096 165.401 85.6263 165.401 84.9429V78.9679C165.401 77.8846 164.293 77.3429 162.076 77.3429C160.743 77.3429 159.876 77.4429 159.476 77.6429C159.06 77.8429 158.851 78.2846 158.851 78.9679V84.9429C158.851 85.6263 159.076 86.1096 159.526 86.3929C159.993 86.6763 160.776 86.8179 161.876 86.8179ZM176.459 88.3679C172.759 88.3679 170.909 87.1346 170.909 84.6679V79.8929C170.909 78.4263 171.325 77.3763 172.159 76.7429C173.009 76.0929 174.375 75.7679 176.259 75.7679C178.042 75.7679 179.325 76.0763 180.109 76.6929C180.909 77.3096 181.309 78.3763 181.309 79.8929V82.5679H173.184V84.3929C173.184 85.2263 173.475 85.8263 174.059 86.1929C174.642 86.5596 175.542 86.7429 176.759 86.7429C177.909 86.7429 179.267 86.5429 180.834 86.1429V87.8679C179.3 88.2013 177.842 88.3679 176.459 88.3679ZM179.059 81.0929V79.1929C179.059 78.4596 178.834 77.9596 178.384 77.6929C177.95 77.4096 177.2 77.2679 176.134 77.2679C175.1 77.2679 174.35 77.4096 173.884 77.6929C173.417 77.9596 173.184 78.4596 173.184 79.1929V81.0929H179.059ZM184.737 76.0179H186.987V77.4929C187.221 76.3429 188.546 75.7679 190.962 75.7679C192.512 75.7679 193.596 76.0513 194.212 76.6179C194.846 77.1679 195.162 78.0429 195.162 79.2429V88.1179H192.912V79.3679C192.912 79.0513 192.887 78.7929 192.837 78.5929C192.787 78.3929 192.687 78.1929 192.537 77.9929C192.204 77.5763 191.462 77.3679 190.312 77.3679C189.429 77.3679 188.746 77.4346 188.262 77.5679C187.796 77.6846 187.462 77.8846 187.262 78.1679C187.079 78.4513 186.987 78.8513 186.987 79.3679V88.1179H184.737V76.0179ZM204.143 88.3679C203.11 88.3679 202.302 88.2596 201.718 88.0429C201.135 87.8096 200.71 87.4263 200.443 86.8929C200.193 86.3429 200.068 85.5763 200.068 84.5929V77.4929H197.368V76.0179H200.068V72.2679H202.343V76.0179H206.668V77.4929H202.343V84.7179C202.343 85.3179 202.41 85.7679 202.543 86.0679C202.693 86.3679 202.943 86.5846 203.293 86.7179C203.66 86.8346 204.185 86.8929 204.868 86.8929C205.085 86.8929 205.685 86.8263 206.668 86.6929V88.1679C205.818 88.3013 204.977 88.3679 204.143 88.3679ZM219.964 88.3679C218.93 88.3679 218.122 88.2596 217.539 88.0429C216.955 87.8096 216.53 87.4263 216.264 86.8929C216.014 86.3429 215.889 85.5763 215.889 84.5929V77.4929H213.189V76.0179H215.889V72.2679H218.164V76.0179H222.489V77.4929H218.164V84.7179C218.164 85.3179 218.23 85.7679 218.364 86.0679C218.514 86.3679 218.764 86.5846 219.114 86.7179C219.48 86.8346 220.005 86.8929 220.689 86.8929C220.905 86.8929 221.505 86.8263 222.489 86.6929V88.1679C221.639 88.3013 220.797 88.3679 219.964 88.3679ZM230.072 88.3679C229.006 88.3679 228.206 88.3263 227.672 88.2429C227.139 88.1763 226.606 88.0179 226.072 87.7679C225.522 87.5179 225.122 87.1179 224.872 86.5679C224.622 86.0013 224.497 85.2429 224.497 84.2929V80.0929C224.497 79.3429 224.589 78.6846 224.772 78.1179C224.956 77.5513 225.197 77.1096 225.497 76.7929C225.747 76.5096 226.122 76.2929 226.622 76.1429C227.139 75.9763 227.664 75.8679 228.197 75.8179C228.797 75.7846 229.422 75.7679 230.072 75.7679C230.939 75.7679 231.589 75.7929 232.022 75.8429C232.472 75.8763 232.947 75.9596 233.447 76.0929C233.964 76.2429 234.364 76.4679 234.647 76.7679C234.931 77.0679 235.172 77.5013 235.372 78.0679C235.556 78.6513 235.647 79.3263 235.647 80.0929V84.2929C235.647 85.7096 235.322 86.7429 234.672 87.3929C234.406 87.6596 234.022 87.8679 233.522 88.0179C233.022 88.1679 232.506 88.2679 231.972 88.3179C231.339 88.3513 230.706 88.3679 230.072 88.3679ZM230.072 86.8929C230.772 86.8929 231.281 86.8763 231.597 86.8429C231.914 86.8096 232.222 86.7179 232.522 86.5679C232.822 86.4346 233.031 86.2179 233.147 85.9179C233.281 85.6013 233.347 85.1679 233.347 84.6179V79.7179C233.347 78.9679 233.256 78.4263 233.072 78.0929C232.889 77.7429 232.572 77.5179 232.122 77.4179C231.689 77.3013 231.006 77.2429 230.072 77.2429C229.139 77.2429 228.447 77.3013 227.997 77.4179C227.564 77.5179 227.256 77.7429 227.072 78.0929C226.889 78.4263 226.797 78.9679 226.797 79.7179V84.6179C226.797 85.1679 226.856 85.6013 226.972 85.9179C227.106 86.2179 227.322 86.4346 227.622 86.5679C227.922 86.7179 228.231 86.8096 228.547 86.8429C228.864 86.8763 229.372 86.8929 230.072 86.8929ZM248.618 88.3679C247.335 88.3679 245.951 88.2679 244.468 88.0679V86.3429C246.418 86.6596 247.818 86.8179 248.668 86.8179C249.735 86.8179 250.501 86.7179 250.968 86.5179C251.435 86.3013 251.668 85.9096 251.668 85.3429V84.1179C251.668 83.6013 251.493 83.2346 251.143 83.0179C250.793 82.8013 250.226 82.6929 249.443 82.6929H248.068C246.818 82.6929 245.86 82.4346 245.193 81.9179C244.543 81.4013 244.218 80.6763 244.218 79.7429V78.6179C244.218 76.7179 246.018 75.7679 249.618 75.7679C249.885 75.7679 251.11 75.8346 253.293 75.9679V77.5929C251.81 77.3596 250.551 77.2429 249.518 77.2429C248.335 77.2429 247.526 77.3596 247.093 77.5929C246.66 77.8263 246.443 78.2179 246.443 78.7679V79.7929C246.443 80.6096 247.185 81.0179 248.668 81.0179H250.068C252.618 81.0179 253.893 81.9679 253.893 83.8679V84.9179C253.893 86.1679 253.46 87.0596 252.593 87.5929C251.726 88.1096 250.401 88.3679 248.618 88.3679ZM262.078 88.3679C261.045 88.3679 260.236 88.2596 259.653 88.0429C259.07 87.8096 258.645 87.4263 258.378 86.8929C258.128 86.3429 258.003 85.5763 258.003 84.5929V77.4929H255.303V76.0179H258.003V72.2679H260.278V76.0179H264.603V77.4929H260.278V84.7179C260.278 85.3179 260.345 85.7679 260.478 86.0679C260.628 86.3679 260.878 86.5846 261.228 86.7179C261.595 86.8346 262.12 86.8929 262.803 86.8929C263.02 86.8929 263.62 86.8263 264.603 86.6929V88.1679C263.753 88.3013 262.911 88.3679 262.078 88.3679ZM270.787 88.3679C269.637 88.3679 268.745 88.2596 268.112 88.0429C267.495 87.8263 267.045 87.4429 266.762 86.8929C266.495 86.3429 266.362 85.5513 266.362 84.5179C266.362 83.6013 266.487 82.8929 266.737 82.3929C267.003 81.8763 267.445 81.5096 268.062 81.2929C268.695 81.0763 269.587 80.9679 270.737 80.9679H274.362V79.0429C274.362 78.5929 274.27 78.2513 274.087 78.0179C273.92 77.7679 273.628 77.5929 273.212 77.4929C272.812 77.3929 272.22 77.3429 271.437 77.3429C270.187 77.3429 268.803 77.4429 267.287 77.6429V75.9929C268.937 75.8429 270.428 75.7679 271.762 75.7679C273.162 75.7679 274.195 75.8763 274.862 76.0929C275.528 76.2929 275.987 76.6513 276.237 77.1679C276.487 77.6846 276.612 78.4846 276.612 79.5679V88.1179H274.437V86.9679C274.253 87.9013 273.037 88.3679 270.787 88.3679ZM271.162 86.8929C271.978 86.8929 272.67 86.8346 273.237 86.7179C273.987 86.5679 274.362 86.2179 274.362 85.6679V82.3679H270.887C270.17 82.3679 269.653 82.4263 269.337 82.5429C269.02 82.6429 268.812 82.8429 268.712 83.1429C268.612 83.4429 268.562 83.9263 268.562 84.5929C268.562 85.1929 268.62 85.6596 268.737 85.9929C268.853 86.3096 269.062 86.5429 269.362 86.6929C269.662 86.8263 270.112 86.8929 270.712 86.8929H271.162ZM281.589 77.4929H278.814V76.0179H281.589V74.0679C281.589 72.6846 281.889 71.7263 282.489 71.1929C283.105 70.6429 284.139 70.3679 285.589 70.3679C286.489 70.3679 287.33 70.4096 288.114 70.4929V71.9429C287.48 71.8596 286.914 71.8179 286.414 71.8179C285.697 71.8179 285.155 71.8763 284.789 71.9929C284.439 72.1096 284.189 72.3179 284.039 72.6179C283.905 72.9013 283.839 73.3346 283.839 73.9179V76.0179H289.764V74.0679C289.764 72.6846 290.064 71.7263 290.664 71.1929C291.28 70.6429 292.314 70.3679 293.764 70.3679C294.664 70.3679 295.505 70.4096 296.289 70.4929V71.9429C295.655 71.8596 295.089 71.8179 294.589 71.8179C293.872 71.8179 293.33 71.8763 292.964 71.9929C292.614 72.1096 292.364 72.3179 292.214 72.6179C292.08 72.9013 292.014 73.3346 292.014 73.9179V76.0179H296.289V77.4929H292.014V88.1179H289.764V77.4929H283.839V88.1179H281.589V77.4929ZM304.488 76.0179H306.613V77.9929C306.613 77.6096 306.78 77.2513 307.113 76.9179C307.447 76.5679 307.872 76.2929 308.388 76.0929C308.905 75.8763 309.413 75.7679 309.913 75.7679H311.013V77.6929H309.763C308.697 77.6929 307.922 77.8346 307.438 78.1179C306.972 78.3846 306.738 78.8763 306.738 79.5929V88.1179H304.488V76.0179ZM316.978 88.3679C315.828 88.3679 314.936 88.2596 314.303 88.0429C313.686 87.8263 313.236 87.4429 312.953 86.8929C312.686 86.3429 312.553 85.5513 312.553 84.5179C312.553 83.6013 312.678 82.8929 312.928 82.3929C313.195 81.8763 313.636 81.5096 314.253 81.2929C314.886 81.0763 315.778 80.9679 316.928 80.9679H320.553V79.0429C320.553 78.5929 320.461 78.2513 320.278 78.0179C320.111 77.7679 319.82 77.5929 319.403 77.4929C319.003 77.3929 318.411 77.3429 317.628 77.3429C316.378 77.3429 314.995 77.4429 313.478 77.6429V75.9929C315.128 75.8429 316.62 75.7679 317.953 75.7679C319.353 75.7679 320.386 75.8763 321.053 76.0929C321.72 76.2929 322.178 76.6513 322.428 77.1679C322.678 77.6846 322.803 78.4846 322.803 79.5679V88.1179H320.628V86.9679C320.445 87.9013 319.228 88.3679 316.978 88.3679ZM317.353 86.8929C318.17 86.8929 318.861 86.8346 319.428 86.7179C320.178 86.5679 320.553 86.2179 320.553 85.6679V82.3679H317.078C316.361 82.3679 315.845 82.4263 315.528 82.5429C315.211 82.6429 315.003 82.8429 314.903 83.1429C314.803 83.4429 314.753 83.9263 314.753 84.5929C314.753 85.1929 314.811 85.6596 314.928 85.9929C315.045 86.3096 315.253 86.5429 315.553 86.6929C315.853 86.8263 316.303 86.8929 316.903 86.8929H317.353ZM331.78 88.3679C330.747 88.3679 329.939 88.2596 329.355 88.0429C328.772 87.8096 328.347 87.4263 328.08 86.8929C327.83 86.3429 327.705 85.5763 327.705 84.5929V77.4929H325.005V76.0179H327.705V72.2679H329.98V76.0179H334.305V77.4929H329.98V84.7179C329.98 85.3179 330.047 85.7679 330.18 86.0679C330.33 86.3679 330.58 86.5846 330.93 86.7179C331.297 86.8346 331.822 86.8929 332.505 86.8929C332.722 86.8929 333.322 86.8263 334.305 86.6929V88.1679C333.455 88.3013 332.614 88.3679 331.78 88.3679ZM336.764 71.6429H339.014V73.9929H336.764V71.6429ZM336.764 76.0179H339.014V88.1179H336.764V76.0179ZM348.041 88.3679C346.974 88.3679 346.174 88.3263 345.641 88.2429C345.108 88.1763 344.574 88.0179 344.041 87.7679C343.491 87.5179 343.091 87.1179 342.841 86.5679C342.591 86.0013 342.466 85.2429 342.466 84.2929V80.0929C342.466 79.3429 342.558 78.6846 342.741 78.1179C342.924 77.5513 343.166 77.1096 343.466 76.7929C343.716 76.5096 344.091 76.2929 344.591 76.1429C345.108 75.9763 345.633 75.8679 346.166 75.8179C346.766 75.7846 347.391 75.7679 348.041 75.7679C348.908 75.7679 349.558 75.7929 349.991 75.8429C350.441 75.8763 350.916 75.9596 351.416 76.0929C351.933 76.2429 352.333 76.4679 352.616 76.7679C352.899 77.0679 353.141 77.5013 353.341 78.0679C353.524 78.6513 353.616 79.3263 353.616 80.0929V84.2929C353.616 85.7096 353.291 86.7429 352.641 87.3929C352.374 87.6596 351.991 87.8679 351.491 88.0179C350.991 88.1679 350.474 88.2679 349.941 88.3179C349.308 88.3513 348.674 88.3679 348.041 88.3679ZM348.041 86.8929C348.741 86.8929 349.249 86.8763 349.566 86.8429C349.883 86.8096 350.191 86.7179 350.491 86.5679C350.791 86.4346 350.999 86.2179 351.116 85.9179C351.249 85.6013 351.316 85.1679 351.316 84.6179V79.7179C351.316 78.9679 351.224 78.4263 351.041 78.0929C350.858 77.7429 350.541 77.5179 350.091 77.4179C349.658 77.3013 348.974 77.2429 348.041 77.2429C347.108 77.2429 346.416 77.3013 345.966 77.4179C345.533 77.5179 345.224 77.7429 345.041 78.0929C344.858 78.4263 344.766 78.9679 344.766 79.7179V84.6179C344.766 85.1679 344.824 85.6013 344.941 85.9179C345.074 86.2179 345.291 86.4346 345.591 86.5679C345.891 86.7179 346.199 86.8096 346.516 86.8429C346.833 86.8763 347.341 86.8929 348.041 86.8929ZM361.937 79.9929H380.387V81.7679H361.937V79.9929ZM389.258 76.0179H399.483V88.1179H397.233V77.6679H391.508V88.1179H389.258V76.0179ZM408.661 88.3679C407.595 88.3679 406.795 88.3263 406.261 88.2429C405.728 88.1763 405.195 88.0179 404.661 87.7679C404.111 87.5179 403.711 87.1179 403.461 86.5679C403.211 86.0013 403.086 85.2429 403.086 84.2929V80.0929C403.086 79.3429 403.178 78.6846 403.361 78.1179C403.545 77.5513 403.786 77.1096 404.086 76.7929C404.336 76.5096 404.711 76.2929 405.211 76.1429C405.728 75.9763 406.253 75.8679 406.786 75.8179C407.386 75.7846 408.011 75.7679 408.661 75.7679C409.528 75.7679 410.178 75.7929 410.611 75.8429C411.061 75.8763 411.536 75.9596 412.036 76.0929C412.553 76.2429 412.953 76.4679 413.236 76.7679C413.52 77.0679 413.761 77.5013 413.961 78.0679C414.145 78.6513 414.236 79.3263 414.236 80.0929V84.2929C414.236 85.7096 413.911 86.7429 413.261 87.3929C412.995 87.6596 412.611 87.8679 412.111 88.0179C411.611 88.1679 411.095 88.2679 410.561 88.3179C409.928 88.3513 409.295 88.3679 408.661 88.3679ZM408.661 86.8929C409.361 86.8929 409.87 86.8763 410.186 86.8429C410.503 86.8096 410.811 86.7179 411.111 86.5679C411.411 86.4346 411.62 86.2179 411.736 85.9179C411.87 85.6013 411.936 85.1679 411.936 84.6179V79.7179C411.936 78.9679 411.845 78.4263 411.661 78.0929C411.478 77.7429 411.161 77.5179 410.711 77.4179C410.278 77.3013 409.595 77.2429 408.661 77.2429C407.728 77.2429 407.036 77.3013 406.586 77.4179C406.153 77.5179 405.845 77.7429 405.661 78.0929C405.478 78.4263 405.386 78.9679 405.386 79.7179V84.6179C405.386 85.1679 405.445 85.6013 405.561 85.9179C405.695 86.2179 405.911 86.4346 406.211 86.5679C406.511 86.7179 406.82 86.8096 407.136 86.8429C407.453 86.8763 407.961 86.8929 408.661 86.8929ZM420.445 88.3679C419.462 88.3679 418.329 88.2263 417.045 87.9429V86.1679C418.295 86.5346 419.429 86.7179 420.445 86.7179C421.595 86.7179 422.437 86.5929 422.97 86.3429C423.504 86.0763 423.77 85.5763 423.77 84.8429V84.0679C423.77 83.4513 423.495 83.0429 422.945 82.8429C422.412 82.6263 421.654 82.5179 420.67 82.5179H419.295V80.9679H420.245C421.262 80.9679 422.037 80.8513 422.57 80.6179C423.104 80.3846 423.37 79.9679 423.37 79.3679V78.6179C423.37 77.7513 422.37 77.3179 420.37 77.3179C419.32 77.3179 418.295 77.4179 417.295 77.6179V75.9929C418.245 75.8429 419.262 75.7679 420.345 75.7679C421.629 75.7679 422.629 75.8346 423.345 75.9679C424.062 76.1013 424.62 76.3513 425.02 76.7179C425.437 77.0846 425.645 77.6763 425.645 78.4929V79.4679C425.645 80.0013 425.445 80.4429 425.045 80.7929C424.662 81.1263 424.162 81.3429 423.545 81.4429V81.5429C425.262 81.8096 426.12 82.5513 426.12 83.7679V85.0179C426.12 85.5846 426.004 86.0929 425.77 86.5429C425.554 86.9763 425.262 87.3096 424.895 87.5429C424.395 87.8596 423.762 88.0763 422.995 88.1929C422.245 88.3096 421.395 88.3679 420.445 88.3679ZM440.362 76.0179V88.1179H438.112V79.1929L431.812 88.1179H429.562V76.0179H431.812V85.2429L438.237 76.0179H440.362ZM454.659 88.1179H444.409V76.0179H446.659V86.4679H452.634V76.0179H454.884V86.4679H456.584V91.2179H454.659V88.1179ZM470.074 76.0179V88.1179H467.824V79.1929L461.524 88.1179H459.274V76.0179H461.524V85.2429L467.949 76.0179H470.074ZM483.721 76.0179V88.1179H481.471V83.7679H478.821L475.746 88.1179H472.771L476.471 83.3429C475.521 83.1929 474.829 82.8846 474.396 82.4179C473.979 81.9346 473.771 81.2763 473.771 80.4429V79.1429C473.771 78.2763 473.887 77.6263 474.121 77.1929C474.371 76.7596 474.787 76.4596 475.371 76.2929C475.954 76.1096 476.821 76.0179 477.971 76.0179H483.721ZM481.471 77.5679H478.196C477.579 77.5679 477.121 77.6179 476.821 77.7179C476.521 77.8179 476.312 77.9929 476.196 78.2429C476.096 78.4929 476.046 78.8596 476.046 79.3429V80.1929C476.046 80.8429 476.196 81.3429 476.496 81.6929C476.812 82.0429 477.287 82.2179 477.921 82.2179H481.471V77.5679ZM505.342 84.8429H497.842V81.9679L504.517 71.8929H508.642V82.2179H510.392V84.8429H508.642V88.1179H505.342V84.8429ZM505.342 82.2179V75.3429L500.967 82.2179H505.342ZM518.944 88.3679C516.794 88.3679 515.219 88.1013 514.219 87.5679C513.235 87.0346 512.744 86.1096 512.744 84.7929V81.9929C512.744 81.4596 513.01 80.9596 513.544 80.4929C514.077 80.0263 514.71 79.7096 515.444 79.5429V79.4429C514.877 79.3763 514.377 79.1429 513.944 78.7429C513.51 78.3429 513.294 77.8846 513.294 77.3679V75.0429C513.294 73.8763 513.719 73.0179 514.569 72.4679C515.435 71.9179 516.894 71.6429 518.944 71.6429C520.994 71.6429 522.444 71.9179 523.294 72.4679C524.16 73.0179 524.594 73.8763 524.594 75.0429V77.3679C524.594 77.8846 524.377 78.3429 523.944 78.7429C523.51 79.1429 523.01 79.3763 522.444 79.4429V79.5429C523.177 79.7096 523.81 80.0263 524.344 80.4929C524.877 80.9596 525.144 81.4596 525.144 81.9929V84.7929C525.144 86.1429 524.635 87.0763 523.619 87.5929C522.602 88.1096 521.044 88.3679 518.944 88.3679ZM518.944 78.5679C519.677 78.5679 520.185 78.4679 520.469 78.2679C520.769 78.0513 520.919 77.7096 520.919 77.2429V75.3679C520.919 74.8846 520.769 74.5429 520.469 74.3429C520.185 74.1263 519.677 74.0179 518.944 74.0179C518.21 74.0179 517.694 74.1263 517.394 74.3429C517.11 74.5429 516.969 74.8846 516.969 75.3679V77.2429C516.969 77.6763 517.11 78.0096 517.394 78.2429C517.66 78.4596 518.177 78.5679 518.944 78.5679ZM518.944 85.9929C519.66 85.9929 520.177 85.9513 520.494 85.8679C520.827 85.7846 521.044 85.6429 521.144 85.4429C521.26 85.2429 521.319 84.9263 521.319 84.4929V82.2929C521.319 81.8096 521.177 81.4513 520.894 81.2179C520.61 81.0013 519.969 80.8929 518.969 80.8929C518.019 80.8929 517.377 81.0013 517.044 81.2179C516.727 81.4179 516.569 81.7763 516.569 82.2929V84.4929C516.569 84.9263 516.619 85.2429 516.719 85.4429C516.835 85.6429 517.052 85.7846 517.369 85.8679C517.702 85.9513 518.227 85.9929 518.944 85.9929ZM546.069 71.6429H548.244L540.144 88.3679H537.969L546.069 71.6429ZM561.022 88.3679C559.589 88.3679 558.047 88.2846 556.397 88.1179V85.5179C558.531 85.7513 560.056 85.8679 560.972 85.8679C561.822 85.8679 562.439 85.8096 562.822 85.6929C563.206 85.5763 563.456 85.3596 563.572 85.0429C563.706 84.7263 563.772 84.2263 563.772 83.5429V82.0179H561.072C560.172 82.0179 559.522 82.0096 559.122 81.9929C558.722 81.9596 558.272 81.8763 557.772 81.7429C557.256 81.6096 556.864 81.4179 556.597 81.1679C556.331 80.9179 556.097 80.5513 555.897 80.0679C555.714 79.5679 555.622 78.9846 555.622 78.3179V76.1179C555.622 75.3513 555.739 74.6846 555.972 74.1179C556.206 73.5346 556.506 73.0763 556.872 72.7429C557.206 72.4596 557.639 72.2263 558.172 72.0429C558.722 71.8596 559.264 71.7429 559.797 71.6929C560.431 71.6596 561.006 71.6429 561.522 71.6429C562.306 71.6429 562.922 71.6679 563.372 71.7179C563.839 71.7513 564.331 71.8513 564.847 72.0179C565.397 72.2013 565.839 72.4513 566.172 72.7679C566.522 73.0679 566.814 73.5013 567.047 74.0679C567.281 74.6679 567.397 75.3513 567.397 76.1179V83.6679C567.397 85.3513 566.889 86.5596 565.872 87.2929C564.872 88.0096 563.256 88.3679 561.022 88.3679ZM563.772 79.5929V75.7929C563.772 75.2263 563.722 74.8346 563.622 74.6179C563.539 74.4013 563.347 74.2596 563.047 74.1929C562.764 74.1263 562.239 74.0929 561.472 74.0929C560.772 74.0929 560.272 74.1346 559.972 74.2179C559.689 74.2846 559.497 74.4346 559.397 74.6679C559.297 74.8846 559.247 75.2596 559.247 75.7929V78.2679C559.247 78.6679 559.297 78.9596 559.397 79.1429C559.497 79.3096 559.697 79.4263 559.997 79.4929C560.314 79.5596 560.814 79.5929 561.497 79.5929H563.772ZM575.999 88.3679C573.849 88.3679 572.274 88.1013 571.274 87.5679C570.291 87.0346 569.799 86.1096 569.799 84.7929V81.9929C569.799 81.4596 570.066 80.9596 570.599 80.4929C571.133 80.0263 571.766 79.7096 572.499 79.5429V79.4429C571.933 79.3763 571.433 79.1429 570.999 78.7429C570.566 78.3429 570.349 77.8846 570.349 77.3679V75.0429C570.349 73.8763 570.774 73.0179 571.624 72.4679C572.491 71.9179 573.949 71.6429 575.999 71.6429C578.049 71.6429 579.499 71.9179 580.349 72.4679C581.216 73.0179 581.649 73.8763 581.649 75.0429V77.3679C581.649 77.8846 581.433 78.3429 580.999 78.7429C580.566 79.1429 580.066 79.3763 579.499 79.4429V79.5429C580.233 79.7096 580.866 80.0263 581.399 80.4929C581.933 80.9596 582.199 81.4596 582.199 81.9929V84.7929C582.199 86.1429 581.691 87.0763 580.674 87.5929C579.658 88.1096 578.099 88.3679 575.999 88.3679ZM575.999 78.5679C576.733 78.5679 577.241 78.4679 577.524 78.2679C577.824 78.0513 577.974 77.7096 577.974 77.2429V75.3679C577.974 74.8846 577.824 74.5429 577.524 74.3429C577.241 74.1263 576.733 74.0179 575.999 74.0179C575.266 74.0179 574.749 74.1263 574.449 74.3429C574.166 74.5429 574.024 74.8846 574.024 75.3679V77.2429C574.024 77.6763 574.166 78.0096 574.449 78.2429C574.716 78.4596 575.233 78.5679 575.999 78.5679ZM575.999 85.9929C576.716 85.9929 577.233 85.9513 577.549 85.8679C577.883 85.7846 578.099 85.6429 578.199 85.4429C578.316 85.2429 578.374 84.9263 578.374 84.4929V82.2929C578.374 81.8096 578.233 81.4513 577.949 81.2179C577.666 81.0013 577.024 80.8929 576.024 80.8929C575.074 80.8929 574.433 81.0013 574.099 81.2179C573.783 81.4179 573.624 81.7763 573.624 82.2929V84.4929C573.624 84.9263 573.674 85.2429 573.774 85.4429C573.891 85.6429 574.108 85.7846 574.424 85.8679C574.758 85.9513 575.283 85.9929 575.999 85.9929Z" fill="#010F2C"/>
<path d="M1108.14 109.871V125.871H1120.14V109.871H1130.46L1132.14 107.471H1120.14V69.8707H1108.14V107.471H1080.14L1106.54 69.8707H1103.58L1075.5 109.871H1108.14ZM1173.4 92.8307C1164.84 91.0707 1145.24 87.1507 1147.4 78.3507C1148.52 73.7907 1155.48 70.5907 1165.56 70.6707C1174.44 70.7507 1183.16 74.1907 1183.32 82.4307C1183.4 88.4307 1179.32 91.1507 1173.4 92.8307ZM1176.6 93.9507C1184.44 92.2707 1190.84 89.5507 1190.84 82.3507C1190.84 73.6307 1180.6 68.2707 1165.56 68.2707C1147.48 68.2707 1138.52 73.4707 1138.44 82.7507C1138.36 90.1907 1144.52 94.0307 1152.52 96.6707C1143.8 98.4307 1136.44 101.711 1136.44 110.591C1136.44 119.631 1146.6 127.391 1165.56 127.471C1184.76 127.551 1196.68 121.791 1196.68 110.991C1196.68 101.311 1187.08 96.9907 1176.6 93.9507ZM1156.36 97.8707C1169.4 101.551 1184.92 103.951 1185.32 111.951C1185.8 121.711 1175.96 125.071 1165.56 125.071C1153.16 125.071 1144.68 119.231 1144.76 110.511C1144.84 103.311 1149.72 99.8707 1156.36 97.8707Z" fill="#0A0A09"/>
<rect x="1286.38" y="0.668457" width="33.618" height="190.831" rx="16.809" fill="#C4C4C4"/>
</svg>
