<svg width="1320" height="192" viewBox="0 0 1320 192" fill="none" xmlns="http://www.w3.org/2000/svg">
<path fill-rule="evenodd" clip-rule="evenodd" d="M1284.84 19.2416C1286.41 15.0699 1286.41 11.0939 1286.41 11.0939L1288.37 19.2416H1303.19V169.775H1289.66L1286.88 181.326C1286.88 181.326 1286.88 174.866 1283.61 169.775H75.2668C33.6981 169.775 0 136.077 0 94.5085C0 52.9398 33.6981 19.2416 75.2668 19.2416H1284.84Z" fill="#DCDCDC"/>
<path d="M0 94.5085C0 52.9398 33.6981 19.2417 75.2668 19.2417H608.288V169.775H75.2669C33.6982 169.775 0 136.077 0 94.5085Z" fill="#BAC7F6"/>
<path d="M5 94.5085C5 55.7012 36.4595 24.2417 75.2668 24.2417H603.288V164.775H75.2669C36.4596 164.775 5 133.316 5 94.5085Z" stroke="#DCDCDC" stroke-opacity="0.94" stroke-width="10"/>
<path opacity="0.1" fill-rule="evenodd" clip-rule="evenodd" d="M1285.36 170.098C1293.27 175.267 1286.81 168.16 1286.81 168.16V163.318C1294.88 163.316 1299.17 163.315 1299.17 163.315L1294.58 160.315C1294.35 160.161 1294.12 159.99 1293.91 159.804C1291.72 157.854 1289.34 156.168 1286.81 154.762V154.27L1286.27 154.464C1280.53 151.39 1274.09 149.747 1267.48 149.747H1267.04H111.978C102.585 149.747 93.2003 148.581 84.3847 145.339C74.2914 141.627 60.8146 135.754 52.4045 128.427C48.8879 125.363 46.1773 123.08 43.9696 121.221C36.8661 115.239 34.9687 113.641 28.1798 104.522C17.499 90.177 11.8652 86.7556 10.8764 105.492C10.3502 115.461 15.638 125.881 22.4493 134.231C32.5948 146.67 47.3145 156.317 63.143 158.982C71.6857 160.42 80.1831 160.753 84.3839 160.918C85.7164 160.97 86.6167 161.005 86.9489 161.053C91.3983 161.699 101.286 162.992 107.219 163.315C112.563 163.606 1075.76 163.372 1266.55 163.323C1271.29 164.326 1279.87 166.512 1285.36 170.098Z" fill="black"/>
<path opacity="0.4" fill-rule="evenodd" clip-rule="evenodd" d="M1285.42 18.9188C1293.33 13.7503 1286.88 20.857 1286.88 20.857V30.9047L1287.35 31.0222C1288.88 31.4056 1289.41 33.3157 1288.29 34.4336C1288.01 34.7117 1287.66 34.9032 1287.28 34.985L1272.54 38.1158C1268.92 38.8832 1265.24 39.27 1261.55 39.27H222.172C209.598 39.27 196.92 37.2431 184.309 35.227C177.657 34.1634 171.023 33.1029 164.433 32.3445C156.821 31.4684 147.425 30.8711 135.955 30.8711C132.229 30.8711 126.493 30.8228 119.96 30.7678C103.735 30.6312 82.5951 30.4532 75.1461 30.8711C59.4779 31.7502 54.5308 32.2478 54.4928 31.9979C54.4721 31.8622 55.899 31.5061 57.8427 30.8711C63.2894 29.0916 72.9555 28.6907 79.9004 28.4026C83.0413 28.2723 85.6257 28.165 87.0113 27.9639C89.5847 27.5902 118.782 27.7568 144.094 27.9012C162.548 28.0065 178.937 28.1 181.438 27.9638C187.371 27.6408 1052.54 28.9329 1052.54 28.9329L1265.17 25.9876C1269.39 25.1651 1279.32 22.9079 1285.42 18.9188Z" fill="white"/>
<rect x="92.9438" y="38.8147" width="911.64" height="81.0787" rx="7" fill="#F3F3F3"/>
<path d="M127.392 110.608C125.992 110.608 124.692 110.241 123.492 109.508C122.292 108.775 121.338 107.801 120.632 106.588C119.938 105.361 119.592 104.048 119.592 102.648C119.592 101.261 119.945 99.968 120.652 98.768C121.358 97.5547 122.312 96.5947 123.512 95.888C124.712 95.168 126.012 94.808 127.412 94.808C128.825 94.808 130.125 95.1613 131.312 95.868C132.498 96.5747 133.438 97.5347 134.132 98.748C134.838 99.948 135.192 101.248 135.192 102.648C135.192 104.088 134.838 105.421 134.132 106.648C133.438 107.861 132.492 108.828 131.292 109.548C130.105 110.255 128.805 110.608 127.392 110.608ZM127.392 110.028C128.672 110.028 129.858 109.701 130.952 109.048C132.045 108.381 132.912 107.488 133.552 106.368C134.205 105.235 134.532 104.008 134.532 102.688C134.532 101.381 134.212 100.168 133.572 99.048C132.932 97.928 132.065 97.0413 130.972 96.388C129.878 95.7213 128.692 95.388 127.412 95.388C126.118 95.388 124.925 95.7213 123.832 96.388C122.738 97.0413 121.865 97.928 121.212 99.048C120.572 100.168 120.252 101.381 120.252 102.688C120.252 104.008 120.572 105.235 121.212 106.368C121.865 107.488 122.738 108.381 123.832 109.048C124.925 109.701 126.112 110.028 127.392 110.028ZM139.872 101.788H136.432V101.228H143.952V101.788H140.512V110.208H139.872V101.788ZM152.68 109.628V112.148H152.12V110.208H143.48V112.148H142.92V109.648H143.66L147.84 100.948L152.02 109.628H152.68ZM151.38 109.628L147.84 102.268L144.3 109.628H151.38ZM158.432 109.888C159.126 109.888 159.786 109.708 160.412 109.348C161.039 108.988 161.559 108.495 161.972 107.868V108.888C161.479 109.435 160.939 109.835 160.352 110.088C159.766 110.328 159.099 110.448 158.352 110.448C157.526 110.448 156.746 110.228 156.012 109.788C155.292 109.348 154.712 108.761 154.272 108.028C153.846 107.295 153.632 106.515 153.632 105.688C153.632 104.795 153.846 103.995 154.272 103.288C154.699 102.568 155.279 102.008 156.012 101.608C156.759 101.208 157.586 101.008 158.492 101.008C159.879 101.008 161.059 101.555 162.032 102.648L155.752 108.848C156.192 109.208 156.619 109.475 157.032 109.648C157.446 109.808 157.912 109.888 158.432 109.888ZM154.272 105.628C154.272 106.735 154.639 107.681 155.372 108.468L161.232 102.648C160.792 102.261 160.366 101.988 159.952 101.828C159.539 101.655 159.046 101.568 158.472 101.568C157.659 101.568 156.932 101.748 156.292 102.108C155.666 102.455 155.172 102.935 154.812 103.548C154.452 104.161 154.272 104.855 154.272 105.628ZM170.937 110.208L167.177 102.388L163.417 110.208H162.777L167.197 100.948L171.637 110.208H170.937ZM173.335 101.208H173.975V104.308H174.955C175.889 104.308 176.609 104.568 177.115 105.088C177.622 105.595 177.875 106.321 177.875 107.268C177.875 107.801 177.742 108.295 177.475 108.748C177.209 109.201 176.849 109.561 176.395 109.828C175.942 110.081 175.442 110.208 174.895 110.208H173.335V101.208ZM174.915 109.668C175.569 109.668 176.122 109.435 176.575 108.968C177.029 108.501 177.255 107.935 177.255 107.268C177.255 106.495 177.049 105.901 176.635 105.488C176.235 105.061 175.662 104.848 174.915 104.848H173.975V109.668H174.915ZM180.171 101.208H180.811V106.268H186.911V101.208H187.551V110.208H186.911V106.828H180.811V110.208H180.171V101.208ZM190.542 101.208H191.182V104.308H192.162C193.096 104.308 193.816 104.568 194.322 105.088C194.829 105.595 195.082 106.321 195.082 107.268C195.082 107.801 194.949 108.295 194.682 108.748C194.416 109.201 194.056 109.561 193.602 109.828C193.149 110.081 192.649 110.208 192.102 110.208H190.542V101.208ZM196.862 101.208H197.482V110.208H196.862V101.208ZM192.122 109.668C192.776 109.668 193.329 109.435 193.782 108.968C194.236 108.501 194.462 107.935 194.462 107.268C194.462 106.495 194.256 105.901 193.842 105.488C193.442 105.061 192.869 104.848 192.122 104.848H191.182V109.668H192.122ZM200.484 101.208H201.104V109.308L207.564 101.208H208.144V110.208H207.524V102.128L201.044 110.208H200.484V101.208ZM204.324 98.628C203.43 98.628 202.73 98.408 202.224 97.968C201.717 97.528 201.45 96.9747 201.424 96.308H201.984C202.024 96.8147 202.25 97.2347 202.664 97.568C203.09 97.9013 203.637 98.068 204.304 98.068C204.957 98.068 205.49 97.9013 205.904 97.568C206.33 97.2347 206.577 96.8147 206.644 96.308H207.204C207.177 96.9613 206.904 97.5147 206.384 97.968C205.864 98.408 205.177 98.628 204.324 98.628ZM215.302 101.208H215.942V103.408C216.302 102.688 216.862 102.108 217.622 101.668C218.382 101.215 219.182 100.988 220.022 100.988C220.889 100.988 221.682 101.201 222.402 101.628C223.136 102.055 223.716 102.628 224.142 103.348C224.569 104.068 224.782 104.855 224.782 105.708C224.782 106.561 224.569 107.348 224.142 108.068C223.716 108.788 223.136 109.361 222.402 109.788C221.682 110.215 220.889 110.428 220.022 110.428C219.209 110.428 218.422 110.208 217.662 109.768C216.916 109.328 216.342 108.748 215.942 108.028V114.208H215.302V101.208ZM220.062 109.868C220.796 109.868 221.476 109.681 222.102 109.308C222.729 108.921 223.222 108.415 223.582 107.788C223.956 107.148 224.142 106.455 224.142 105.708C224.142 104.975 223.956 104.288 223.582 103.648C223.209 103.008 222.709 102.501 222.082 102.128C221.456 101.741 220.776 101.548 220.042 101.548C219.309 101.548 218.622 101.741 217.982 102.128C217.356 102.515 216.849 103.028 216.462 103.668C216.089 104.308 215.902 104.995 215.902 105.728C215.902 106.461 216.089 107.148 216.462 107.788C216.849 108.415 217.362 108.921 218.002 109.308C218.642 109.681 219.329 109.868 220.062 109.868ZM231.167 109.888C231.86 109.888 232.52 109.708 233.147 109.348C233.773 108.988 234.293 108.495 234.707 107.868V108.888C234.213 109.435 233.673 109.835 233.087 110.088C232.5 110.328 231.833 110.448 231.087 110.448C230.26 110.448 229.48 110.228 228.747 109.788C228.027 109.348 227.447 108.761 227.007 108.028C226.58 107.295 226.367 106.515 226.367 105.688C226.367 104.795 226.58 103.995 227.007 103.288C227.433 102.568 228.013 102.008 228.747 101.608C229.493 101.208 230.32 101.008 231.227 101.008C232.613 101.008 233.793 101.555 234.767 102.648L228.487 108.848C228.927 109.208 229.353 109.475 229.767 109.648C230.18 109.808 230.647 109.888 231.167 109.888ZM227.007 105.628C227.007 106.735 227.373 107.681 228.107 108.468L233.967 102.648C233.527 102.261 233.1 101.988 232.687 101.828C232.273 101.655 231.78 101.568 231.207 101.568C230.393 101.568 229.667 101.748 229.027 102.108C228.4 102.455 227.907 102.935 227.547 103.548C227.187 104.161 227.007 104.855 227.007 105.628ZM237.007 101.208H237.627V109.308L244.087 101.208H244.667V110.208H244.047V102.128L237.567 110.208H237.007V101.208ZM240.847 98.628C239.954 98.628 239.254 98.408 238.747 97.968C238.24 97.528 237.974 96.9747 237.947 96.308H238.507C238.547 96.8147 238.774 97.2347 239.187 97.568C239.614 97.9013 240.16 98.068 240.827 98.068C241.48 98.068 242.014 97.9013 242.427 97.568C242.854 97.2347 243.1 96.8147 243.167 96.308H243.727C243.7 96.9613 243.427 97.5147 242.907 97.968C242.387 98.408 241.7 98.628 240.847 98.628ZM249.911 101.788H246.471V101.228H253.991V101.788H250.551V110.208H249.911V101.788ZM255.796 101.208H256.416V109.308L262.876 101.208H263.456V110.208H262.836V102.128L256.356 110.208H255.796V101.208ZM266.46 101.208H267.1V106.268H273.2V101.208H273.84V110.208H273.2V106.828H267.1V110.208H266.46V101.208ZM276.831 101.228H280.811V101.788H277.471V110.208H276.831V101.228ZM286.669 101.208H287.309V103.408C287.669 102.688 288.229 102.108 288.989 101.668C289.749 101.215 290.549 100.988 291.389 100.988C292.256 100.988 293.049 101.201 293.769 101.628C294.503 102.055 295.083 102.628 295.509 103.348C295.936 104.068 296.149 104.855 296.149 105.708C296.149 106.561 295.936 107.348 295.509 108.068C295.083 108.788 294.503 109.361 293.769 109.788C293.049 110.215 292.256 110.428 291.389 110.428C290.576 110.428 289.789 110.208 289.029 109.768C288.283 109.328 287.709 108.748 287.309 108.028V114.208H286.669V101.208ZM291.429 109.868C292.163 109.868 292.843 109.681 293.469 109.308C294.096 108.921 294.589 108.415 294.949 107.788C295.323 107.148 295.509 106.455 295.509 105.708C295.509 104.975 295.323 104.288 294.949 103.648C294.576 103.008 294.076 102.501 293.449 102.128C292.823 101.741 292.143 101.548 291.409 101.548C290.676 101.548 289.989 101.741 289.349 102.128C288.723 102.515 288.216 103.028 287.829 103.668C287.456 104.308 287.269 104.995 287.269 105.728C287.269 106.461 287.456 107.148 287.829 107.788C288.216 108.415 288.729 108.921 289.369 109.308C290.009 109.681 290.696 109.868 291.429 109.868ZM302.534 109.888C303.227 109.888 303.887 109.708 304.514 109.348C305.141 108.988 305.661 108.495 306.074 107.868V108.888C305.581 109.435 305.041 109.835 304.454 110.088C303.867 110.328 303.201 110.448 302.454 110.448C301.627 110.448 300.847 110.228 300.114 109.788C299.394 109.348 298.814 108.761 298.374 108.028C297.947 107.295 297.734 106.515 297.734 105.688C297.734 104.795 297.947 103.995 298.374 103.288C298.801 102.568 299.381 102.008 300.114 101.608C300.861 101.208 301.687 101.008 302.594 101.008C303.981 101.008 305.161 101.555 306.134 102.648L299.854 108.848C300.294 109.208 300.721 109.475 301.134 109.648C301.547 109.808 302.014 109.888 302.534 109.888ZM298.374 105.628C298.374 106.735 298.741 107.681 299.474 108.468L305.334 102.648C304.894 102.261 304.467 101.988 304.054 101.828C303.641 101.655 303.147 101.568 302.574 101.568C301.761 101.568 301.034 101.748 300.394 102.108C299.767 102.455 299.274 102.935 298.914 103.548C298.554 104.161 298.374 104.855 298.374 105.628ZM308.374 101.208H315.614V110.208H314.974V101.768H309.014V110.208H308.374V101.208ZM321.509 110.188L317.209 101.208H317.889L321.849 109.468L325.789 101.208H326.409L320.229 114.208H319.609L321.509 110.188ZM330.243 101.788H326.803V101.228H334.323V101.788H330.883V110.208H330.243V101.788ZM340.128 110.428C339.275 110.428 338.482 110.215 337.748 109.788C337.015 109.361 336.435 108.788 336.008 108.068C335.582 107.335 335.368 106.548 335.368 105.708C335.368 104.868 335.582 104.088 336.008 103.368C336.435 102.635 337.015 102.055 337.748 101.628C338.482 101.201 339.275 100.988 340.128 100.988C340.995 100.988 341.815 101.221 342.588 101.688C343.362 102.141 343.902 102.735 344.208 103.468V101.208H344.848V110.208H344.208V107.968C343.848 108.715 343.288 109.315 342.528 109.768C341.782 110.208 340.982 110.428 340.128 110.428ZM340.168 109.868C340.902 109.868 341.582 109.681 342.208 109.308C342.835 108.921 343.328 108.415 343.688 107.788C344.062 107.148 344.248 106.455 344.248 105.708C344.248 104.975 344.062 104.288 343.688 103.648C343.315 103.008 342.815 102.501 342.188 102.128C341.562 101.741 340.882 101.548 340.148 101.548C339.415 101.548 338.728 101.741 338.088 102.128C337.462 102.515 336.955 103.028 336.568 103.668C336.195 104.308 336.008 104.995 336.008 105.728C336.008 106.461 336.195 107.148 336.568 107.788C336.955 108.415 337.468 108.921 338.108 109.308C338.748 109.681 339.435 109.868 340.168 109.868ZM355.713 110.208H347.613V101.208H348.253V109.648H354.213V101.208H354.853V109.628H356.273V112.148H355.713V110.208ZM358.277 101.208H358.897V109.308L365.357 101.208H365.937V110.208H365.317V102.128L358.837 110.208H358.277V101.208ZM368.941 101.208H369.561V109.308L376.021 101.208H376.601V110.208H375.981V102.128L369.501 110.208H368.941V101.208ZM388.039 110.528C387.133 110.528 386.313 110.308 385.579 109.868C384.846 109.415 384.273 108.821 383.859 108.088C383.446 107.341 383.239 106.535 383.239 105.668C383.239 104.815 383.446 104.021 383.859 103.288C384.286 102.555 384.859 101.975 385.579 101.548C386.313 101.108 387.126 100.888 388.019 100.888C388.899 100.888 389.699 101.108 390.419 101.548C391.153 101.975 391.726 102.555 392.139 103.288C392.553 104.021 392.759 104.815 392.759 105.668C392.759 106.561 392.559 107.381 392.159 108.128C391.759 108.861 391.199 109.448 390.479 109.888C389.773 110.315 388.959 110.528 388.039 110.528ZM388.039 109.968C388.799 109.968 389.493 109.775 390.119 109.388C390.746 109.001 391.233 108.488 391.579 107.848C391.939 107.195 392.119 106.481 392.119 105.708C392.119 104.948 391.939 104.241 391.579 103.588C391.219 102.935 390.726 102.415 390.099 102.028C389.473 101.641 388.779 101.448 388.019 101.448C387.259 101.448 386.559 101.648 385.919 102.048C385.293 102.435 384.793 102.955 384.419 103.608C384.059 104.261 383.879 104.968 383.879 105.728C383.879 106.488 384.059 107.195 384.419 107.848C384.793 108.488 385.293 109.001 385.919 109.388C386.559 109.775 387.266 109.968 388.039 109.968ZM396.63 101.788H393.19V101.228H400.71V101.788H397.27V110.208H396.63V101.788ZM410.769 104.808L407.249 101.208H407.969L410.849 104.108V101.208H411.489V104.108L414.369 101.208H415.089L411.569 104.808L416.829 110.208H415.969L411.489 105.588V110.208H410.849V105.588L406.369 110.208H405.509L410.769 104.808ZM420.727 110.188L416.427 101.208H417.107L421.067 109.468L425.007 101.208H425.627L419.447 114.208H418.827L420.727 110.188ZM426.982 101.208H427.622V103.408C427.982 102.688 428.542 102.108 429.302 101.668C430.062 101.215 430.862 100.988 431.702 100.988C432.569 100.988 433.362 101.201 434.082 101.628C434.815 102.055 435.395 102.628 435.822 103.348C436.249 104.068 436.462 104.855 436.462 105.708C436.462 106.561 436.249 107.348 435.822 108.068C435.395 108.788 434.815 109.361 434.082 109.788C433.362 110.215 432.569 110.428 431.702 110.428C430.889 110.428 430.102 110.208 429.342 109.768C428.595 109.328 428.022 108.748 427.622 108.028V114.208H426.982V101.208ZM431.742 109.868C432.475 109.868 433.155 109.681 433.782 109.308C434.409 108.921 434.902 108.415 435.262 107.788C435.635 107.148 435.822 106.455 435.822 105.708C435.822 104.975 435.635 104.288 435.262 103.648C434.889 103.008 434.389 102.501 433.762 102.128C433.135 101.741 432.455 101.548 431.722 101.548C430.989 101.548 430.302 101.741 429.662 102.128C429.035 102.515 428.529 103.028 428.142 103.668C427.769 104.308 427.582 104.995 427.582 105.728C427.582 106.461 427.769 107.148 428.142 107.788C428.529 108.415 429.042 108.921 429.682 109.308C430.322 109.681 431.009 109.868 431.742 109.868ZM438.511 101.208H439.151V106.268H445.251V101.208H445.891V110.208H445.251V106.828H439.151V110.208H438.511V101.208ZM452.882 110.428C452.029 110.428 451.235 110.215 450.502 109.788C449.769 109.361 449.189 108.788 448.762 108.068C448.335 107.335 448.122 106.548 448.122 105.708C448.122 104.868 448.335 104.088 448.762 103.368C449.189 102.635 449.769 102.055 450.502 101.628C451.235 101.201 452.029 100.988 452.882 100.988C453.749 100.988 454.569 101.221 455.342 101.688C456.115 102.141 456.655 102.735 456.962 103.468V101.208H457.602V110.208H456.962V107.968C456.602 108.715 456.042 109.315 455.282 109.768C454.535 110.208 453.735 110.428 452.882 110.428ZM452.922 109.868C453.655 109.868 454.335 109.681 454.962 109.308C455.589 108.921 456.082 108.415 456.442 107.788C456.815 107.148 457.002 106.455 457.002 105.708C457.002 104.975 456.815 104.288 456.442 103.648C456.069 103.008 455.569 102.501 454.942 102.128C454.315 101.741 453.635 101.548 452.902 101.548C452.169 101.548 451.482 101.741 450.842 102.128C450.215 102.515 449.709 103.028 449.322 103.668C448.949 104.308 448.762 104.995 448.762 105.728C448.762 106.461 448.949 107.148 449.322 107.788C449.709 108.415 450.222 108.921 450.862 109.308C451.502 109.681 452.189 109.868 452.922 109.868ZM467.227 110.208L463.467 102.388L459.707 110.208H459.067L463.487 100.948L467.927 110.208H467.227ZM473.624 110.428C472.771 110.428 471.978 110.215 471.244 109.788C470.511 109.361 469.931 108.788 469.504 108.068C469.078 107.335 468.864 106.548 468.864 105.708C468.864 104.868 469.078 104.088 469.504 103.368C469.931 102.635 470.511 102.055 471.244 101.628C471.978 101.201 472.771 100.988 473.624 100.988C474.491 100.988 475.311 101.221 476.084 101.688C476.858 102.141 477.398 102.735 477.704 103.468V101.208H478.344V110.208H477.704V107.968C477.344 108.715 476.784 109.315 476.024 109.768C475.278 110.208 474.478 110.428 473.624 110.428ZM473.664 109.868C474.398 109.868 475.078 109.681 475.704 109.308C476.331 108.921 476.824 108.415 477.184 107.788C477.558 107.148 477.744 106.455 477.744 105.708C477.744 104.975 477.558 104.288 477.184 103.648C476.811 103.008 476.311 102.501 475.684 102.128C475.058 101.741 474.378 101.548 473.644 101.548C472.911 101.548 472.224 101.741 471.584 102.128C470.958 102.515 470.451 103.028 470.064 103.668C469.691 104.308 469.504 104.995 469.504 105.728C469.504 106.461 469.691 107.148 470.064 107.788C470.451 108.415 470.964 108.921 471.604 109.308C472.244 109.681 472.931 109.868 473.664 109.868ZM487.883 95.788H484.423V95.208H491.963V95.788H488.543V110.208H487.883V95.788ZM492.664 99.148C492.478 99.148 492.311 99.0813 492.164 98.948C492.031 98.8147 491.964 98.648 491.964 98.448C491.964 98.2613 492.031 98.1013 492.164 97.968C492.311 97.8347 492.478 97.768 492.664 97.768C492.851 97.768 493.011 97.8347 493.144 97.968C493.291 98.1013 493.364 98.2613 493.364 98.448C493.364 98.648 493.291 98.8147 493.144 98.948C493.011 99.0813 492.851 99.148 492.664 99.148ZM492.344 101.208H492.984V110.208H492.344V101.208ZM495.966 101.208H496.606V102.568C497.22 101.515 498.206 100.988 499.566 100.988C500.22 100.988 500.786 101.175 501.266 101.548C501.746 101.908 502.08 102.455 502.266 103.188C502.44 102.535 502.82 102.008 503.406 101.608C504.006 101.195 504.68 100.988 505.426 100.988C506.4 100.988 507.153 101.275 507.686 101.848C508.22 102.408 508.486 103.208 508.486 104.248V110.208H507.846V104.248C507.846 103.408 507.626 102.748 507.186 102.268C506.76 101.788 506.193 101.548 505.486 101.548C504.953 101.548 504.46 101.681 504.006 101.948C503.553 102.201 503.193 102.548 502.926 102.988C502.66 103.428 502.526 103.915 502.526 104.448V110.208H501.886V104.608C501.886 103.648 501.66 102.901 501.206 102.368C500.753 101.821 500.166 101.548 499.446 101.548C498.966 101.548 498.506 101.668 498.066 101.908C497.64 102.148 497.286 102.475 497.006 102.888C496.74 103.288 496.606 103.728 496.606 104.208V110.208H495.966V101.208ZM515.385 109.888C516.079 109.888 516.739 109.708 517.365 109.348C517.992 108.988 518.512 108.495 518.925 107.868V108.888C518.432 109.435 517.892 109.835 517.305 110.088C516.719 110.328 516.052 110.448 515.305 110.448C514.479 110.448 513.699 110.228 512.965 109.788C512.245 109.348 511.665 108.761 511.225 108.028C510.799 107.295 510.585 106.515 510.585 105.688C510.585 104.795 510.799 103.995 511.225 103.288C511.652 102.568 512.232 102.008 512.965 101.608C513.712 101.208 514.539 101.008 515.445 101.008C516.832 101.008 518.012 101.555 518.985 102.648L512.705 108.848C513.145 109.208 513.572 109.475 513.985 109.648C514.399 109.808 514.865 109.888 515.385 109.888ZM511.225 105.628C511.225 106.735 511.592 107.681 512.325 108.468L518.185 102.648C517.745 102.261 517.319 101.988 516.905 101.828C516.492 101.655 515.999 101.568 515.425 101.568C514.612 101.568 513.885 101.748 513.245 102.108C512.619 102.455 512.125 102.935 511.765 103.548C511.405 104.161 511.225 104.855 511.225 105.628ZM523.166 110.428C522.526 110.428 521.959 110.321 521.466 110.108C520.973 109.881 520.619 109.595 520.406 109.248V108.188C520.659 108.761 521.006 109.188 521.446 109.468C521.886 109.735 522.446 109.868 523.126 109.868C523.779 109.868 524.306 109.668 524.706 109.268C525.106 108.855 525.306 108.328 525.306 107.688C525.306 107.141 525.193 106.721 524.966 106.428C524.739 106.121 524.373 105.815 523.866 105.508L523.106 105.068C522.559 104.735 522.146 104.475 521.866 104.288C521.599 104.088 521.386 103.868 521.226 103.628C521.066 103.375 520.986 103.081 520.986 102.748C520.986 102.215 521.173 101.788 521.546 101.468C521.919 101.148 522.406 100.988 523.006 100.988C523.739 100.988 524.353 101.155 524.846 101.488V102.368C524.433 101.821 523.839 101.548 523.066 101.548C522.639 101.548 522.293 101.655 522.026 101.868C521.759 102.081 521.626 102.355 521.626 102.688C521.626 102.981 521.706 103.241 521.866 103.468C522.026 103.681 522.246 103.881 522.526 104.068C522.819 104.255 523.299 104.535 523.966 104.908C524.646 105.295 525.146 105.695 525.466 106.108C525.786 106.508 525.946 107.035 525.946 107.688C525.946 108.515 525.673 109.181 525.126 109.688C524.593 110.181 523.939 110.428 523.166 110.428ZM532.654 95.208H533.314V103.908H543.594V95.208H544.254V110.208H543.594V104.488H533.314V110.208H532.654V95.208ZM547.879 99.148C547.693 99.148 547.526 99.0813 547.379 98.948C547.246 98.8147 547.179 98.648 547.179 98.448C547.179 98.2613 547.246 98.1013 547.379 97.968C547.526 97.8347 547.693 97.768 547.879 97.768C548.066 97.768 548.226 97.8347 548.359 97.968C548.506 98.1013 548.579 98.2613 548.579 98.448C548.579 98.648 548.506 98.8147 548.359 98.948C548.226 99.0813 548.066 99.148 547.879 99.148ZM547.559 101.208H548.199V110.208H547.559V101.208ZM555.521 114.368C554.761 114.368 554.021 114.195 553.301 113.848C552.581 113.501 552.021 113.048 551.621 112.488V111.568C551.968 112.208 552.508 112.741 553.241 113.168C553.988 113.595 554.748 113.808 555.521 113.808C556.801 113.808 557.788 113.428 558.481 112.668C559.175 111.921 559.521 110.821 559.521 109.368V108.028C559.161 108.748 558.595 109.335 557.821 109.788C557.061 110.228 556.261 110.448 555.421 110.448C554.568 110.448 553.775 110.235 553.041 109.808C552.308 109.381 551.728 108.808 551.301 108.088C550.875 107.355 550.661 106.568 550.661 105.728C550.661 104.888 550.875 104.108 551.301 103.388C551.728 102.655 552.308 102.075 553.041 101.648C553.775 101.221 554.568 101.008 555.421 101.008C556.301 101.008 557.115 101.228 557.861 101.668C558.608 102.108 559.161 102.701 559.521 103.448V101.208H560.161V109.368C560.161 111.008 559.761 112.248 558.961 113.088C558.175 113.941 557.028 114.368 555.521 114.368ZM555.461 109.888C556.195 109.888 556.875 109.701 557.501 109.328C558.128 108.941 558.621 108.435 558.981 107.808C559.355 107.168 559.541 106.475 559.541 105.728C559.541 104.981 559.355 104.295 558.981 103.668C558.621 103.028 558.128 102.521 557.501 102.148C556.875 101.761 556.195 101.568 555.461 101.568C554.715 101.568 554.021 101.761 553.381 102.148C552.755 102.521 552.248 103.028 551.861 103.668C551.488 104.295 551.301 104.981 551.301 105.728C551.301 106.475 551.488 107.168 551.861 107.808C552.248 108.435 552.755 108.941 553.381 109.328C554.021 109.701 554.715 109.888 555.461 109.888ZM562.685 95.208H563.325V103.068C563.605 102.468 564.078 101.975 564.745 101.588C565.425 101.188 566.112 100.988 566.805 100.988C568.072 100.988 569.045 101.335 569.725 102.028C570.418 102.721 570.765 103.701 570.765 104.968V110.208H570.125V104.968C570.125 103.875 569.832 103.035 569.245 102.448C568.672 101.848 567.858 101.548 566.805 101.548C566.165 101.548 565.578 101.701 565.045 102.008C564.512 102.301 564.092 102.715 563.785 103.248C563.478 103.768 563.325 104.341 563.325 104.968V110.208H562.685V95.208ZM577.671 109.888C578.364 109.888 579.024 109.708 579.651 109.348C580.277 108.988 580.797 108.495 581.211 107.868V108.888C580.717 109.435 580.177 109.835 579.591 110.088C579.004 110.328 578.337 110.448 577.591 110.448C576.764 110.448 575.984 110.228 575.251 109.788C574.531 109.348 573.951 108.761 573.511 108.028C573.084 107.295 572.871 106.515 572.871 105.688C572.871 104.795 573.084 103.995 573.511 103.288C573.937 102.568 574.517 102.008 575.251 101.608C575.997 101.208 576.824 101.008 577.731 101.008C579.117 101.008 580.297 101.555 581.271 102.648L574.991 108.848C575.431 109.208 575.857 109.475 576.271 109.648C576.684 109.808 577.151 109.888 577.671 109.888ZM573.511 105.628C573.511 106.735 573.877 107.681 574.611 108.468L580.471 102.648C580.031 102.261 579.604 101.988 579.191 101.828C578.777 101.655 578.284 101.568 577.711 101.568C576.897 101.568 576.171 101.748 575.531 102.108C574.904 102.455 574.411 102.935 574.051 103.548C573.691 104.161 573.511 104.855 573.511 105.628ZM583.271 101.208H583.911V103.288C584.178 102.635 584.564 102.121 585.071 101.748C585.591 101.375 586.178 101.188 586.831 101.188C587.244 101.188 587.664 101.275 588.091 101.448V102.188C587.704 101.895 587.271 101.748 586.791 101.748C586.311 101.748 585.844 101.895 585.391 102.188C584.951 102.481 584.591 102.875 584.311 103.368C584.044 103.861 583.911 104.388 583.911 104.948V110.208H583.271V101.208ZM594.392 95.208H599.772V95.788H595.052V103.948H598.992V104.528H595.052V109.628H599.772V110.208H594.392V95.208ZM605.792 110.428C604.926 110.428 604.126 110.215 603.392 109.788C602.672 109.361 602.099 108.788 601.672 108.068C601.246 107.348 601.032 106.561 601.032 105.708C601.032 104.855 601.246 104.068 601.672 103.348C602.099 102.628 602.672 102.055 603.392 101.628C604.126 101.201 604.926 100.988 605.792 100.988C606.632 100.988 607.432 101.215 608.192 101.668C608.952 102.108 609.512 102.688 609.872 103.408V95.208H610.512V110.208H609.872V108.028C609.472 108.748 608.892 109.328 608.132 109.768C607.386 110.208 606.606 110.428 605.792 110.428ZM605.772 109.868C606.506 109.868 607.186 109.681 607.812 109.308C608.452 108.921 608.959 108.415 609.332 107.788C609.719 107.148 609.912 106.461 609.912 105.728C609.912 104.995 609.719 104.308 609.332 103.668C608.959 103.028 608.452 102.515 607.812 102.128C607.186 101.741 606.506 101.548 605.772 101.548C605.039 101.548 604.359 101.741 603.732 102.128C603.106 102.501 602.606 103.008 602.232 103.648C601.859 104.288 601.672 104.975 601.672 105.708C601.672 106.455 601.852 107.148 602.212 107.788C602.586 108.415 603.086 108.921 603.712 109.308C604.352 109.681 605.039 109.868 605.772 109.868ZM616.997 110.428C615.73 110.428 614.75 110.081 614.057 109.388C613.377 108.695 613.037 107.715 613.037 106.448V101.208H613.677V106.448C613.677 107.541 613.963 108.388 614.537 108.988C615.123 109.575 615.943 109.868 616.997 109.868C617.637 109.868 618.223 109.728 618.757 109.448C619.29 109.155 619.71 108.748 620.017 108.228C620.323 107.708 620.477 107.115 620.477 106.448V101.208H621.117V110.208H620.477V108.528C620.17 109.088 619.71 109.548 619.097 109.908C618.483 110.255 617.783 110.428 616.997 110.428ZM627.882 110.468C627.015 110.468 626.215 110.261 625.482 109.848C624.762 109.435 624.189 108.868 623.762 108.148C623.335 107.428 623.122 106.615 623.122 105.708C623.122 104.868 623.335 104.095 623.762 103.388C624.189 102.668 624.769 102.095 625.502 101.668C626.249 101.241 627.069 101.028 627.962 101.028C628.709 101.028 629.349 101.148 629.882 101.388C630.415 101.628 630.935 102.001 631.442 102.508V103.588C631.002 102.935 630.509 102.441 629.962 102.108C629.429 101.761 628.762 101.588 627.962 101.588C627.229 101.588 626.535 101.781 625.882 102.168C625.242 102.541 624.729 103.048 624.342 103.688C623.955 104.328 623.762 105.015 623.762 105.748C623.762 106.548 623.949 107.268 624.322 107.908C624.695 108.535 625.195 109.028 625.822 109.388C626.462 109.735 627.149 109.908 627.882 109.908C629.375 109.908 630.562 109.235 631.442 107.888V108.968C630.962 109.475 630.429 109.855 629.842 110.108C629.269 110.348 628.615 110.468 627.882 110.468ZM637.452 110.428C636.599 110.428 635.806 110.215 635.072 109.788C634.339 109.361 633.759 108.788 633.332 108.068C632.906 107.335 632.692 106.548 632.692 105.708C632.692 104.868 632.906 104.088 633.332 103.368C633.759 102.635 634.339 102.055 635.072 101.628C635.806 101.201 636.599 100.988 637.452 100.988C638.319 100.988 639.139 101.221 639.912 101.688C640.686 102.141 641.226 102.735 641.532 103.468V101.208H642.172V110.208H641.532V107.968C641.172 108.715 640.612 109.315 639.852 109.768C639.106 110.208 638.306 110.428 637.452 110.428ZM637.492 109.868C638.226 109.868 638.906 109.681 639.532 109.308C640.159 108.921 640.652 108.415 641.012 107.788C641.386 107.148 641.572 106.455 641.572 105.708C641.572 104.975 641.386 104.288 641.012 103.648C640.639 103.008 640.139 102.501 639.512 102.128C638.886 101.741 638.206 101.548 637.472 101.548C636.739 101.548 636.052 101.741 635.412 102.128C634.786 102.515 634.279 103.028 633.892 103.668C633.519 104.308 633.332 104.995 633.332 105.728C633.332 106.461 633.519 107.148 633.892 107.788C634.279 108.415 634.792 108.921 635.432 109.308C636.072 109.681 636.759 109.868 637.492 109.868ZM647.917 110.328C646.93 110.328 646.11 110.028 645.457 109.428C644.817 108.828 644.497 108.001 644.497 106.948V97.588H645.137V101.208H647.897V101.768H645.137V106.948C645.137 107.828 645.397 108.521 645.917 109.028C646.45 109.521 647.117 109.768 647.917 109.768V110.328ZM650.379 99.148C650.193 99.148 650.026 99.0813 649.879 98.948C649.746 98.8147 649.679 98.648 649.679 98.448C649.679 98.2613 649.746 98.1013 649.879 97.968C650.026 97.8347 650.193 97.768 650.379 97.768C650.566 97.768 650.726 97.8347 650.859 97.968C651.006 98.1013 651.079 98.2613 651.079 98.448C651.079 98.648 651.006 98.8147 650.859 98.948C650.726 99.0813 650.566 99.148 650.379 99.148ZM650.059 101.208H650.699V110.208H650.059V101.208ZM657.961 110.528C657.055 110.528 656.235 110.308 655.501 109.868C654.768 109.415 654.195 108.821 653.781 108.088C653.368 107.341 653.161 106.535 653.161 105.668C653.161 104.815 653.368 104.021 653.781 103.288C654.208 102.555 654.781 101.975 655.501 101.548C656.235 101.108 657.048 100.888 657.941 100.888C658.821 100.888 659.621 101.108 660.341 101.548C661.075 101.975 661.648 102.555 662.061 103.288C662.475 104.021 662.681 104.815 662.681 105.668C662.681 106.561 662.481 107.381 662.081 108.128C661.681 108.861 661.121 109.448 660.401 109.888C659.695 110.315 658.881 110.528 657.961 110.528ZM657.961 109.968C658.721 109.968 659.415 109.775 660.041 109.388C660.668 109.001 661.155 108.488 661.501 107.848C661.861 107.195 662.041 106.481 662.041 105.708C662.041 104.948 661.861 104.241 661.501 103.588C661.141 102.935 660.648 102.415 660.021 102.028C659.395 101.641 658.701 101.448 657.941 101.448C657.181 101.448 656.481 101.648 655.841 102.048C655.215 102.435 654.715 102.955 654.341 103.608C653.981 104.261 653.801 104.968 653.801 105.728C653.801 106.488 653.981 107.195 654.341 107.848C654.715 108.488 655.215 109.001 655.841 109.388C656.481 109.775 657.188 109.968 657.961 109.968ZM664.482 101.208H665.122V103.208C665.415 102.541 665.915 102.008 666.622 101.608C667.329 101.195 668.109 100.988 668.962 100.988C670.069 100.988 670.942 101.341 671.582 102.048C672.235 102.741 672.562 103.715 672.562 104.968V110.208H671.922V104.968C671.922 103.888 671.655 103.048 671.122 102.448C670.602 101.848 669.869 101.548 668.922 101.548C668.229 101.548 667.589 101.708 667.002 102.028C666.429 102.335 665.969 102.761 665.622 103.308C665.289 103.855 665.122 104.475 665.122 105.168V110.208H664.482V101.208ZM675.207 110.388C675.021 110.388 674.854 110.321 674.707 110.188C674.574 110.055 674.507 109.888 674.507 109.688C674.507 109.501 674.574 109.341 674.707 109.208C674.854 109.075 675.021 109.008 675.207 109.008C675.394 109.008 675.554 109.075 675.687 109.208C675.834 109.341 675.907 109.501 675.907 109.688C675.907 109.888 675.834 110.055 675.687 110.188C675.554 110.321 675.394 110.388 675.207 110.388Z" fill="black"/>
<path d="M124.752 53.1774H119.252V51.4774H132.677V53.1774H127.202V67.7024H124.752V53.1774ZM135.226 50.2024H137.476V57.0774C137.709 55.9274 139.034 55.3524 141.451 55.3524C143.001 55.3524 144.084 55.6357 144.701 56.2024C145.334 56.7524 145.651 57.6274 145.651 58.8274V67.7024H143.401V58.9774C143.401 58.6607 143.376 58.4024 143.326 58.2024C143.276 58.0024 143.176 57.8024 143.026 57.6024C142.692 57.1857 141.951 56.9774 140.801 56.9774C139.884 56.9774 139.184 57.0441 138.701 57.1774C138.234 57.2941 137.909 57.4941 137.726 57.7774C137.559 58.0607 137.476 58.4607 137.476 58.9774V67.7024H135.226V50.2024ZM154.657 67.9524C150.957 67.9524 149.107 66.7191 149.107 64.2524V59.4774C149.107 58.0107 149.523 56.9607 150.357 56.3274C151.207 55.6774 152.573 55.3524 154.457 55.3524C156.24 55.3524 157.523 55.6607 158.307 56.2774C159.107 56.8941 159.507 57.9607 159.507 59.4774V62.1524H151.382V63.9774C151.382 64.8107 151.673 65.4107 152.257 65.7774C152.84 66.1441 153.74 66.3274 154.957 66.3274C156.107 66.3274 157.465 66.1274 159.032 65.7274V67.4524C157.498 67.7857 156.04 67.9524 154.657 67.9524ZM157.257 60.6774V58.7774C157.257 58.0441 157.032 57.5441 156.582 57.2774C156.148 56.9941 155.398 56.8524 154.332 56.8524C153.298 56.8524 152.548 56.9941 152.082 57.2774C151.615 57.5441 151.382 58.0441 151.382 58.7774V60.6774H157.257ZM172.847 53.1774H167.347V51.4774H180.772V53.1774H175.297V67.7024H172.847V53.1774ZM183.321 51.2274H185.571V53.5774H183.321V51.2274ZM183.321 55.6024H185.571V67.7024H183.321V55.6024ZM189.474 55.6024H191.724V57.0774C191.957 55.9274 193.315 55.3524 195.799 55.3524C197.815 55.3524 199.074 55.9024 199.574 57.0024C199.724 56.4691 200.174 56.0607 200.924 55.7774C201.69 55.4941 202.624 55.3524 203.724 55.3524C205.224 55.3524 206.282 55.6357 206.899 56.2024C207.515 56.7524 207.824 57.6274 207.824 58.8274V67.7024H205.574V58.9774C205.574 58.6607 205.549 58.4024 205.499 58.2024C205.449 58.0024 205.349 57.8024 205.199 57.6024C204.865 57.1857 204.124 56.9774 202.974 56.9774C202.09 56.9774 201.432 57.0357 200.999 57.1524C200.565 57.2691 200.265 57.4691 200.099 57.7524C199.949 58.0357 199.874 58.4441 199.874 58.9774V67.7024H197.624V58.9774C197.624 58.6607 197.599 58.4024 197.549 58.2024C197.499 58.0024 197.399 57.8024 197.249 57.6024C196.915 57.1857 196.182 56.9774 195.049 56.9774C194.132 56.9774 193.44 57.0357 192.974 57.1524C192.507 57.2691 192.182 57.4691 191.999 57.7524C191.815 58.0191 191.724 58.4274 191.724 58.9774V67.7024H189.474V55.6024ZM216.815 67.9524C213.115 67.9524 211.265 66.7191 211.265 64.2524V59.4774C211.265 58.0107 211.682 56.9607 212.515 56.3274C213.365 55.6774 214.732 55.3524 216.615 55.3524C218.398 55.3524 219.682 55.6607 220.465 56.2774C221.265 56.8941 221.665 57.9607 221.665 59.4774V62.1524H213.54V63.9774C213.54 64.8107 213.832 65.4107 214.415 65.7774C214.998 66.1441 215.898 66.3274 217.115 66.3274C218.265 66.3274 219.623 66.1274 221.19 65.7274V67.4524C219.657 67.7857 218.198 67.9524 216.815 67.9524ZM219.415 60.6774V58.7774C219.415 58.0441 219.19 57.5441 218.74 57.2774C218.307 56.9941 217.557 56.8524 216.49 56.8524C215.457 56.8524 214.707 56.9941 214.24 57.2774C213.773 57.5441 213.54 58.0441 213.54 58.7774V60.6774H219.415ZM228.794 67.9524C227.511 67.9524 226.127 67.8524 224.644 67.6524V65.9274C226.594 66.2441 227.994 66.4024 228.844 66.4024C229.911 66.4024 230.677 66.3024 231.144 66.1024C231.611 65.8857 231.844 65.4941 231.844 64.9274V63.7024C231.844 63.1857 231.669 62.8191 231.319 62.6024C230.969 62.3857 230.402 62.2774 229.619 62.2774H228.244C226.994 62.2774 226.036 62.0191 225.369 61.5024C224.719 60.9857 224.394 60.2607 224.394 59.3274V58.2024C224.394 56.3024 226.194 55.3524 229.794 55.3524C230.061 55.3524 231.286 55.4191 233.469 55.5524V57.1774C231.986 56.9441 230.727 56.8274 229.694 56.8274C228.511 56.8274 227.702 56.9441 227.269 57.1774C226.836 57.4107 226.619 57.8024 226.619 58.3524V59.3774C226.619 60.1941 227.361 60.6024 228.844 60.6024H230.244C232.794 60.6024 234.069 61.5524 234.069 63.4524V64.5024C234.069 65.7524 233.636 66.6441 232.769 67.1774C231.902 67.6941 230.577 67.9524 228.794 67.9524ZM243.091 51.4774H245.516V58.4774H254.141V51.4774H256.566V67.7024H254.141V60.1774H245.516V67.7024H243.091V51.4774ZM260.616 51.2274H262.866V53.5774H260.616V51.2274ZM260.616 55.6024H262.866V67.7024H260.616V55.6024ZM271.344 73.2024C269.694 73.2024 268.302 73.1107 267.169 72.9274V71.3274C269.169 71.5607 270.627 71.6774 271.544 71.6774C272.694 71.6774 273.527 71.4941 274.044 71.1274C274.577 70.7607 274.844 70.1524 274.844 69.3024V66.4024C274.81 66.9357 274.444 67.3274 273.744 67.5774C273.06 67.8274 272.194 67.9524 271.144 67.9524C269.894 67.9524 268.919 67.8357 268.219 67.6024C267.535 67.3691 267.044 66.9857 266.744 66.4524C266.46 65.9191 266.319 65.1941 266.319 64.2774V59.3524C266.319 57.9191 266.702 56.8941 267.469 56.2774C268.252 55.6607 269.527 55.3524 271.294 55.3524C273.394 55.3524 274.627 55.8274 274.994 56.7774V55.6024H277.094V68.8524C277.094 69.9691 276.885 70.8441 276.469 71.4774C276.052 72.1107 275.427 72.5524 274.594 72.8024C273.76 73.0691 272.677 73.2024 271.344 73.2024ZM271.619 66.4524C272.802 66.4524 273.635 66.3107 274.119 66.0274C274.602 65.7441 274.844 65.2107 274.844 64.4274V58.9524C274.844 58.4024 274.752 57.9857 274.569 57.7024C274.402 57.4191 274.085 57.2191 273.619 57.1024C273.152 56.9691 272.469 56.9024 271.569 56.9024C270.719 56.9024 270.077 56.9607 269.644 57.0774C269.227 57.1941 268.935 57.4024 268.769 57.7024C268.619 57.9857 268.544 58.4024 268.544 58.9524V64.4274C268.544 64.9941 268.627 65.4191 268.794 65.7024C268.96 65.9857 269.26 66.1857 269.694 66.3024C270.127 66.4024 270.769 66.4524 271.619 66.4524ZM281.002 50.2024H283.252V57.0774C283.485 55.9274 284.81 55.3524 287.227 55.3524C288.777 55.3524 289.86 55.6357 290.477 56.2024C291.11 56.7524 291.427 57.6274 291.427 58.8274V67.7024H289.177V58.9774C289.177 58.6607 289.152 58.4024 289.102 58.2024C289.052 58.0024 288.952 57.8024 288.802 57.6024C288.469 57.1857 287.727 56.9774 286.577 56.9774C285.66 56.9774 284.96 57.0441 284.477 57.1774C284.01 57.2941 283.685 57.4941 283.502 57.7774C283.335 58.0607 283.252 58.4607 283.252 58.9774V67.7024H281.002V50.2024ZM300.433 67.9524C296.733 67.9524 294.883 66.7191 294.883 64.2524V59.4774C294.883 58.0107 295.3 56.9607 296.133 56.3274C296.983 55.6774 298.35 55.3524 300.233 55.3524C302.016 55.3524 303.3 55.6607 304.083 56.2774C304.883 56.8941 305.283 57.9607 305.283 59.4774V62.1524H297.158V63.9774C297.158 64.8107 297.45 65.4107 298.033 65.7774C298.616 66.1441 299.516 66.3274 300.733 66.3274C301.883 66.3274 303.241 66.1274 304.808 65.7274V67.4524C303.275 67.7857 301.816 67.9524 300.433 67.9524ZM303.033 60.6774V58.7774C303.033 58.0441 302.808 57.5441 302.358 57.2774C301.925 56.9941 301.175 56.8524 300.108 56.8524C299.075 56.8524 298.325 56.9941 297.858 57.2774C297.391 57.5441 297.158 58.0441 297.158 58.7774V60.6774H303.033ZM308.712 55.6024H310.837V57.5774C310.837 57.1941 311.004 56.8357 311.337 56.5024C311.67 56.1524 312.095 55.8774 312.612 55.6774C313.129 55.4607 313.637 55.3524 314.137 55.3524H315.237V57.2774H313.987C312.92 57.2774 312.145 57.4191 311.662 57.7024C311.195 57.9691 310.962 58.4607 310.962 59.1774V67.7024H308.712V55.6024ZM323.388 51.4774H334.288V53.1774H325.813V58.4774H333.463V60.1774H325.813V66.0024H334.538V67.7024H323.388V51.4774ZM342.065 67.9524C340.865 67.9524 339.924 67.8357 339.24 67.6024C338.557 67.3524 338.057 66.9524 337.74 66.4024C337.44 65.8524 337.29 65.0857 337.29 64.1024V58.7774C337.29 57.5607 337.665 56.6857 338.415 56.1524C339.182 55.6191 340.44 55.3524 342.19 55.3524C343.24 55.3524 344.14 55.4857 344.89 55.7524C345.657 56.0191 346.049 56.4024 346.065 56.9024H346.115L346.065 53.8274V50.2024H348.315V67.7024H346.115V66.2774C346.115 66.7274 345.757 67.1107 345.04 67.4274C344.324 67.7774 343.332 67.9524 342.065 67.9524ZM342.54 66.4024C343.79 66.4024 344.69 66.2607 345.24 65.9774C345.79 65.6941 346.065 65.2107 346.065 64.5274V58.5524C346.065 57.4691 344.957 56.9274 342.74 56.9274C341.407 56.9274 340.54 57.0274 340.14 57.2274C339.724 57.4274 339.515 57.8691 339.515 58.5524V64.5274C339.515 65.2107 339.74 65.6941 340.19 65.9774C340.657 66.2607 341.44 66.4024 342.54 66.4024ZM356.223 67.9524C354.673 67.9524 353.581 67.6774 352.948 67.1274C352.331 66.5607 352.023 65.6774 352.023 64.4774V55.6024H354.273V64.3524C354.273 64.6691 354.298 64.9274 354.348 65.1274C354.414 65.3107 354.523 65.5024 354.673 65.7024C354.973 66.1357 355.706 66.3524 356.873 66.3524C358.106 66.3524 358.973 66.2357 359.473 66.0024C359.956 65.7691 360.198 65.3441 360.198 64.7274V55.6024H362.448V67.7024H360.198V66.2274C359.981 67.3774 358.656 67.9524 356.223 67.9524ZM371.229 67.9524C370.395 67.9524 369.787 67.9357 369.404 67.9024C369.037 67.8691 368.612 67.7857 368.129 67.6524C367.612 67.5191 367.212 67.3191 366.929 67.0524C366.645 66.7857 366.404 66.3941 366.204 65.8774C366.004 65.3774 365.904 64.7524 365.904 64.0024V59.5524C365.904 58.2024 366.162 57.2357 366.679 56.6524C366.962 56.3191 367.245 56.0691 367.529 55.9024C367.829 55.7191 368.212 55.5941 368.679 55.5274C369.145 55.4607 369.562 55.4191 369.929 55.4024C370.295 55.3691 370.812 55.3524 371.479 55.3524C372.629 55.3524 373.779 55.4774 374.929 55.7274V57.3774C373.595 57.0441 372.354 56.8774 371.204 56.8774C370.337 56.8774 369.695 56.9441 369.279 57.0774C368.879 57.1941 368.595 57.4191 368.429 57.7524C368.279 58.0691 368.204 58.5607 368.204 59.2274V64.1774C368.204 64.7941 368.287 65.2524 368.454 65.5524C368.637 65.8524 368.954 66.0691 369.404 66.2024C369.87 66.3191 370.554 66.3774 371.454 66.3774C372.67 66.3774 373.887 66.2191 375.104 65.9024V67.6024C373.97 67.8357 372.679 67.9524 371.229 67.9524ZM381.675 67.9524C380.525 67.9524 379.634 67.8441 379 67.6274C378.384 67.4107 377.934 67.0274 377.65 66.4774C377.384 65.9274 377.25 65.1357 377.25 64.1024C377.25 63.1857 377.375 62.4774 377.625 61.9774C377.892 61.4607 378.334 61.0941 378.95 60.8774C379.584 60.6607 380.475 60.5524 381.625 60.5524H385.25V58.6274C385.25 58.1774 385.159 57.8357 384.975 57.6024C384.809 57.3524 384.517 57.1774 384.1 57.0774C383.7 56.9774 383.109 56.9274 382.325 56.9274C381.075 56.9274 379.692 57.0274 378.175 57.2274V55.5774C379.825 55.4274 381.317 55.3524 382.65 55.3524C384.05 55.3524 385.084 55.4607 385.75 55.6774C386.417 55.8774 386.875 56.2357 387.125 56.7524C387.375 57.2691 387.5 58.0691 387.5 59.1524V67.7024H385.325V66.5524C385.142 67.4857 383.925 67.9524 381.675 67.9524ZM382.05 66.4774C382.867 66.4774 383.559 66.4191 384.125 66.3024C384.875 66.1524 385.25 65.8024 385.25 65.2524V61.9524H381.775C381.059 61.9524 380.542 62.0107 380.225 62.1274C379.909 62.2274 379.7 62.4274 379.6 62.7274C379.5 63.0274 379.45 63.5107 379.45 64.1774C379.45 64.7774 379.509 65.2441 379.625 65.5774C379.742 65.8941 379.95 66.1274 380.25 66.2774C380.55 66.4107 381 66.4774 381.6 66.4774H382.05ZM396.477 67.9524C395.444 67.9524 394.636 67.8441 394.052 67.6274C393.469 67.3941 393.044 67.0107 392.777 66.4774C392.527 65.9274 392.402 65.1607 392.402 64.1774V57.0774H389.702V55.6024H392.402V51.8524H394.677V55.6024H399.002V57.0774H394.677V64.3024C394.677 64.9024 394.744 65.3524 394.877 65.6524C395.027 65.9524 395.277 66.1691 395.627 66.3024C395.994 66.4191 396.519 66.4774 397.202 66.4774C397.419 66.4774 398.019 66.4107 399.002 66.2774V67.7524C398.152 67.8857 397.311 67.9524 396.477 67.9524ZM401.461 51.2274H403.711V53.5774H401.461V51.2274ZM401.461 55.6024H403.711V67.7024H401.461V55.6024ZM412.738 67.9524C411.672 67.9524 410.872 67.9107 410.338 67.8274C409.805 67.7607 409.272 67.6024 408.738 67.3524C408.188 67.1024 407.788 66.7024 407.538 66.1524C407.288 65.5857 407.163 64.8274 407.163 63.8774V59.6774C407.163 58.9274 407.255 58.2691 407.438 57.7024C407.622 57.1357 407.863 56.6941 408.163 56.3774C408.413 56.0941 408.788 55.8774 409.288 55.7274C409.805 55.5607 410.33 55.4524 410.863 55.4024C411.463 55.3691 412.088 55.3524 412.738 55.3524C413.605 55.3524 414.255 55.3774 414.688 55.4274C415.138 55.4607 415.613 55.5441 416.113 55.6774C416.63 55.8274 417.03 56.0524 417.313 56.3524C417.597 56.6524 417.838 57.0857 418.038 57.6524C418.222 58.2357 418.313 58.9107 418.313 59.6774V63.8774C418.313 65.2941 417.988 66.3274 417.338 66.9774C417.072 67.2441 416.688 67.4524 416.188 67.6024C415.688 67.7524 415.172 67.8524 414.638 67.9024C414.005 67.9357 413.372 67.9524 412.738 67.9524ZM412.738 66.4774C413.438 66.4774 413.947 66.4607 414.263 66.4274C414.58 66.3941 414.888 66.3024 415.188 66.1524C415.488 66.0191 415.697 65.8024 415.813 65.5024C415.947 65.1857 416.013 64.7524 416.013 64.2024V59.3024C416.013 58.5524 415.922 58.0107 415.738 57.6774C415.555 57.3274 415.238 57.1024 414.788 57.0024C414.355 56.8857 413.672 56.8274 412.738 56.8274C411.805 56.8274 411.113 56.8857 410.663 57.0024C410.23 57.1024 409.922 57.3274 409.738 57.6774C409.555 58.0107 409.463 58.5524 409.463 59.3024V64.2024C409.463 64.7524 409.522 65.1857 409.638 65.5024C409.772 65.8024 409.988 66.0191 410.288 66.1524C410.588 66.3024 410.897 66.3941 411.213 66.4274C411.53 66.4607 412.038 66.4774 412.738 66.4774ZM421.822 55.6024H424.072V57.0774C424.306 55.9274 425.631 55.3524 428.047 55.3524C429.597 55.3524 430.681 55.6357 431.297 56.2024C431.931 56.7524 432.247 57.6274 432.247 58.8274V67.7024H429.997V58.9524C429.997 58.6357 429.972 58.3774 429.922 58.1774C429.872 57.9774 429.772 57.7774 429.622 57.5774C429.289 57.1607 428.547 56.9524 427.397 56.9524C426.514 56.9524 425.831 57.0191 425.347 57.1524C424.881 57.2691 424.547 57.4691 424.347 57.7524C424.164 58.0357 424.072 58.4357 424.072 58.9524V67.7024H421.822V55.6024ZM440.165 51.4774H442.74L446.765 65.4024H446.815L450.84 51.4774H453.415L457.44 65.4024H457.49L461.515 51.4774H463.965L458.74 67.7024H455.915L452.04 54.2024L448.065 67.7024H445.24L440.165 51.4774ZM471.234 67.9524C470.168 67.9524 469.368 67.9107 468.834 67.8274C468.301 67.7607 467.768 67.6024 467.234 67.3524C466.684 67.1024 466.284 66.7024 466.034 66.1524C465.784 65.5857 465.659 64.8274 465.659 63.8774V59.6774C465.659 58.9274 465.751 58.2691 465.934 57.7024C466.118 57.1357 466.359 56.6941 466.659 56.3774C466.909 56.0941 467.284 55.8774 467.784 55.7274C468.301 55.5607 468.826 55.4524 469.359 55.4024C469.959 55.3691 470.584 55.3524 471.234 55.3524C472.101 55.3524 472.751 55.3774 473.184 55.4274C473.634 55.4607 474.109 55.5441 474.609 55.6774C475.126 55.8274 475.526 56.0524 475.809 56.3524C476.093 56.6524 476.334 57.0857 476.534 57.6524C476.718 58.2357 476.809 58.9107 476.809 59.6774V63.8774C476.809 65.2941 476.484 66.3274 475.834 66.9774C475.568 67.2441 475.184 67.4524 474.684 67.6024C474.184 67.7524 473.668 67.8524 473.134 67.9024C472.501 67.9357 471.868 67.9524 471.234 67.9524ZM471.234 66.4774C471.934 66.4774 472.443 66.4607 472.759 66.4274C473.076 66.3941 473.384 66.3024 473.684 66.1524C473.984 66.0191 474.193 65.8024 474.309 65.5024C474.443 65.1857 474.509 64.7524 474.509 64.2024V59.3024C474.509 58.5524 474.418 58.0107 474.234 57.6774C474.051 57.3274 473.734 57.1024 473.284 57.0024C472.851 56.8857 472.168 56.8274 471.234 56.8274C470.301 56.8274 469.609 56.8857 469.159 57.0024C468.726 57.1024 468.418 57.3274 468.234 57.6774C468.051 58.0107 467.959 58.5524 467.959 59.3024V64.2024C467.959 64.7524 468.018 65.1857 468.134 65.5024C468.268 65.8024 468.484 66.0191 468.784 66.1524C469.084 66.3024 469.393 66.3941 469.709 66.4274C470.026 66.4607 470.534 66.4774 471.234 66.4774ZM480.318 55.6024H482.443V57.5774C482.443 57.1941 482.61 56.8357 482.943 56.5024C483.277 56.1524 483.702 55.8774 484.218 55.6774C484.735 55.4607 485.243 55.3524 485.743 55.3524H486.843V57.2774H485.593C484.527 57.2774 483.752 57.4191 483.268 57.7024C482.802 57.9691 482.568 58.4607 482.568 59.1774V67.7024H480.318V55.6024ZM489.083 50.2024H491.333V67.7024H489.083V50.2024ZM499.56 67.9524C498.36 67.9524 497.419 67.8357 496.735 67.6024C496.052 67.3524 495.552 66.9524 495.235 66.4024C494.935 65.8524 494.785 65.0857 494.785 64.1024V58.7774C494.785 57.5607 495.16 56.6857 495.91 56.1524C496.677 55.6191 497.935 55.3524 499.685 55.3524C500.735 55.3524 501.635 55.4857 502.385 55.7524C503.152 56.0191 503.544 56.4024 503.56 56.9024H503.61L503.56 53.8274V50.2024H505.81V67.7024H503.61V66.2774C503.61 66.7274 503.252 67.1107 502.535 67.4274C501.819 67.7774 500.827 67.9524 499.56 67.9524ZM500.035 66.4024C501.285 66.4024 502.185 66.2607 502.735 65.9774C503.285 65.6941 503.56 65.2107 503.56 64.5274V58.5524C503.56 57.4691 502.452 56.9274 500.235 56.9274C498.902 56.9274 498.035 57.0274 497.635 57.2274C497.219 57.4274 497.01 57.8691 497.01 58.5524V64.5274C497.01 65.2107 497.235 65.6941 497.685 65.9774C498.152 66.2607 498.935 66.4024 500.035 66.4024ZM515.429 51.4774H521.129C522.563 51.4774 523.679 51.5691 524.479 51.7524C525.296 51.9191 525.888 52.2274 526.254 52.6774C526.638 53.1274 526.829 53.7857 526.829 54.6524V57.4524C526.829 58.4191 526.429 59.1691 525.629 59.7024C524.846 60.2191 523.846 60.4774 522.629 60.4774L527.829 67.7024H524.854L520.204 60.7774H517.854V67.7024H515.429V51.4774ZM521.029 59.1774C522.229 59.1774 523.088 59.0357 523.604 58.7524C524.138 58.4524 524.404 57.9191 524.404 57.1524V54.9024C524.404 53.6857 523.354 53.0774 521.254 53.0774H517.854V59.1774H521.029ZM536.175 67.9524C532.475 67.9524 530.625 66.7191 530.625 64.2524V59.4774C530.625 58.0107 531.042 56.9607 531.875 56.3274C532.725 55.6774 534.092 55.3524 535.975 55.3524C537.759 55.3524 539.042 55.6607 539.825 56.2774C540.625 56.8941 541.025 57.9607 541.025 59.4774V62.1524H532.9V63.9774C532.9 64.8107 533.192 65.4107 533.775 65.7774C534.359 66.1441 535.259 66.3274 536.475 66.3274C537.625 66.3274 538.984 66.1274 540.55 65.7274V67.4524C539.017 67.7857 537.559 67.9524 536.175 67.9524ZM538.775 60.6774V58.7774C538.775 58.0441 538.55 57.5441 538.1 57.2774C537.667 56.9941 536.917 56.8524 535.85 56.8524C534.817 56.8524 534.067 56.9941 533.6 57.2774C533.134 57.5441 532.9 58.0441 532.9 58.7774V60.6774H538.775ZM544.454 55.6024H546.679V56.9024H546.704C546.888 55.8691 548.263 55.3524 550.829 55.3524C552.363 55.3524 553.521 55.6774 554.304 56.3274C555.088 56.9607 555.479 57.7774 555.479 58.7774V63.7524C555.479 64.4691 555.371 65.0941 555.154 65.6274C554.954 66.1607 554.688 66.5774 554.354 66.8774C554.054 67.1607 553.638 67.3857 553.104 67.5524C552.588 67.7191 552.071 67.8274 551.554 67.8774C551.088 67.9274 550.521 67.9524 549.854 67.9524C549.121 67.9524 548.446 67.8691 547.829 67.7024C547.229 67.5191 546.854 67.2607 546.704 66.9274V72.9024H544.454V55.6024ZM549.904 66.4274C550.771 66.4274 551.429 66.3691 551.879 66.2524C552.346 66.1191 552.679 65.8857 552.879 65.5524C553.079 65.2191 553.179 64.7107 553.179 64.0274V59.5774C553.179 58.8274 553.079 58.2691 552.879 57.9024C552.679 57.5357 552.346 57.2941 551.879 57.1774C551.429 57.0441 550.763 56.9774 549.879 56.9774C548.996 56.9774 548.338 57.0441 547.904 57.1774C547.471 57.2941 547.163 57.5357 546.979 57.9024C546.796 58.2524 546.704 58.8107 546.704 59.5774V64.0274C546.704 64.7107 546.796 65.2191 546.979 65.5524C547.179 65.8857 547.504 66.1191 547.954 66.2524C548.404 66.3691 549.054 66.4274 549.904 66.4274ZM563.132 67.9524C561.582 67.9524 560.49 67.6774 559.857 67.1274C559.24 66.5607 558.932 65.6774 558.932 64.4774V55.6024H561.182V64.3524C561.182 64.6691 561.207 64.9274 561.257 65.1274C561.323 65.3107 561.432 65.5024 561.582 65.7024C561.882 66.1357 562.615 66.3524 563.782 66.3524C565.015 66.3524 565.882 66.2357 566.382 66.0024C566.865 65.7691 567.107 65.3441 567.107 64.7274V55.6024H569.357V67.7024H567.107V66.2274C566.89 67.3774 565.565 67.9524 563.132 67.9524ZM578.338 67.9524C577.304 67.9524 576.496 67.8441 575.913 67.6274C575.329 67.3941 574.904 67.0107 574.638 66.4774C574.388 65.9274 574.263 65.1607 574.263 64.1774V57.0774H571.563V55.6024H574.263V51.8524H576.538V55.6024H580.863V57.0774H576.538V64.3024C576.538 64.9024 576.604 65.3524 576.738 65.6524C576.888 65.9524 577.138 66.1691 577.488 66.3024C577.854 66.4191 578.379 66.4774 579.063 66.4774C579.279 66.4774 579.879 66.4107 580.863 66.2774V67.7524C580.013 67.8857 579.171 67.9524 578.338 67.9524ZM587.046 67.9524C585.896 67.9524 585.005 67.8441 584.371 67.6274C583.755 67.4107 583.305 67.0274 583.021 66.4774C582.755 65.9274 582.621 65.1357 582.621 64.1024C582.621 63.1857 582.746 62.4774 582.996 61.9774C583.263 61.4607 583.705 61.0941 584.321 60.8774C584.955 60.6607 585.846 60.5524 586.996 60.5524H590.621V58.6274C590.621 58.1774 590.53 57.8357 590.346 57.6024C590.18 57.3524 589.888 57.1774 589.471 57.0774C589.071 56.9774 588.48 56.9274 587.696 56.9274C586.446 56.9274 585.063 57.0274 583.546 57.2274V55.5774C585.196 55.4274 586.688 55.3524 588.021 55.3524C589.421 55.3524 590.455 55.4607 591.121 55.6774C591.788 55.8774 592.246 56.2357 592.496 56.7524C592.746 57.2691 592.871 58.0691 592.871 59.1524V67.7024H590.696V66.5524C590.513 67.4857 589.296 67.9524 587.046 67.9524ZM587.421 66.4774C588.238 66.4774 588.93 66.4191 589.496 66.3024C590.246 66.1524 590.621 65.8024 590.621 65.2524V61.9524H587.146C586.43 61.9524 585.913 62.0107 585.596 62.1274C585.28 62.2274 585.071 62.4274 584.971 62.7274C584.871 63.0274 584.821 63.5107 584.821 64.1774C584.821 64.7774 584.88 65.2441 584.996 65.5774C585.113 65.8941 585.321 66.1274 585.621 66.2774C585.921 66.4107 586.371 66.4774 586.971 66.4774H587.421ZM601.849 67.9524C600.815 67.9524 600.007 67.8441 599.424 67.6274C598.84 67.3941 598.415 67.0107 598.149 66.4774C597.899 65.9274 597.774 65.1607 597.774 64.1774V57.0774H595.074V55.6024H597.774V51.8524H600.049V55.6024H604.374V57.0774H600.049V64.3024C600.049 64.9024 600.115 65.3524 600.249 65.6524C600.399 65.9524 600.649 66.1691 600.999 66.3024C601.365 66.4191 601.89 66.4774 602.574 66.4774C602.79 66.4774 603.39 66.4107 604.374 66.2774V67.7524C603.524 67.8857 602.682 67.9524 601.849 67.9524ZM606.832 51.2274H609.082V53.5774H606.832V51.2274ZM606.832 55.6024H609.082V67.7024H606.832V55.6024ZM618.109 67.9524C617.043 67.9524 616.243 67.9107 615.709 67.8274C615.176 67.7607 614.643 67.6024 614.109 67.3524C613.559 67.1024 613.159 66.7024 612.909 66.1524C612.659 65.5857 612.534 64.8274 612.534 63.8774V59.6774C612.534 58.9274 612.626 58.2691 612.809 57.7024C612.993 57.1357 613.234 56.6941 613.534 56.3774C613.784 56.0941 614.159 55.8774 614.659 55.7274C615.176 55.5607 615.701 55.4524 616.234 55.4024C616.834 55.3691 617.459 55.3524 618.109 55.3524C618.976 55.3524 619.626 55.3774 620.059 55.4274C620.509 55.4607 620.984 55.5441 621.484 55.6774C622.001 55.8274 622.401 56.0524 622.684 56.3524C622.968 56.6524 623.209 57.0857 623.409 57.6524C623.593 58.2357 623.684 58.9107 623.684 59.6774V63.8774C623.684 65.2941 623.359 66.3274 622.709 66.9774C622.443 67.2441 622.059 67.4524 621.559 67.6024C621.059 67.7524 620.543 67.8524 620.009 67.9024C619.376 67.9357 618.743 67.9524 618.109 67.9524ZM618.109 66.4774C618.809 66.4774 619.318 66.4607 619.634 66.4274C619.951 66.3941 620.259 66.3024 620.559 66.1524C620.859 66.0191 621.068 65.8024 621.184 65.5024C621.318 65.1857 621.384 64.7524 621.384 64.2024V59.3024C621.384 58.5524 621.293 58.0107 621.109 57.6774C620.926 57.3274 620.609 57.1024 620.159 57.0024C619.726 56.8857 619.043 56.8274 618.109 56.8274C617.176 56.8274 616.484 56.8857 616.034 57.0024C615.601 57.1024 615.293 57.3274 615.109 57.6774C614.926 58.0107 614.834 58.5524 614.834 59.3024V64.2024C614.834 64.7524 614.893 65.1857 615.009 65.5024C615.143 65.8024 615.359 66.0191 615.659 66.1524C615.959 66.3024 616.268 66.3941 616.584 66.4274C616.901 66.4607 617.409 66.4774 618.109 66.4774ZM627.193 55.6024H629.443V57.0774C629.677 55.9274 631.002 55.3524 633.418 55.3524C634.968 55.3524 636.052 55.6357 636.668 56.2024C637.302 56.7524 637.618 57.6274 637.618 58.8274V67.7024H635.368V58.9524C635.368 58.6357 635.343 58.3774 635.293 58.1774C635.243 57.9774 635.143 57.7774 634.993 57.5774C634.66 57.1607 633.918 56.9524 632.768 56.9524C631.885 56.9524 631.202 57.0191 630.718 57.1524C630.252 57.2691 629.918 57.4691 629.718 57.7524C629.535 58.0357 629.443 58.4357 629.443 58.9524V67.7024H627.193V55.6024ZM120.752 71.4774H126.452C127.885 71.4774 129.002 71.5691 129.802 71.7524C130.618 71.9191 131.21 72.2274 131.577 72.6774C131.96 73.1274 132.152 73.7857 132.152 74.6524V77.4524C132.152 78.4191 131.752 79.1691 130.952 79.7024C130.168 80.2191 129.168 80.4774 127.952 80.4774L133.152 87.7024H130.177L125.527 80.7774H123.177V87.7024H120.752V71.4774ZM126.352 79.1774C127.552 79.1774 128.41 79.0357 128.927 78.7524C129.46 78.4524 129.727 77.9191 129.727 77.1524V74.9024C129.727 73.6857 128.677 73.0774 126.577 73.0774H123.177V79.1774H126.352ZM140.123 87.9524C138.973 87.9524 138.081 87.8441 137.448 87.6274C136.831 87.4107 136.381 87.0274 136.098 86.4774C135.831 85.9274 135.698 85.1357 135.698 84.1024C135.698 83.1857 135.823 82.4774 136.073 81.9774C136.339 81.4607 136.781 81.0941 137.398 80.8774C138.031 80.6607 138.923 80.5524 140.073 80.5524H143.698V78.6274C143.698 78.1774 143.606 77.8357 143.423 77.6024C143.256 77.3524 142.964 77.1774 142.548 77.0774C142.148 76.9774 141.556 76.9274 140.773 76.9274C139.523 76.9274 138.139 77.0274 136.623 77.2274V75.5774C138.273 75.4274 139.764 75.3524 141.098 75.3524C142.498 75.3524 143.531 75.4607 144.198 75.6774C144.864 75.8774 145.323 76.2357 145.573 76.7524C145.823 77.2691 145.948 78.0691 145.948 79.1524V87.7024H143.773V86.5524C143.589 87.4857 142.373 87.9524 140.123 87.9524ZM140.498 86.4774C141.314 86.4774 142.006 86.4191 142.573 86.3024C143.323 86.1524 143.698 85.8024 143.698 85.2524V81.9524H140.223C139.506 81.9524 138.989 82.0107 138.673 82.1274C138.356 82.2274 138.148 82.4274 138.048 82.7274C137.948 83.0274 137.898 83.5107 137.898 84.1774C137.898 84.7774 137.956 85.2441 138.073 85.5774C138.189 85.8941 138.398 86.1274 138.698 86.2774C138.998 86.4107 139.448 86.4774 140.048 86.4774H140.498ZM149.85 75.6024H152.1V77.0774C152.333 75.9274 153.658 75.3524 156.075 75.3524C157.625 75.3524 158.708 75.6357 159.325 76.2024C159.958 76.7524 160.275 77.6274 160.275 78.8274V87.7024H158.025V78.9524C158.025 78.6357 158 78.3774 157.95 78.1774C157.9 77.9774 157.8 77.7774 157.65 77.5774C157.316 77.1607 156.575 76.9524 155.425 76.9524C154.541 76.9524 153.858 77.0191 153.375 77.1524C152.908 77.2691 152.575 77.4691 152.375 77.7524C152.191 78.0357 152.1 78.4357 152.1 78.9524V87.7024H149.85V75.6024ZM164.181 70.2024H166.431V87.7024H164.181V70.2024ZM166.706 81.0774L171.806 75.6024H174.556L169.306 81.0774L175.031 87.7024H172.231L166.706 81.0774ZM177.023 71.2274H179.273V73.5774H177.023V71.2274ZM177.023 75.6024H179.273V87.7024H177.023V75.6024ZM183.175 75.6024H185.425V77.0774C185.658 75.9274 186.983 75.3524 189.4 75.3524C190.95 75.3524 192.033 75.6357 192.65 76.2024C193.283 76.7524 193.6 77.6274 193.6 78.8274V87.7024H191.35V78.9524C191.35 78.6357 191.325 78.3774 191.275 78.1774C191.225 77.9774 191.125 77.7774 190.975 77.5774C190.642 77.1607 189.9 76.9524 188.75 76.9524C187.867 76.9524 187.183 77.0191 186.7 77.1524C186.233 77.2691 185.9 77.4691 185.7 77.7524C185.517 78.0357 185.425 78.4357 185.425 78.9524V87.7024H183.175V75.6024ZM202.081 93.2024C200.431 93.2024 199.039 93.1107 197.906 92.9274V91.3274C199.906 91.5607 201.364 91.6774 202.281 91.6774C203.431 91.6774 204.264 91.4941 204.781 91.1274C205.314 90.7607 205.581 90.1524 205.581 89.3024V86.4024C205.548 86.9357 205.181 87.3274 204.481 87.5774C203.798 87.8274 202.931 87.9524 201.881 87.9524C200.631 87.9524 199.656 87.8357 198.956 87.6024C198.273 87.3691 197.781 86.9857 197.481 86.4524C197.198 85.9191 197.056 85.1941 197.056 84.2774V79.3524C197.056 77.9191 197.439 76.8941 198.206 76.2774C198.989 75.6607 200.264 75.3524 202.031 75.3524C204.131 75.3524 205.364 75.8274 205.731 76.7774V75.6024H207.831V88.8524C207.831 89.9691 207.623 90.8441 207.206 91.4774C206.789 92.1107 206.164 92.5524 205.331 92.8024C204.498 93.0691 203.414 93.2024 202.081 93.2024ZM202.356 86.4524C203.539 86.4524 204.373 86.3107 204.856 86.0274C205.339 85.7441 205.581 85.2107 205.581 84.4274V78.9524C205.581 78.4024 205.489 77.9857 205.306 77.7024C205.139 77.4191 204.823 77.2191 204.356 77.1024C203.889 76.9691 203.206 76.9024 202.306 76.9024C201.456 76.9024 200.814 76.9607 200.381 77.0774C199.964 77.1941 199.673 77.4024 199.506 77.7024C199.356 77.9857 199.281 78.4024 199.281 78.9524V84.4274C199.281 84.9941 199.364 85.4191 199.531 85.7024C199.698 85.9857 199.998 86.1857 200.431 86.3024C200.864 86.4024 201.506 86.4524 202.356 86.4524ZM215.439 87.9524C214.156 87.9524 212.773 87.8524 211.289 87.6524V85.9274C213.239 86.2441 214.639 86.4024 215.489 86.4024C216.556 86.4024 217.323 86.3024 217.789 86.1024C218.256 85.8857 218.489 85.4941 218.489 84.9274V83.7024C218.489 83.1857 218.314 82.8191 217.964 82.6024C217.614 82.3857 217.048 82.2774 216.264 82.2774H214.889C213.639 82.2774 212.681 82.0191 212.014 81.5024C211.364 80.9857 211.039 80.2607 211.039 79.3274V78.2024C211.039 76.3024 212.839 75.3524 216.439 75.3524C216.706 75.3524 217.931 75.4191 220.114 75.5524V77.1774C218.631 76.9441 217.373 76.8274 216.339 76.8274C215.156 76.8274 214.348 76.9441 213.914 77.1774C213.481 77.4107 213.264 77.8024 213.264 78.3524V79.3774C213.264 80.1941 214.006 80.6024 215.489 80.6024H216.889C219.439 80.6024 220.714 81.5524 220.714 83.4524V84.5024C220.714 85.7524 220.281 86.6441 219.414 87.1774C218.548 87.6941 217.223 87.9524 215.439 87.9524ZM234.398 79.5774H252.848V81.3524H234.398V79.5774ZM261.718 75.6024H271.943V87.7024H269.693V77.2524H263.968V87.7024H261.718V75.6024ZM281.122 87.9524C280.056 87.9524 279.256 87.9107 278.722 87.8274C278.189 87.7607 277.656 87.6024 277.122 87.3524C276.572 87.1024 276.172 86.7024 275.922 86.1524C275.672 85.5857 275.547 84.8274 275.547 83.8774V79.6774C275.547 78.9274 275.639 78.2691 275.822 77.7024C276.006 77.1357 276.247 76.6941 276.547 76.3774C276.797 76.0941 277.172 75.8774 277.672 75.7274C278.189 75.5607 278.714 75.4524 279.247 75.4024C279.847 75.3691 280.472 75.3524 281.122 75.3524C281.989 75.3524 282.639 75.3774 283.072 75.4274C283.522 75.4607 283.997 75.5441 284.497 75.6774C285.014 75.8274 285.414 76.0524 285.697 76.3524C285.981 76.6524 286.222 77.0857 286.422 77.6524C286.606 78.2357 286.697 78.9107 286.697 79.6774V83.8774C286.697 85.2941 286.372 86.3274 285.722 86.9774C285.456 87.2441 285.072 87.4524 284.572 87.6024C284.072 87.7524 283.556 87.8524 283.022 87.9024C282.389 87.9357 281.756 87.9524 281.122 87.9524ZM281.122 86.4774C281.822 86.4774 282.331 86.4607 282.647 86.4274C282.964 86.3941 283.272 86.3024 283.572 86.1524C283.872 86.0191 284.081 85.8024 284.197 85.5024C284.331 85.1857 284.397 84.7524 284.397 84.2024V79.3024C284.397 78.5524 284.306 78.0107 284.122 77.6774C283.939 77.3274 283.622 77.1024 283.172 77.0024C282.739 76.8857 282.056 76.8274 281.122 76.8274C280.189 76.8274 279.497 76.8857 279.047 77.0024C278.614 77.1024 278.306 77.3274 278.122 77.6774C277.939 78.0107 277.847 78.5524 277.847 79.3024V84.2024C277.847 84.7524 277.906 85.1857 278.022 85.5024C278.156 85.8024 278.372 86.0191 278.672 86.1524C278.972 86.3024 279.281 86.3941 279.597 86.4274C279.914 86.4607 280.422 86.4774 281.122 86.4774ZM292.906 87.9524C291.923 87.9524 290.789 87.8107 289.506 87.5274V85.7524C290.756 86.1191 291.889 86.3024 292.906 86.3024C294.056 86.3024 294.898 86.1774 295.431 85.9274C295.964 85.6607 296.231 85.1607 296.231 84.4274V83.6524C296.231 83.0357 295.956 82.6274 295.406 82.4274C294.873 82.2107 294.114 82.1024 293.131 82.1024H291.756V80.5524H292.706C293.723 80.5524 294.498 80.4357 295.031 80.2024C295.564 79.9691 295.831 79.5524 295.831 78.9524V78.2024C295.831 77.3357 294.831 76.9024 292.831 76.9024C291.781 76.9024 290.756 77.0024 289.756 77.2024V75.5774C290.706 75.4274 291.723 75.3524 292.806 75.3524C294.089 75.3524 295.089 75.4191 295.806 75.5524C296.523 75.6857 297.081 75.9357 297.481 76.3024C297.898 76.6691 298.106 77.2607 298.106 78.0774V79.0524C298.106 79.5857 297.906 80.0274 297.506 80.3774C297.123 80.7107 296.623 80.9274 296.006 81.0274V81.1274C297.723 81.3941 298.581 82.1357 298.581 83.3524V84.6024C298.581 85.1691 298.464 85.6774 298.231 86.1274C298.014 86.5607 297.723 86.8941 297.356 87.1274C296.856 87.4441 296.223 87.6607 295.456 87.7774C294.706 87.8941 293.856 87.9524 292.906 87.9524ZM312.823 75.6024V87.7024H310.573V78.7774L304.273 87.7024H302.023V75.6024H304.273V84.8274L310.698 75.6024H312.823ZM327.12 87.7024H316.87V75.6024H319.12V86.0524H325.095V75.6024H327.345V86.0524H329.045V90.8024H327.12V87.7024ZM342.534 75.6024V87.7024H340.284V78.7774L333.984 87.7024H331.734V75.6024H333.984V84.8274L340.409 75.6024H342.534ZM356.182 75.6024V87.7024H353.932V83.3524H351.282L348.207 87.7024H345.232L348.932 82.9274C347.982 82.7774 347.29 82.4691 346.857 82.0024C346.44 81.5191 346.232 80.8607 346.232 80.0274V78.7274C346.232 77.8607 346.348 77.2107 346.582 76.7774C346.832 76.3441 347.248 76.0441 347.832 75.8774C348.415 75.6941 349.282 75.6024 350.432 75.6024H356.182ZM353.932 77.1524H350.657C350.04 77.1524 349.582 77.2024 349.282 77.3024C348.982 77.4024 348.773 77.5774 348.657 77.8274C348.557 78.0774 348.507 78.4441 348.507 78.9274V79.7774C348.507 80.4274 348.657 80.9274 348.957 81.2774C349.273 81.6274 349.748 81.8024 350.382 81.8024H353.932V77.1524ZM376.203 75.3024L371.778 77.7524V74.6774L376.903 71.4774H379.853V87.7024H376.203V75.3024ZM391.38 87.9524C390.646 87.9524 390.046 87.9274 389.58 87.8774C389.113 87.8274 388.605 87.7274 388.055 87.5774C387.488 87.4107 387.03 87.1774 386.68 86.8774C386.33 86.5607 386.038 86.1107 385.805 85.5274C385.555 84.9607 385.43 84.2774 385.43 83.4774V75.7024C385.43 74.9357 385.546 74.2607 385.78 73.6774C386.013 73.0941 386.313 72.6357 386.68 72.3024C386.996 72.0191 387.43 71.7941 387.98 71.6274C388.53 71.4441 389.08 71.3274 389.63 71.2774C390.263 71.2441 390.846 71.2274 391.38 71.2274C392.13 71.2274 392.73 71.2524 393.18 71.3024C393.63 71.3357 394.13 71.4357 394.68 71.6024C395.28 71.7857 395.755 72.0274 396.105 72.3274C396.455 72.6274 396.755 73.0607 397.005 73.6274C397.255 74.1941 397.38 74.8857 397.38 75.7024V83.4774C397.38 84.2441 397.255 84.9191 397.005 85.5024C396.771 86.0857 396.471 86.5357 396.105 86.8524C395.771 87.1357 395.313 87.3691 394.73 87.5524C394.163 87.7357 393.621 87.8441 393.105 87.8774C392.638 87.9274 392.063 87.9524 391.38 87.9524ZM391.43 85.6024C392.13 85.6024 392.63 85.5607 392.93 85.4774C393.23 85.3774 393.43 85.2024 393.53 84.9524C393.63 84.7024 393.68 84.2941 393.68 83.7274V75.4524C393.68 74.8857 393.63 74.4774 393.53 74.2274C393.43 73.9774 393.23 73.8107 392.93 73.7274C392.63 73.6274 392.13 73.5774 391.43 73.5774C390.713 73.5774 390.196 73.6274 389.88 73.7274C389.58 73.8107 389.38 73.9774 389.28 74.2274C389.18 74.4774 389.13 74.8857 389.13 75.4524V83.7274C389.13 84.2941 389.18 84.7024 389.28 84.9524C389.38 85.2024 389.58 85.3774 389.88 85.4774C390.196 85.5607 390.713 85.6024 391.43 85.6024ZM405.882 87.9524C405.148 87.9524 404.548 87.9274 404.082 87.8774C403.615 87.8274 403.107 87.7274 402.557 87.5774C401.99 87.4107 401.532 87.1774 401.182 86.8774C400.832 86.5607 400.54 86.1107 400.307 85.5274C400.057 84.9607 399.932 84.2774 399.932 83.4774V75.7024C399.932 74.9357 400.048 74.2607 400.282 73.6774C400.515 73.0941 400.815 72.6357 401.182 72.3024C401.498 72.0191 401.932 71.7941 402.482 71.6274C403.032 71.4441 403.582 71.3274 404.132 71.2774C404.765 71.2441 405.348 71.2274 405.882 71.2274C406.632 71.2274 407.232 71.2524 407.682 71.3024C408.132 71.3357 408.632 71.4357 409.182 71.6024C409.782 71.7857 410.257 72.0274 410.607 72.3274C410.957 72.6274 411.257 73.0607 411.507 73.6274C411.757 74.1941 411.882 74.8857 411.882 75.7024V83.4774C411.882 84.2441 411.757 84.9191 411.507 85.5024C411.273 86.0857 410.973 86.5357 410.607 86.8524C410.273 87.1357 409.815 87.3691 409.232 87.5524C408.665 87.7357 408.123 87.8441 407.607 87.8774C407.14 87.9274 406.565 87.9524 405.882 87.9524ZM405.932 85.6024C406.632 85.6024 407.132 85.5607 407.432 85.4774C407.732 85.3774 407.932 85.2024 408.032 84.9524C408.132 84.7024 408.182 84.2941 408.182 83.7274V75.4524C408.182 74.8857 408.132 74.4774 408.032 74.2274C407.932 73.9774 407.732 73.8107 407.432 73.7274C407.132 73.6274 406.632 73.5774 405.932 73.5774C405.215 73.5774 404.698 73.6274 404.382 73.7274C404.082 73.8107 403.882 73.9774 403.782 74.2274C403.682 74.4774 403.632 74.8857 403.632 75.4524V83.7274C403.632 84.2941 403.682 84.7024 403.782 84.9524C403.882 85.2024 404.082 85.3774 404.382 85.4774C404.698 85.5607 405.215 85.6024 405.932 85.6024ZM414.159 79.1524H421.859V81.9524H414.159V79.1524ZM429.401 75.3024L424.976 77.7524V74.6774L430.101 71.4774H433.051V87.7024H429.401V75.3024ZM438.803 84.0024C438.803 83.1024 439.053 82.3191 439.553 81.6524C440.053 80.9857 440.703 80.4774 441.503 80.1274C442.136 79.8441 442.878 79.5607 443.728 79.2774C444.578 78.9941 445.236 78.6941 445.703 78.3774C446.17 78.0607 446.403 77.6857 446.403 77.2524V75.1774C446.403 74.6607 446.195 74.3191 445.778 74.1524C445.328 73.9691 444.628 73.8774 443.678 73.8774C442.528 73.8774 441.011 74.0857 439.128 74.5024V71.7524C440.795 71.4024 442.536 71.2274 444.353 71.2274C446.32 71.2274 447.778 71.5274 448.728 72.1274C449.695 72.7274 450.178 73.7274 450.178 75.1274V77.3774C450.178 78.2274 449.92 78.9691 449.403 79.6024C448.903 80.2191 448.253 80.6857 447.453 81.0024C446.703 81.3191 445.936 81.6024 445.153 81.8524C444.303 82.1524 443.628 82.4857 443.128 82.8524C442.645 83.2191 442.403 83.6524 442.403 84.1524V84.9774H450.203V87.7024H438.803V84.0024ZM458.555 87.9524C457.405 87.9524 455.68 87.8607 453.38 87.6774V84.6524C455.446 85.0357 457.005 85.2274 458.055 85.2274C458.971 85.2274 459.638 85.1274 460.055 84.9274C460.471 84.7107 460.68 84.3774 460.68 83.9274V81.5024C460.68 81.0524 460.53 80.7357 460.23 80.5524C459.93 80.3524 459.438 80.2524 458.755 80.2524H453.755V71.4774H464.005V74.2774H457.405V77.5774H459.955C460.921 77.5774 461.863 77.7607 462.78 78.1274C463.28 78.3441 463.68 78.6774 463.98 79.1274C464.28 79.5774 464.43 80.1024 464.43 80.7024V84.1024C464.43 84.7524 464.305 85.3357 464.055 85.8524C463.805 86.3524 463.488 86.7357 463.105 87.0024C462.771 87.2524 462.321 87.4524 461.755 87.6024C461.205 87.7524 460.671 87.8524 460.155 87.9024C459.555 87.9357 459.021 87.9524 458.555 87.9524ZM486.23 71.2274H488.405L480.305 87.9524H478.13L486.23 71.2274ZM495.859 84.0024C495.859 83.1024 496.109 82.3191 496.609 81.6524C497.109 80.9857 497.759 80.4774 498.559 80.1274C499.192 79.8441 499.934 79.5607 500.784 79.2774C501.634 78.9941 502.292 78.6941 502.759 78.3774C503.225 78.0607 503.459 77.6857 503.459 77.2524V75.1774C503.459 74.6607 503.25 74.3191 502.834 74.1524C502.384 73.9691 501.684 73.8774 500.734 73.8774C499.584 73.8774 498.067 74.0857 496.184 74.5024V71.7524C497.85 71.4024 499.592 71.2274 501.409 71.2274C503.375 71.2274 504.834 71.5274 505.784 72.1274C506.75 72.7274 507.234 73.7274 507.234 75.1274V77.3774C507.234 78.2274 506.975 78.9691 506.459 79.6024C505.959 80.2191 505.309 80.6857 504.509 81.0024C503.759 81.3191 502.992 81.6024 502.209 81.8524C501.359 82.1524 500.684 82.4857 500.184 82.8524C499.7 83.2191 499.459 83.6524 499.459 84.1524V84.9774H507.259V87.7024H495.859V84.0024ZM515.46 75.3024L511.035 77.7524V74.6774L516.16 71.4774H519.11V87.7024H515.46V75.3024ZM531.562 84.4274H524.062V81.5524L530.737 71.4774H534.862V81.8024H536.612V84.4274H534.862V87.7024H531.562V84.4274ZM531.562 81.8024V74.9274L527.187 81.8024H531.562Z" fill="#010F2C"/>
<path d="M1055.9 83.4552H1034.25V84.9552H1048.4V118.455H1055.9V83.4552ZM1061.11 101.005C1061.11 115.605 1071.96 119.455 1081.61 119.455C1091.21 119.455 1102.11 115.605 1102.11 100.905C1102.11 86.3052 1091.26 82.4552 1081.61 82.4552C1072.01 82.4552 1061.16 86.3052 1061.11 101.005ZM1068.56 100.955C1068.61 92.5552 1071.21 83.9552 1081.61 83.9552C1092.01 83.9552 1094.66 93.0052 1094.66 100.905C1094.66 108.855 1092.01 118.005 1081.61 117.955C1071.21 117.905 1068.51 109.355 1068.56 100.955ZM1123.05 83.4552H1101.4V84.9552H1115.55V118.455H1123.05V83.4552ZM1125.28 107.005V103.105H1137.38V107.005H1125.28ZM1161.29 83.4552H1139.64V84.9552H1153.79V118.455H1161.29V83.4552ZM1195.15 118.455L1199.35 112.455H1175.8C1179.7 109.355 1196 99.9052 1196.1 92.5552C1196.3 79.4052 1172.45 79.3552 1167.2 90.8052H1168.7C1172.95 82.3552 1188.05 82.7052 1188.1 92.2052C1188.15 102.355 1175.3 109.555 1166.5 118.455H1195.15ZM1208.89 89.4552H1228.14L1232.34 83.4552H1207.39V100.955C1214.74 95.6552 1226.39 98.0052 1226.39 108.055C1226.39 112.805 1223.19 117.855 1216.39 117.955C1212.89 117.955 1205.59 117.005 1202.14 111.455H1200.64C1203.89 117.255 1211.49 119.455 1216.39 119.455C1229.74 119.455 1234.34 113.505 1234.34 108.155C1234.34 95.8052 1213.49 95.2052 1208.89 98.1052V89.4552Z" fill="#0A0A09"/>
<rect x="1286.38" y="0.25293" width="33.618" height="190.831" rx="16.809" fill="#C4C4C4"/>
</svg>
